<svg xmlns="http://www.w3.org/2000/svg" width="900" height="520" viewBox="0 0 900 520">
<rect width="100%" height="100%" fill="white"/>
<text x="450" y="28" text-anchor="middle" font-family="Arial" font-size="23" font-weight="700" fill="#0f172a">Phase 1 reproduced predictive performance</text>
<text x="450" y="52" text-anchor="middle" font-family="Arial" font-size="13" fill="#475569">PR-thresholded outer-CV metrics; AP_SP matches the paper-level F1/accuracy target.</text>
<line x1="78" y1="446.0" x2="864" y2="446.0" stroke="#e2e8f0"/>
<text x="68" y="450.0" text-anchor="end" font-family="Arial" font-size="12" fill="#334155">0.00</text>
<line x1="78" y1="353.0" x2="864" y2="353.0" stroke="#e2e8f0"/>
<text x="68" y="357.0" text-anchor="end" font-family="Arial" font-size="12" fill="#334155">0.25</text>
<line x1="78" y1="260.0" x2="864" y2="260.0" stroke="#e2e8f0"/>
<text x="68" y="264.0" text-anchor="end" font-family="Arial" font-size="12" fill="#334155">0.50</text>
<line x1="78" y1="167.0" x2="864" y2="167.0" stroke="#e2e8f0"/>
<text x="68" y="171.0" text-anchor="end" font-family="Arial" font-size="12" fill="#334155">0.75</text>
<line x1="78" y1="74.0" x2="864" y2="74.0" stroke="#e2e8f0"/>
<text x="68" y="78.0" text-anchor="end" font-family="Arial" font-size="12" fill="#334155">1.00</text>
<rect x="102" y="56" width="18" height="10" fill="#93c5fd"/>
<text x="126" y="66" font-family="Arial" font-size="12" fill="#334155">Accuracy</text>
<rect x="220" y="56" width="18" height="10" fill="#2563eb"/>
<text x="244" y="66" font-family="Arial" font-size="12" fill="#334155">F1</text>
<rect x="338" y="56" width="18" height="10" fill="#1e40af"/>
<text x="362" y="66" font-family="Arial" font-size="12" fill="#334155">PR-AUC</text>
<rect x="106.3" y="170.0" width="28.3" height="276.0" fill="#93c5fd"/>
<text x="120.4" y="165.0" text-anchor="middle" font-family="Arial" font-size="10" fill="#0f172a">0.742</text>
<rect x="139.7" y="137.8" width="28.3" height="308.2" fill="#2563eb"/>
<text x="153.8" y="132.8" text-anchor="middle" font-family="Arial" font-size="10" fill="#0f172a">0.828</text>
<rect x="173.1" y="109.0" width="28.3" height="337.0" fill="#1e40af"/>
<text x="187.2" y="104.0" text-anchor="middle" font-family="Arial" font-size="10" fill="#0f172a">0.906</text>
<text x="156.6" y="478" text-anchor="middle" font-family="Arial" font-size="12" font-weight="700" fill="#0f172a">AP</text>
<rect x="263.5" y="139.6" width="28.3" height="306.4" fill="#93c5fd"/>
<text x="277.6" y="134.6" text-anchor="middle" font-family="Arial" font-size="10" fill="#0f172a">0.824</text>
<rect x="296.9" y="122.1" width="28.3" height="323.9" fill="#2563eb"/>
<text x="311.0" y="117.1" text-anchor="middle" font-family="Arial" font-size="10" fill="#0f172a">0.871</text>
<rect x="330.3" y="96.5" width="28.3" height="349.5" fill="#1e40af"/>
<text x="344.4" y="91.5" text-anchor="middle" font-family="Arial" font-size="10" fill="#0f172a">0.940</text>
<text x="313.8" y="478" text-anchor="middle" font-family="Arial" font-size="12" font-weight="700" fill="#0f172a">SP</text>
<rect x="420.7" y="141.7" width="28.3" height="304.3" fill="#93c5fd"/>
<text x="434.8" y="136.7" text-anchor="middle" font-family="Arial" font-size="10" fill="#0f172a">0.818</text>
<rect x="454.1" y="122.9" width="28.3" height="323.1" fill="#2563eb"/>
<text x="468.2" y="117.9" text-anchor="middle" font-family="Arial" font-size="10" fill="#0f172a">0.869</text>
<rect x="487.5" y="98.0" width="28.3" height="348.0" fill="#1e40af"/>
<text x="501.6" y="93.0" text-anchor="middle" font-family="Arial" font-size="10" fill="#0f172a">0.936</text>
<text x="471.0" y="478" text-anchor="middle" font-family="Arial" font-size="12" font-weight="700" fill="#0f172a">AP SP</text>
<rect x="577.9" y="189.3" width="28.3" height="256.7" fill="#93c5fd"/>
<text x="592.0" y="184.3" text-anchor="middle" font-family="Arial" font-size="10" fill="#0f172a">0.690</text>
<rect x="611.3" y="151.2" width="28.3" height="294.8" fill="#2563eb"/>
<text x="625.4" y="146.2" text-anchor="middle" font-family="Arial" font-size="10" fill="#0f172a">0.792</text>
<rect x="644.7" y="114.8" width="28.3" height="331.2" fill="#1e40af"/>
<text x="658.8" y="109.8" text-anchor="middle" font-family="Arial" font-size="10" fill="#0f172a">0.890</text>
<text x="628.2" y="478" text-anchor="middle" font-family="Arial" font-size="12" font-weight="700" fill="#0f172a">TSNE SP</text>
<rect x="735.1" y="155.9" width="28.3" height="290.1" fill="#93c5fd"/>
<text x="749.2" y="150.9" text-anchor="middle" font-family="Arial" font-size="10" fill="#0f172a">0.780</text>
<rect x="768.5" y="132.6" width="28.3" height="313.4" fill="#2563eb"/>
<text x="782.6" y="127.6" text-anchor="middle" font-family="Arial" font-size="10" fill="#0f172a">0.842</text>
<rect x="801.9" y="103.1" width="28.3" height="342.9" fill="#1e40af"/>
<text x="816.0" y="98.1" text-anchor="middle" font-family="Arial" font-size="10" fill="#0f172a">0.922</text>
<text x="785.4" y="478" text-anchor="middle" font-family="Arial" font-size="12" font-weight="700" fill="#0f172a">TSNE AP SP</text>
<rect x="396.4" y="70" width="149.2" height="380.0" fill="none" stroke="#f97316" stroke-width="2" stroke-dasharray="5 4"/>

<line x1="78" y1="446" x2="864" y2="446" stroke="#0f172a"/>
<text transform="translate(20 260) rotate(-90)" text-anchor="middle" font-family="Arial" font-size="14" fill="#0f172a">Metric value</text>
</svg>