<svg xmlns="http://www.w3.org/2000/svg" width="1100" height="680" viewBox="0 0 1100 680">
<rect width="100%" height="100%" fill="#ffffff"/>
<text x="550.0" y="32" text-anchor="middle" font-family="Arial, sans-serif" font-size="18" font-weight="600" fill="#0f172a">Ablation F1 vs number of labeled peptides</text>
<line x1="90" y1="600" x2="800" y2="600" stroke="#334155"/>
<line x1="90" y1="60" x2="90" y2="600" stroke="#334155"/>
<line x1="90" y1="600.0" x2="800" y2="600.0" stroke="#e5e7eb"/>
<text x="80" y="604.0" text-anchor="end" font-size="12" fill="#475569">0.76</text>
<line x1="90" y1="492.0" x2="800" y2="492.0" stroke="#e5e7eb"/>
<text x="80" y="496.0" text-anchor="end" font-size="12" fill="#475569">0.78</text>
<line x1="90" y1="384.0" x2="800" y2="384.0" stroke="#e5e7eb"/>
<text x="80" y="388.0" text-anchor="end" font-size="12" fill="#475569">0.80</text>
<line x1="90" y1="276.0" x2="800" y2="276.0" stroke="#e5e7eb"/>
<text x="80" y="280.0" text-anchor="end" font-size="12" fill="#475569">0.82</text>
<line x1="90" y1="168.0" x2="800" y2="168.0" stroke="#e5e7eb"/>
<text x="80" y="172.0" text-anchor="end" font-size="12" fill="#475569">0.85</text>
<line x1="90" y1="60.0" x2="800" y2="60.0" stroke="#e5e7eb"/>
<text x="80" y="64.0" text-anchor="end" font-size="12" fill="#475569">0.87</text>
<polyline points="90.0,466.3 117.3,420.4 144.6,437.8 171.9,401.5 199.2,513.2 226.5,397.0 253.8,412.9 281.2,290.9 308.5,221.2 335.8,292.0 363.1,297.8 390.4,242.0 417.7,295.7 445.0,300.1 472.3,315.3 499.6,220.3 526.9,267.9 554.2,360.1 581.5,235.8 608.8,187.7 636.2,203.4" fill="none" stroke="#2563eb" stroke-width="2" opacity="0.85"/>
<rect x="830" y="50" width="10" height="10" fill="#2563eb"/>
<text x="846" y="60" font-size="11" fill="#334155">ensemble_calibrated/cluster_diverse_representative, initial labels=10</text>
<polyline points="253.8,441.3 281.2,436.1 308.5,408.5 335.8,371.3 363.1,299.3 390.4,301.9 417.7,222.0 445.0,197.7 472.3,181.2 499.6,207.4 526.9,293.9 554.2,306.5 581.5,205.3 608.8,158.2 636.2,149.4 663.5,176.6 690.8,201.8 718.1,217.5 745.4,214.1 772.7,224.2 800.0,282.9" fill="none" stroke="#16a34a" stroke-width="2" opacity="0.85"/>
<rect x="830" y="68" width="10" height="10" fill="#16a34a"/>
<text x="846" y="78" font-size="11" fill="#334155">ensemble_calibrated/cluster_diverse_representative, initial labels=40</text>
<polyline points="90.0,466.3 117.3,548.9 144.6,528.0 171.9,447.6 199.2,371.7 226.5,380.8 253.8,415.9 281.2,297.5 308.5,353.7 335.8,347.3 363.1,414.7 390.4,455.9 417.7,425.4 445.0,411.8 472.3,318.3 499.6,447.3 526.9,408.3 554.2,323.1 581.5,352.2 608.8,319.8 636.2,314.7" fill="none" stroke="#dc2626" stroke-width="2" opacity="0.85"/>
<rect x="830" y="86" width="10" height="10" fill="#dc2626"/>
<text x="846" y="96" font-size="11" fill="#334155">ensemble_calibrated/ensemble_mean, initial labels=10</text>
<polyline points="253.8,441.3 281.2,400.2 308.5,425.9 335.8,337.6 363.1,453.0 390.4,382.7 417.7,369.1 445.0,412.1 472.3,385.4 499.6,401.0 526.9,344.0 554.2,294.4 581.5,360.4 608.8,297.7 636.2,331.3 663.5,275.2 690.8,349.2 718.1,227.7 745.4,300.9 772.7,217.1 800.0,160.7" fill="none" stroke="#9333ea" stroke-width="2" opacity="0.85"/>
<rect x="830" y="104" width="10" height="10" fill="#9333ea"/>
<text x="846" y="114" font-size="11" fill="#334155">ensemble_calibrated/ensemble_mean, initial labels=40</text>
<polyline points="90.0,466.3 117.3,355.3 144.6,458.7 171.9,407.2 199.2,364.9 226.5,327.4 253.8,368.1 281.2,365.9 308.5,341.0 335.8,348.8 363.1,438.6 390.4,553.8 417.7,553.9 445.0,356.6 472.3,405.9 499.6,286.7 526.9,353.9 554.2,300.7 581.5,357.5 608.8,321.9 636.2,289.7" fill="none" stroke="#ea580c" stroke-width="2" opacity="0.85"/>
<rect x="830" y="122" width="10" height="10" fill="#ea580c"/>
<text x="846" y="132" font-size="11" fill="#334155">ensemble_calibrated/oed_logdet, initial labels=10</text>
<polyline points="253.8,441.3 281.2,465.9 308.5,390.9 335.8,262.7 363.1,282.8 390.4,297.1 417.7,248.7 445.0,247.2 472.3,328.2 499.6,226.9 526.9,259.2 554.2,252.7 581.5,204.7 608.8,251.9 636.2,309.4 663.5,279.4 690.8,119.2 718.1,239.7 745.4,219.3 772.7,214.4 800.0,189.1" fill="none" stroke="#0891b2" stroke-width="2" opacity="0.85"/>
<rect x="830" y="140" width="10" height="10" fill="#0891b2"/>
<text x="846" y="150" font-size="11" fill="#334155">ensemble_calibrated/oed_logdet, initial labels=40</text>
<polyline points="90.0,466.3 117.3,461.3 144.6,456.5 171.9,384.7 199.2,325.2 226.5,312.2 253.8,286.6 281.2,137.4 308.5,256.3 335.8,245.5 363.1,275.0 390.4,193.5 417.7,146.6 445.0,198.0 472.3,134.4 499.6,113.7 526.9,166.6 554.2,197.1 581.5,124.1 608.8,150.1 636.2,223.0" fill="none" stroke="#4f46e5" stroke-width="2" opacity="0.85"/>
<rect x="830" y="158" width="10" height="10" fill="#4f46e5"/>
<text x="846" y="168" font-size="11" fill="#334155">ensemble_calibrated/predictive_entropy, initial labels=10</text>
<polyline points="253.8,441.3 281.2,402.8 308.5,383.1 335.8,320.2 363.1,339.7 390.4,239.3 417.7,249.5 445.0,203.6 472.3,188.7 499.6,146.0 526.9,217.1 554.2,240.4 581.5,239.8 608.8,289.1 636.2,192.3 663.5,275.3 690.8,239.9 718.1,270.5 745.4,84.1 772.7,191.9 800.0,247.7" fill="none" stroke="#65a30d" stroke-width="2" opacity="0.85"/>
<rect x="830" y="176" width="10" height="10" fill="#65a30d"/>
<text x="846" y="186" font-size="11" fill="#334155">ensemble_calibrated/predictive_entropy, initial labels=40</text>
<polyline points="90.0,466.3 117.3,572.0 144.6,414.3 171.9,512.9 199.2,507.2 226.5,477.5 253.8,446.2 281.2,433.6 308.5,431.9 335.8,297.5 363.1,448.2 390.4,247.5 417.7,276.7 445.0,337.4 472.3,258.3 499.6,293.7 526.9,199.2 554.2,241.8 581.5,188.6 608.8,270.6 636.2,280.1" fill="none" stroke="#be123c" stroke-width="2" opacity="0.85"/>
<rect x="830" y="194" width="10" height="10" fill="#be123c"/>
<text x="846" y="204" font-size="11" fill="#334155">ensemble_calibrated/random, initial labels=10</text>
<polyline points="253.8,441.3 281.2,388.7 308.5,376.4 335.8,263.6 363.1,302.3 390.4,321.6 417.7,383.1 445.0,366.6 472.3,331.9 499.6,410.7 526.9,417.9 554.2,243.0 581.5,273.6 608.8,286.9 636.2,254.8 663.5,199.0 690.8,536.2 718.1,463.0 745.4,201.8 772.7,321.2 800.0,236.2" fill="none" stroke="#0f766e" stroke-width="2" opacity="0.85"/>
<rect x="830" y="212" width="10" height="10" fill="#0f766e"/>
<text x="846" y="222" font-size="11" fill="#334155">ensemble_calibrated/random, initial labels=40</text>
<polyline points="90.0,466.3 117.3,475.8 144.6,518.8 171.9,468.8 199.2,484.3 226.5,435.6 253.8,346.5 281.2,359.0 308.5,323.7 335.8,379.5 363.1,517.7 390.4,418.1 417.7,348.9 445.0,288.1 472.3,280.9 499.6,294.6 526.9,382.8 554.2,345.1 581.5,282.5 608.8,338.9 636.2,192.8" fill="none" stroke="#7c3aed" stroke-width="2" opacity="0.85"/>
<rect x="830" y="230" width="10" height="10" fill="#7c3aed"/>
<text x="846" y="240" font-size="11" fill="#334155">ensemble_calibrated/similarity_penalized_mean, initial labels=10</text>
<polyline points="253.8,441.3 281.2,430.2 308.5,345.3 335.8,433.3 363.1,338.1 390.4,393.6 417.7,365.6 445.0,308.3 472.3,375.7 499.6,364.2 526.9,380.8 554.2,470.5 581.5,432.1 608.8,368.1 636.2,358.0 663.5,254.6 690.8,268.2 718.1,309.1 745.4,240.3 772.7,295.4 800.0,298.1" fill="none" stroke="#ca8a04" stroke-width="2" opacity="0.85"/>
<rect x="830" y="248" width="10" height="10" fill="#ca8a04"/>
<text x="846" y="258" font-size="11" fill="#334155">ensemble_calibrated/similarity_penalized_mean, initial labels=40</text>
<polyline points="90.0,473.6 117.3,359.1 144.6,485.8 171.9,382.3 199.2,509.9 226.5,333.9 253.8,372.9 281.2,342.0 308.5,296.7 335.8,298.4 363.1,379.3 390.4,221.4 417.7,285.3 445.0,322.2 472.3,213.7 499.6,363.9 526.9,253.8 554.2,189.7 581.5,325.3 608.8,398.9 636.2,334.1" fill="none" stroke="#2563eb" stroke-width="2" opacity="0.85"/>
<rect x="830" y="266" width="10" height="10" fill="#2563eb"/>
<text x="846" y="276" font-size="11" fill="#334155">ensemble_raw/cluster_diverse_representative, initial labels=10</text>
<polyline points="253.8,401.5 281.2,441.7 308.5,385.3 335.8,341.0 363.1,290.6 390.4,280.7 417.7,308.3 445.0,286.1 472.3,352.8 499.6,290.5 526.9,266.4 554.2,324.3 581.5,222.8 608.8,543.3 636.2,420.5 663.5,245.7 690.8,248.6 718.1,128.1 745.4,263.5 772.7,140.7 800.0,177.0" fill="none" stroke="#16a34a" stroke-width="2" opacity="0.85"/>
<rect x="830" y="284" width="10" height="10" fill="#16a34a"/>
<text x="846" y="294" font-size="11" fill="#334155">ensemble_raw/cluster_diverse_representative, initial labels=40</text>
<polyline points="90.0,473.6 117.3,473.2 144.6,530.0 171.9,525.0 199.2,493.7 226.5,469.7 253.8,447.7 281.2,467.5 308.5,438.7 335.8,336.6 363.1,437.7 390.4,322.1 417.7,319.9 445.0,321.8 472.3,336.5 499.6,331.7 526.9,394.2 554.2,313.7 581.5,500.0 608.8,387.5 636.2,401.4" fill="none" stroke="#dc2626" stroke-width="2" opacity="0.85"/>
<rect x="830" y="302" width="10" height="10" fill="#dc2626"/>
<text x="846" y="312" font-size="11" fill="#334155">ensemble_raw/ensemble_mean, initial labels=10</text>
<polyline points="253.8,401.5 281.2,433.9 308.5,393.0 335.8,405.4 363.1,468.6 390.4,374.1 417.7,354.5 445.0,336.7 472.3,340.8 499.6,344.1 526.9,317.4 554.2,343.1 581.5,296.3 608.8,335.6 636.2,298.0 663.5,265.4 690.8,190.7 718.1,219.0 745.4,221.1 772.7,245.3 800.0,256.6" fill="none" stroke="#9333ea" stroke-width="2" opacity="0.85"/>
<rect x="830" y="320" width="10" height="10" fill="#9333ea"/>
<text x="846" y="330" font-size="11" fill="#334155">ensemble_raw/ensemble_mean, initial labels=40</text>
<polyline points="90.0,473.6 117.3,414.6 144.6,440.9 171.9,420.6 199.2,376.7 226.5,385.0 253.8,389.3 281.2,328.8 308.5,345.1 335.8,316.5 363.1,384.3 390.4,600.0 417.7,474.7 445.0,294.7 472.3,325.4 499.6,292.9 526.9,399.6 554.2,265.1 581.5,290.4 608.8,341.9 636.2,260.5" fill="none" stroke="#ea580c" stroke-width="2" opacity="0.85"/>
<rect x="830" y="338" width="10" height="10" fill="#ea580c"/>
<text x="846" y="348" font-size="11" fill="#334155">ensemble_raw/oed_logdet, initial labels=10</text>
<polyline points="253.8,401.5 281.2,451.6 308.5,355.2 335.8,260.4 363.1,262.7 390.4,310.0 417.7,275.1 445.0,263.6 472.3,282.8 499.6,267.8 526.9,254.5 554.2,247.2 581.5,212.5 608.8,260.9 636.2,329.8 663.5,216.9 690.8,147.2 718.1,174.1 745.4,253.8 772.7,272.3 800.0,136.1" fill="none" stroke="#0891b2" stroke-width="2" opacity="0.85"/>
<rect x="830" y="356" width="10" height="10" fill="#0891b2"/>
<text x="846" y="366" font-size="11" fill="#334155">ensemble_raw/oed_logdet, initial labels=40</text>
<polyline points="90.0,473.6 117.3,331.8 144.6,367.0 171.9,168.9 199.2,371.1 226.5,271.6 253.8,161.5 281.2,237.7 308.5,156.5 335.8,206.1 363.1,146.8 390.4,140.5 417.7,145.7 445.0,194.8 472.3,142.1 499.6,96.2 526.9,155.6 554.2,137.5 581.5,60.0 608.8,114.3 636.2,175.2" fill="none" stroke="#4f46e5" stroke-width="2" opacity="0.85"/>
<rect x="830" y="374" width="10" height="10" fill="#4f46e5"/>
<text x="846" y="384" font-size="11" fill="#334155">ensemble_raw/predictive_entropy, initial labels=10</text>
<polyline points="253.8,401.5 281.2,403.4 308.5,476.7 335.8,350.2 363.1,274.1 390.4,253.5 417.7,306.5 445.0,224.1 472.3,195.6 499.6,229.1 526.9,210.0 554.2,191.5 581.5,228.1 608.8,246.9 636.2,137.5 663.5,154.1 690.8,201.3 718.1,274.8 745.4,228.2 772.7,165.1 800.0,172.4" fill="none" stroke="#65a30d" stroke-width="2" opacity="0.85"/>
<rect x="830" y="392" width="10" height="10" fill="#65a30d"/>
<text x="846" y="402" font-size="11" fill="#334155">ensemble_raw/predictive_entropy, initial labels=40</text>
<polyline points="90.0,473.6 117.3,572.0 144.6,465.0 171.9,498.7 199.2,492.4 226.5,487.5 253.8,400.2 281.2,444.4 308.5,427.3 335.8,293.0 363.1,447.1 390.4,236.9 417.7,363.5 445.0,369.3 472.3,245.5 499.6,308.5 526.9,246.8 554.2,240.1 581.5,195.7 608.8,243.1 636.2,325.9" fill="none" stroke="#be123c" stroke-width="2" opacity="0.85"/>
<rect x="830" y="410" width="10" height="10" fill="#be123c"/>
<text x="846" y="420" font-size="11" fill="#334155">ensemble_raw/random, initial labels=10</text>
<polyline points="253.8,401.5 281.2,371.4 308.5,357.8 335.8,277.2 363.1,317.7 390.4,309.6 417.7,390.3 445.0,319.1 472.3,350.1 499.6,433.0 526.9,461.3 554.2,243.0 581.5,281.0 608.8,285.9 636.2,268.0 663.5,272.9 690.8,546.4 718.1,429.9 745.4,200.6 772.7,280.7 800.0,261.0" fill="none" stroke="#0f766e" stroke-width="2" opacity="0.85"/>
<rect x="830" y="428" width="10" height="10" fill="#0f766e"/>
<text x="846" y="438" font-size="11" fill="#334155">ensemble_raw/random, initial labels=40</text>
<polyline points="90.0,473.6 117.3,473.8 144.6,535.5 171.9,385.9 199.2,464.8 226.5,444.4 253.8,464.0 281.2,367.0 308.5,338.1 335.8,394.7 363.1,367.8 390.4,477.9 417.7,537.9 445.0,399.3 472.3,357.2 499.6,421.1 526.9,397.0 554.2,331.6 581.5,300.4 608.8,309.1 636.2,275.6" fill="none" stroke="#7c3aed" stroke-width="2" opacity="0.85"/>
<rect x="830" y="446" width="10" height="10" fill="#7c3aed"/>
<text x="846" y="456" font-size="11" fill="#334155">ensemble_raw/similarity_penalized_mean, initial labels=10</text>
<polyline points="253.8,401.5 281.2,422.5 308.5,426.2 335.8,356.3 363.1,338.5 390.4,437.1 417.7,337.2 445.0,375.0 472.3,407.6 499.6,374.3 526.9,360.8 554.2,273.9 581.5,390.2 608.8,291.3 636.2,351.8 663.5,263.2 690.8,253.0 718.1,312.3 745.4,259.9 772.7,297.1 800.0,334.7" fill="none" stroke="#ca8a04" stroke-width="2" opacity="0.85"/>
<rect x="830" y="464" width="10" height="10" fill="#ca8a04"/>
<text x="846" y="474" font-size="11" fill="#334155">ensemble_raw/similarity_penalized_mean, initial labels=40</text>
<text x="445.0" y="655" text-anchor="middle" font-size="13" fill="#334155">Number of labeled peptides</text>
<text x="24" y="330.0" transform="rotate(-90 24 330.0)" text-anchor="middle" font-size="13" fill="#334155">F1</text>
</svg>
