<svg xmlns="http://www.w3.org/2000/svg" width="1000" height="482" viewBox="0 0 1000 482">
<rect width="100%" height="100%" fill="#ffffff"/>
<text x="500.0" y="32" text-anchor="middle" font-family="Arial, sans-serif" font-size="18" font-weight="600" fill="#0f172a">AULC-F1 by strategy, initial labeled peptides=10</text>
<text x="310" y="74" text-anchor="end" font-size="12" fill="#334155">ensemble_raw/predictive_entropy</text>
<rect x="320" y="58" width="630.0" height="18" rx="3" fill="#2563eb" opacity="0.82"/>
<text x="956.0" y="72" font-size="12" fill="#334155">0.839</text>
<text x="310" y="102" text-anchor="end" font-size="12" fill="#334155">ensemble_calibrated/predictive_entropy</text>
<rect x="320" y="86" width="622.4" height="18" rx="3" fill="#16a34a" opacity="0.82"/>
<text x="948.4" y="100" font-size="12" fill="#334155">0.829</text>
<text x="310" y="130" text-anchor="end" font-size="12" fill="#334155">single_calibrated/predictive_entropy</text>
<rect x="320" y="114" width="612.3" height="18" rx="3" fill="#dc2626" opacity="0.82"/>
<text x="938.3" y="128" font-size="12" fill="#334155">0.816</text>
<text x="310" y="158" text-anchor="end" font-size="12" fill="#334155">ensemble_calibrated/cluster_diverse_representative</text>
<rect x="320" y="142" width="610.6" height="18" rx="3" fill="#9333ea" opacity="0.82"/>
<text x="936.6" y="156" font-size="12" fill="#334155">0.814</text>
<text x="310" y="186" text-anchor="end" font-size="12" fill="#334155">single_raw/predictive_entropy</text>
<rect x="320" y="170" width="610.4" height="18" rx="3" fill="#ea580c" opacity="0.82"/>
<text x="936.4" y="184" font-size="12" fill="#334155">0.813</text>
<text x="310" y="214" text-anchor="end" font-size="12" fill="#334155">ensemble_raw/cluster_diverse_representative</text>
<rect x="320" y="198" width="608.3" height="18" rx="3" fill="#0891b2" opacity="0.82"/>
<text x="934.3" y="212" font-size="12" fill="#334155">0.811</text>
<text x="310" y="242" text-anchor="end" font-size="12" fill="#334155">single_raw/cluster_diverse_representative</text>
<rect x="320" y="226" width="608.1" height="18" rx="3" fill="#4f46e5" opacity="0.82"/>
<text x="934.1" y="240" font-size="12" fill="#334155">0.810</text>
<text x="310" y="270" text-anchor="end" font-size="12" fill="#334155">single_raw/oed_logdet</text>
<rect x="320" y="254" width="607.2" height="18" rx="3" fill="#65a30d" opacity="0.82"/>
<text x="933.2" y="268" font-size="12" fill="#334155">0.809</text>
<text x="310" y="298" text-anchor="end" font-size="12" fill="#334155">single_calibrated/cluster_diverse_representative</text>
<rect x="320" y="282" width="606.9" height="18" rx="3" fill="#be123c" opacity="0.82"/>
<text x="932.9" y="296" font-size="12" fill="#334155">0.809</text>
<text x="310" y="326" text-anchor="end" font-size="12" fill="#334155">single_calibrated/oed_logdet</text>
<rect x="320" y="310" width="606.9" height="18" rx="3" fill="#0f766e" opacity="0.82"/>
<text x="932.9" y="324" font-size="12" fill="#334155">0.809</text>
<text x="310" y="354" text-anchor="end" font-size="12" fill="#334155">ensemble_calibrated/random</text>
<rect x="320" y="338" width="604.5" height="18" rx="3" fill="#7c3aed" opacity="0.82"/>
<text x="930.5" y="352" font-size="12" fill="#334155">0.805</text>
<text x="310" y="382" text-anchor="end" font-size="12" fill="#334155">ensemble_raw/random</text>
<rect x="320" y="366" width="603.3" height="18" rx="3" fill="#ca8a04" opacity="0.82"/>
<text x="929.3" y="380" font-size="12" fill="#334155">0.804</text>
<text x="310" y="410" text-anchor="end" font-size="12" fill="#334155">ensemble_raw/oed_logdet</text>
<rect x="320" y="394" width="602.8" height="18" rx="3" fill="#2563eb" opacity="0.82"/>
<text x="928.8" y="408" font-size="12" fill="#334155">0.803</text>
<text x="310" y="438" text-anchor="end" font-size="12" fill="#334155">ensemble_calibrated/similarity_penalized_mean</text>
<rect x="320" y="422" width="601.5" height="18" rx="3" fill="#16a34a" opacity="0.82"/>
<text x="927.5" y="436" font-size="12" fill="#334155">0.801</text>
</svg>
