<svg xmlns="http://www.w3.org/2000/svg" width="1000" height="482" viewBox="0 0 1000 482">
<rect width="100%" height="100%" fill="#ffffff"/>
<text x="500.0" y="32" text-anchor="middle" font-family="Arial, sans-serif" font-size="18" font-weight="600" fill="#0f172a">AULC-F1 by strategy, initial labeled peptides=40</text>
<text x="310" y="74" text-anchor="end" font-size="12" fill="#334155">single_calibrated/predictive_entropy</text>
<rect x="320" y="58" width="630.0" height="18" rx="3" fill="#2563eb" opacity="0.82"/>
<text x="956.0" y="72" font-size="12" fill="#334155">0.828</text>
<text x="310" y="102" text-anchor="end" font-size="12" fill="#334155">ensemble_raw/predictive_entropy</text>
<rect x="320" y="86" width="629.9" height="18" rx="3" fill="#16a34a" opacity="0.82"/>
<text x="955.9" y="100" font-size="12" fill="#334155">0.828</text>
<text x="310" y="130" text-anchor="end" font-size="12" fill="#334155">ensemble_calibrated/predictive_entropy</text>
<rect x="320" y="114" width="629.7" height="18" rx="3" fill="#dc2626" opacity="0.82"/>
<text x="955.7" y="128" font-size="12" fill="#334155">0.828</text>
<text x="310" y="158" text-anchor="end" font-size="12" fill="#334155">ensemble_calibrated/cluster_diverse_representative</text>
<rect x="320" y="142" width="629.1" height="18" rx="3" fill="#9333ea" opacity="0.82"/>
<text x="955.1" y="156" font-size="12" fill="#334155">0.827</text>
<text x="310" y="186" text-anchor="end" font-size="12" fill="#334155">single_raw/cluster_diverse_representative</text>
<rect x="320" y="170" width="627.7" height="18" rx="3" fill="#ea580c" opacity="0.82"/>
<text x="953.7" y="184" font-size="12" fill="#334155">0.825</text>
<text x="310" y="214" text-anchor="end" font-size="12" fill="#334155">ensemble_raw/oed_logdet</text>
<rect x="320" y="198" width="627.3" height="18" rx="3" fill="#0891b2" opacity="0.82"/>
<text x="953.3" y="212" font-size="12" fill="#334155">0.825</text>
<text x="310" y="242" text-anchor="end" font-size="12" fill="#334155">ensemble_calibrated/oed_logdet</text>
<rect x="320" y="226" width="626.9" height="18" rx="3" fill="#4f46e5" opacity="0.82"/>
<text x="952.9" y="240" font-size="12" fill="#334155">0.824</text>
<text x="310" y="270" text-anchor="end" font-size="12" fill="#334155">single_calibrated/cluster_diverse_representative</text>
<rect x="320" y="254" width="625.2" height="18" rx="3" fill="#65a30d" opacity="0.82"/>
<text x="951.2" y="268" font-size="12" fill="#334155">0.822</text>
<text x="310" y="298" text-anchor="end" font-size="12" fill="#334155">single_raw/predictive_entropy</text>
<rect x="320" y="282" width="624.8" height="18" rx="3" fill="#be123c" opacity="0.82"/>
<text x="950.8" y="296" font-size="12" fill="#334155">0.821</text>
<text x="310" y="326" text-anchor="end" font-size="12" fill="#334155">single_calibrated/oed_logdet</text>
<rect x="320" y="310" width="623.1" height="18" rx="3" fill="#0f766e" opacity="0.82"/>
<text x="949.1" y="324" font-size="12" fill="#334155">0.819</text>
<text x="310" y="354" text-anchor="end" font-size="12" fill="#334155">single_raw/oed_logdet</text>
<rect x="320" y="338" width="623.0" height="18" rx="3" fill="#7c3aed" opacity="0.82"/>
<text x="949.0" y="352" font-size="12" fill="#334155">0.819</text>
<text x="310" y="382" text-anchor="end" font-size="12" fill="#334155">ensemble_raw/cluster_diverse_representative</text>
<rect x="320" y="366" width="621.8" height="18" rx="3" fill="#ca8a04" opacity="0.82"/>
<text x="947.8" y="380" font-size="12" fill="#334155">0.817</text>
<text x="310" y="410" text-anchor="end" font-size="12" fill="#334155">single_raw/similarity_penalized_mean</text>
<rect x="320" y="394" width="619.3" height="18" rx="3" fill="#2563eb" opacity="0.82"/>
<text x="945.3" y="408" font-size="12" fill="#334155">0.814</text>
<text x="310" y="438" text-anchor="end" font-size="12" fill="#334155">single_raw/ensemble_mean</text>
<rect x="320" y="422" width="618.9" height="18" rx="3" fill="#16a34a" opacity="0.82"/>
<text x="944.9" y="436" font-size="12" fill="#334155">0.814</text>
</svg>
