<svg xmlns="http://www.w3.org/2000/svg" width="1100" height="680" viewBox="0 0 1100 680">
<rect width="100%" height="100%" fill="#ffffff"/>
<text x="550.0" y="32" text-anchor="middle" font-family="Arial, sans-serif" font-size="18" font-weight="600" fill="#0f172a">Ablation PR-AUC vs number of labeled peptides</text>
<line x1="90" y1="600" x2="800" y2="600" stroke="#334155"/>
<line x1="90" y1="60" x2="90" y2="600" stroke="#334155"/>
<line x1="90" y1="600.0" x2="800" y2="600.0" stroke="#e5e7eb"/>
<text x="80" y="604.0" text-anchor="end" font-size="12" fill="#475569">0.78</text>
<line x1="90" y1="492.0" x2="800" y2="492.0" stroke="#e5e7eb"/>
<text x="80" y="496.0" text-anchor="end" font-size="12" fill="#475569">0.81</text>
<line x1="90" y1="384.0" x2="800" y2="384.0" stroke="#e5e7eb"/>
<text x="80" y="388.0" text-anchor="end" font-size="12" fill="#475569">0.84</text>
<line x1="90" y1="276.0" x2="800" y2="276.0" stroke="#e5e7eb"/>
<text x="80" y="280.0" text-anchor="end" font-size="12" fill="#475569">0.87</text>
<line x1="90" y1="168.0" x2="800" y2="168.0" stroke="#e5e7eb"/>
<text x="80" y="172.0" text-anchor="end" font-size="12" fill="#475569">0.90</text>
<line x1="90" y1="60.0" x2="800" y2="60.0" stroke="#e5e7eb"/>
<text x="80" y="64.0" text-anchor="end" font-size="12" fill="#475569">0.93</text>
<polyline points="90.0,479.5 117.3,367.2 144.6,290.8 171.9,384.5 199.2,344.1 226.5,352.8 253.8,331.9 281.2,271.6 308.5,275.5 335.8,227.5 363.1,206.9 390.4,198.9 417.7,205.3 445.0,160.7 472.3,146.4 499.6,119.3 526.9,140.8 554.2,148.1 581.5,92.6 608.8,107.6 636.2,125.7" fill="none" stroke="#2563eb" stroke-width="2" opacity="0.85"/>
<rect x="830" y="50" width="10" height="10" fill="#2563eb"/>
<text x="846" y="60" font-size="11" fill="#334155">ensemble_calibrated/cluster_diverse_representative, initial labels=10</text>
<polyline points="253.8,328.9 281.2,296.4 308.5,244.6 335.8,236.4 363.1,218.3 390.4,226.8 417.7,223.3 445.0,221.9 472.3,224.4 499.6,198.3 526.9,172.2 554.2,162.2 581.5,155.3 608.8,140.9 636.2,159.6 663.5,138.0 690.8,136.3 718.1,151.0 745.4,138.7 772.7,106.0 800.0,130.2" fill="none" stroke="#16a34a" stroke-width="2" opacity="0.85"/>
<rect x="830" y="68" width="10" height="10" fill="#16a34a"/>
<text x="846" y="78" font-size="11" fill="#334155">ensemble_calibrated/cluster_diverse_representative, initial labels=40</text>
<polyline points="90.0,479.5 117.3,465.5 144.6,462.7 171.9,414.9 199.2,349.4 226.5,362.3 253.8,373.0 281.2,359.6 308.5,274.4 335.8,226.1 363.1,270.2 390.4,276.1 417.7,266.9 445.0,240.0 472.3,252.9 499.6,287.8 526.9,243.4 554.2,293.5 581.5,289.7 608.8,261.3 636.2,203.1" fill="none" stroke="#dc2626" stroke-width="2" opacity="0.85"/>
<rect x="830" y="86" width="10" height="10" fill="#dc2626"/>
<text x="846" y="96" font-size="11" fill="#334155">ensemble_calibrated/ensemble_mean, initial labels=10</text>
<polyline points="253.8,328.9 281.2,294.6 308.5,311.6 335.8,330.7 363.1,271.5 390.4,256.9 417.7,232.7 445.0,280.3 472.3,218.5 499.6,224.3 526.9,230.6 554.2,220.5 581.5,228.2 608.8,220.3 636.2,219.4 663.5,187.0 690.8,172.9 718.1,156.3 745.4,155.8 772.7,120.7 800.0,129.0" fill="none" stroke="#9333ea" stroke-width="2" opacity="0.85"/>
<rect x="830" y="104" width="10" height="10" fill="#9333ea"/>
<text x="846" y="114" font-size="11" fill="#334155">ensemble_calibrated/ensemble_mean, initial labels=40</text>
<polyline points="90.0,479.5 117.3,448.9 144.6,270.5 171.9,345.3 199.2,362.3 226.5,310.0 253.8,313.9 281.2,273.5 308.5,227.5 335.8,277.3 363.1,262.8 390.4,258.4 417.7,255.7 445.0,170.4 472.3,166.5 499.6,168.0 526.9,163.4 554.2,134.8 581.5,120.9 608.8,125.6 636.2,124.2" fill="none" stroke="#ea580c" stroke-width="2" opacity="0.85"/>
<rect x="830" y="122" width="10" height="10" fill="#ea580c"/>
<text x="846" y="132" font-size="11" fill="#334155">ensemble_calibrated/oed_logdet, initial labels=10</text>
<polyline points="253.8,328.9 281.2,281.1 308.5,263.9 335.8,222.4 363.1,200.2 390.4,210.2 417.7,180.1 445.0,153.0 472.3,138.9 499.6,144.5 526.9,141.8 554.2,124.9 581.5,115.5 608.8,131.7 636.2,136.3 663.5,126.2 690.8,125.5 718.1,108.4 745.4,108.6 772.7,100.8 800.0,100.9" fill="none" stroke="#0891b2" stroke-width="2" opacity="0.85"/>
<rect x="830" y="140" width="10" height="10" fill="#0891b2"/>
<text x="846" y="150" font-size="11" fill="#334155">ensemble_calibrated/oed_logdet, initial labels=40</text>
<polyline points="90.0,479.5 117.3,341.5 144.6,339.2 171.9,318.6 199.2,233.2 226.5,240.8 253.8,205.9 281.2,135.9 308.5,122.6 335.8,125.6 363.1,136.7 390.4,120.7 417.7,124.9 445.0,121.8 472.3,66.0 499.6,80.9 526.9,77.9 554.2,97.3 581.5,66.5 608.8,62.1 636.2,60.0" fill="none" stroke="#4f46e5" stroke-width="2" opacity="0.85"/>
<rect x="830" y="158" width="10" height="10" fill="#4f46e5"/>
<text x="846" y="168" font-size="11" fill="#334155">ensemble_calibrated/predictive_entropy, initial labels=10</text>
<polyline points="253.8,328.9 281.2,281.0 308.5,284.3 335.8,242.0 363.1,225.0 390.4,240.8 417.7,195.7 445.0,189.6 472.3,174.6 499.6,148.7 526.9,184.3 554.2,172.5 581.5,166.2 608.8,125.7 636.2,157.2 663.5,149.3 690.8,123.2 718.1,115.2 745.4,67.0 772.7,88.0 800.0,108.4" fill="none" stroke="#65a30d" stroke-width="2" opacity="0.85"/>
<rect x="830" y="176" width="10" height="10" fill="#65a30d"/>
<text x="846" y="186" font-size="11" fill="#334155">ensemble_calibrated/predictive_entropy, initial labels=40</text>
<polyline points="90.0,479.5 117.3,488.0 144.6,409.5 171.9,432.2 199.2,435.6 226.5,347.3 253.8,303.9 281.2,294.4 308.5,278.4 335.8,298.6 363.1,268.1 390.4,249.1 417.7,247.3 445.0,198.4 472.3,207.5 499.6,196.4 526.9,209.1 554.2,165.2 581.5,188.2 608.8,170.2 636.2,164.9" fill="none" stroke="#be123c" stroke-width="2" opacity="0.85"/>
<rect x="830" y="194" width="10" height="10" fill="#be123c"/>
<text x="846" y="204" font-size="11" fill="#334155">ensemble_calibrated/random, initial labels=10</text>
<polyline points="253.8,328.9 281.2,277.1 308.5,322.0 335.8,258.4 363.1,287.3 390.4,219.1 417.7,240.2 445.0,200.0 472.3,227.8 499.6,219.7 526.9,240.8 554.2,190.4 581.5,215.7 608.8,211.9 636.2,230.1 663.5,180.9 690.8,190.8 718.1,195.4 745.4,182.8 772.7,202.0 800.0,169.3" fill="none" stroke="#0f766e" stroke-width="2" opacity="0.85"/>
<rect x="830" y="212" width="10" height="10" fill="#0f766e"/>
<text x="846" y="222" font-size="11" fill="#334155">ensemble_calibrated/random, initial labels=40</text>
<polyline points="90.0,479.5 117.3,527.0 144.6,519.3 171.9,408.5 199.2,383.8 226.5,382.7 253.8,403.0 281.2,304.3 308.5,335.1 335.8,416.3 363.1,378.9 390.4,332.7 417.7,297.2 445.0,273.6 472.3,232.4 499.6,227.7 526.9,255.7 554.2,243.8 581.5,312.0 608.8,283.2 636.2,182.1" fill="none" stroke="#7c3aed" stroke-width="2" opacity="0.85"/>
<rect x="830" y="230" width="10" height="10" fill="#7c3aed"/>
<text x="846" y="240" font-size="11" fill="#334155">ensemble_calibrated/similarity_penalized_mean, initial labels=10</text>
<polyline points="253.8,328.9 281.2,288.6 308.5,276.7 335.8,292.0 363.1,261.9 390.4,272.4 417.7,249.3 445.0,224.2 472.3,221.3 499.6,248.3 526.9,244.2 554.2,243.1 581.5,240.9 608.8,204.7 636.2,221.1 663.5,165.7 690.8,171.3 718.1,139.4 745.4,130.9 772.7,118.6 800.0,131.8" fill="none" stroke="#ca8a04" stroke-width="2" opacity="0.85"/>
<rect x="830" y="248" width="10" height="10" fill="#ca8a04"/>
<text x="846" y="258" font-size="11" fill="#334155">ensemble_calibrated/similarity_penalized_mean, initial labels=40</text>
<polyline points="90.0,499.5 117.3,375.3 144.6,326.0 171.9,388.3 199.2,362.9 226.5,368.9 253.8,373.6 281.2,308.5 308.5,287.3 335.8,281.2 363.1,237.4 390.4,210.4 417.7,177.4 445.0,157.0 472.3,217.2 499.6,133.1 526.9,174.3 554.2,146.8 581.5,148.0 608.8,108.8 636.2,116.6" fill="none" stroke="#2563eb" stroke-width="2" opacity="0.85"/>
<rect x="830" y="266" width="10" height="10" fill="#2563eb"/>
<text x="846" y="276" font-size="11" fill="#334155">ensemble_raw/cluster_diverse_representative, initial labels=10</text>
<polyline points="253.8,326.2 281.2,274.9 308.5,238.2 335.8,230.7 363.1,196.2 390.4,204.2 417.7,195.7 445.0,191.1 472.3,183.2 499.6,186.2 526.9,187.3 554.2,188.5 581.5,190.6 608.8,187.3 636.2,207.3 663.5,153.1 690.8,152.9 718.1,147.7 745.4,136.0 772.7,143.4 800.0,125.1" fill="none" stroke="#16a34a" stroke-width="2" opacity="0.85"/>
<rect x="830" y="284" width="10" height="10" fill="#16a34a"/>
<text x="846" y="294" font-size="11" fill="#334155">ensemble_raw/cluster_diverse_representative, initial labels=40</text>
<polyline points="90.0,499.5 117.3,533.0 144.6,591.3 171.9,535.6 199.2,542.1 226.5,497.0 253.8,516.6 281.2,423.5 308.5,375.1 335.8,418.1 363.1,429.2 390.4,346.9 417.7,383.4 445.0,336.5 472.3,368.2 499.6,332.4 526.9,275.8 554.2,298.9 581.5,295.5 608.8,284.9 636.2,257.4" fill="none" stroke="#dc2626" stroke-width="2" opacity="0.85"/>
<rect x="830" y="302" width="10" height="10" fill="#dc2626"/>
<text x="846" y="312" font-size="11" fill="#334155">ensemble_raw/ensemble_mean, initial labels=10</text>
<polyline points="253.8,326.2 281.2,289.2 308.5,306.5 335.8,313.3 363.1,252.4 390.4,215.4 417.7,230.3 445.0,260.5 472.3,247.4 499.6,243.1 526.9,204.2 554.2,254.2 581.5,178.6 608.8,176.4 636.2,184.0 663.5,175.9 690.8,166.5 718.1,139.4 745.4,134.1 772.7,117.1 800.0,120.0" fill="none" stroke="#9333ea" stroke-width="2" opacity="0.85"/>
<rect x="830" y="320" width="10" height="10" fill="#9333ea"/>
<text x="846" y="330" font-size="11" fill="#334155">ensemble_raw/ensemble_mean, initial labels=40</text>
<polyline points="90.0,499.5 117.3,452.8 144.6,388.8 171.9,399.9 199.2,398.0 226.5,351.8 253.8,337.5 281.2,286.4 308.5,234.4 335.8,319.8 363.1,294.4 390.4,271.2 417.7,274.5 445.0,204.1 472.3,195.3 499.6,201.1 526.9,233.8 554.2,201.6 581.5,220.7 608.8,209.6 636.2,168.7" fill="none" stroke="#ea580c" stroke-width="2" opacity="0.85"/>
<rect x="830" y="338" width="10" height="10" fill="#ea580c"/>
<text x="846" y="348" font-size="11" fill="#334155">ensemble_raw/oed_logdet, initial labels=10</text>
<polyline points="253.8,326.2 281.2,279.7 308.5,270.6 335.8,228.3 363.1,201.0 390.4,211.5 417.7,188.8 445.0,153.3 472.3,142.1 499.6,155.7 526.9,148.5 554.2,130.1 581.5,110.6 608.8,134.4 636.2,124.6 663.5,119.4 690.8,90.1 718.1,106.3 745.4,114.5 772.7,98.4 800.0,89.3" fill="none" stroke="#0891b2" stroke-width="2" opacity="0.85"/>
<rect x="830" y="356" width="10" height="10" fill="#0891b2"/>
<text x="846" y="366" font-size="11" fill="#334155">ensemble_raw/oed_logdet, initial labels=40</text>
<polyline points="90.0,499.5 117.3,389.4 144.6,339.7 171.9,259.5 199.2,230.3 226.5,202.0 253.8,190.4 281.2,176.1 308.5,162.5 335.8,127.1 363.1,144.3 390.4,126.7 417.7,93.5 445.0,96.2 472.3,109.7 499.6,130.1 526.9,102.1 554.2,105.0 581.5,75.5 608.8,94.1 636.2,136.8" fill="none" stroke="#4f46e5" stroke-width="2" opacity="0.85"/>
<rect x="830" y="374" width="10" height="10" fill="#4f46e5"/>
<text x="846" y="384" font-size="11" fill="#334155">ensemble_raw/predictive_entropy, initial labels=10</text>
<polyline points="253.8,326.2 281.2,331.5 308.5,303.6 335.8,301.0 363.1,252.5 390.4,247.7 417.7,228.1 445.0,193.8 472.3,238.8 499.6,198.6 526.9,196.8 554.2,154.9 581.5,165.5 608.8,159.4 636.2,162.7 663.5,149.6 690.8,125.7 718.1,116.1 745.4,103.9 772.7,102.6 800.0,108.6" fill="none" stroke="#65a30d" stroke-width="2" opacity="0.85"/>
<rect x="830" y="392" width="10" height="10" fill="#65a30d"/>
<text x="846" y="402" font-size="11" fill="#334155">ensemble_raw/predictive_entropy, initial labels=40</text>
<polyline points="90.0,499.5 117.3,476.6 144.6,410.5 171.9,437.1 199.2,426.1 226.5,356.6 253.8,309.2 281.2,303.6 308.5,268.9 335.8,301.6 363.1,272.6 390.4,245.2 417.7,243.3 445.0,201.0 472.3,221.9 499.6,204.7 526.9,207.8 554.2,174.5 581.5,188.9 608.8,164.9 636.2,171.1" fill="none" stroke="#be123c" stroke-width="2" opacity="0.85"/>
<rect x="830" y="410" width="10" height="10" fill="#be123c"/>
<text x="846" y="420" font-size="11" fill="#334155">ensemble_raw/random, initial labels=10</text>
<polyline points="253.8,326.2 281.2,279.5 308.5,321.8 335.8,264.6 363.1,275.2 390.4,207.4 417.7,232.4 445.0,204.2 472.3,218.5 499.6,221.0 526.9,238.9 554.2,187.2 581.5,207.2 608.8,212.6 636.2,211.1 663.5,206.1 690.8,183.0 718.1,197.1 745.4,181.2 772.7,193.9 800.0,177.4" fill="none" stroke="#0f766e" stroke-width="2" opacity="0.85"/>
<rect x="830" y="428" width="10" height="10" fill="#0f766e"/>
<text x="846" y="438" font-size="11" fill="#334155">ensemble_raw/random, initial labels=40</text>
<polyline points="90.0,499.5 117.3,536.2 144.6,559.0 171.9,562.1 199.2,544.3 226.5,532.0 253.8,531.9 281.2,406.1 308.5,361.9 335.8,343.3 363.1,381.8 390.4,303.6 417.7,356.9 445.0,299.1 472.3,321.9 499.6,308.8 526.9,266.2 554.2,290.5 581.5,274.5 608.8,268.9 636.2,235.5" fill="none" stroke="#7c3aed" stroke-width="2" opacity="0.85"/>
<rect x="830" y="446" width="10" height="10" fill="#7c3aed"/>
<text x="846" y="456" font-size="11" fill="#334155">ensemble_raw/similarity_penalized_mean, initial labels=10</text>
<polyline points="253.8,326.2 281.2,295.1 308.5,266.5 335.8,276.5 363.1,262.4 390.4,251.7 417.7,225.5 445.0,273.0 472.3,234.6 499.6,219.5 526.9,230.7 554.2,230.2 581.5,213.5 608.8,216.7 636.2,220.1 663.5,174.2 690.8,166.8 718.1,171.9 745.4,136.2 772.7,128.3 800.0,108.1" fill="none" stroke="#ca8a04" stroke-width="2" opacity="0.85"/>
<rect x="830" y="464" width="10" height="10" fill="#ca8a04"/>
<text x="846" y="474" font-size="11" fill="#334155">ensemble_raw/similarity_penalized_mean, initial labels=40</text>
<text x="445.0" y="655" text-anchor="middle" font-size="13" fill="#334155">Number of labeled peptides</text>
<text x="24" y="330.0" transform="rotate(-90 24 330.0)" text-anchor="middle" font-size="13" fill="#334155">PR_AUC</text>
</svg>
