<svg xmlns="http://www.w3.org/2000/svg" width="1000" height="314" viewBox="0 0 1000 314">
<rect width="100%" height="100%" fill="#ffffff"/>
<text x="500.0" y="32" text-anchor="middle" font-family="Arial, sans-serif" font-size="18" font-weight="600" fill="#0f172a">Mean Final Ece 10</text>
<text x="310" y="74" text-anchor="end" font-size="12" fill="#334155">ensemble_calibrated, initial labels=10</text>
<rect x="320" y="58" width="465.6" height="18" rx="3" fill="#2563eb" opacity="0.82"/>
<text x="791.6" y="72" font-size="12" fill="#334155">0.100</text>
<text x="310" y="102" text-anchor="end" font-size="12" fill="#334155">ensemble_raw, initial labels=10</text>
<rect x="320" y="86" width="569.6" height="18" rx="3" fill="#16a34a" opacity="0.82"/>
<text x="895.6" y="100" font-size="12" fill="#334155">0.123</text>
<text x="310" y="130" text-anchor="end" font-size="12" fill="#334155">single_calibrated, initial labels=10</text>
<rect x="320" y="114" width="500.6" height="18" rx="3" fill="#dc2626" opacity="0.82"/>
<text x="826.6" y="128" font-size="12" fill="#334155">0.108</text>
<text x="310" y="158" text-anchor="end" font-size="12" fill="#334155">single_raw, initial labels=10</text>
<rect x="320" y="142" width="614.3" height="18" rx="3" fill="#9333ea" opacity="0.82"/>
<text x="940.3" y="156" font-size="12" fill="#334155">0.132</text>
<text x="310" y="186" text-anchor="end" font-size="12" fill="#334155">ensemble_calibrated, initial labels=40</text>
<rect x="320" y="170" width="468.8" height="18" rx="3" fill="#ea580c" opacity="0.82"/>
<text x="794.8" y="184" font-size="12" fill="#334155">0.101</text>
<text x="310" y="214" text-anchor="end" font-size="12" fill="#334155">ensemble_raw, initial labels=40</text>
<rect x="320" y="198" width="554.0" height="18" rx="3" fill="#0891b2" opacity="0.82"/>
<text x="880.0" y="212" font-size="12" fill="#334155">0.119</text>
<text x="310" y="242" text-anchor="end" font-size="12" fill="#334155">single_calibrated, initial labels=40</text>
<rect x="320" y="226" width="473.5" height="18" rx="3" fill="#4f46e5" opacity="0.82"/>
<text x="799.5" y="240" font-size="12" fill="#334155">0.102</text>
<text x="310" y="270" text-anchor="end" font-size="12" fill="#334155">single_raw, initial labels=40</text>
<rect x="320" y="254" width="630.0" height="18" rx="3" fill="#65a30d" opacity="0.82"/>
<text x="956.0" y="268" font-size="12" fill="#334155">0.136</text>
</svg>
