<svg xmlns="http://www.w3.org/2000/svg" width="1180" height="488" viewBox="0 0 1180 488">
<rect width="100%" height="100%" fill="#ffffff"/>
<text x="670.0" y="32" text-anchor="middle" font-family="Arial, sans-serif" font-size="18" font-weight="600" fill="#0f172a">Benchmark Validation AULC-F1, initial labels=10</text>
<text x="670.0" y="54" text-anchor="middle" font-size="12" fill="#64748b">Dots show mean across 5 outer folds; whiskers and labels show SD. Higher is better unless stated otherwise.</text>
<line x1="330.0" y1="74" x2="330.0" y2="418" stroke="#e5e7eb"/>
<text x="330.0" y="436" text-anchor="middle" font-size="11" fill="#475569">0.807</text>
<line x1="500.0" y1="74" x2="500.0" y2="418" stroke="#e5e7eb"/>
<text x="500.0" y="436" text-anchor="middle" font-size="11" fill="#475569">0.834</text>
<line x1="670.0" y1="74" x2="670.0" y2="418" stroke="#e5e7eb"/>
<text x="670.0" y="436" text-anchor="middle" font-size="11" fill="#475569">0.862</text>
<line x1="840.0" y1="74" x2="840.0" y2="418" stroke="#e5e7eb"/>
<text x="840.0" y="436" text-anchor="middle" font-size="11" fill="#475569">0.889</text>
<line x1="1010.0" y1="74" x2="1010.0" y2="418" stroke="#e5e7eb"/>
<text x="1010.0" y="436" text-anchor="middle" font-size="11" fill="#475569">0.916</text>
<line x1="330" y1="418" x2="1010" y2="418" stroke="#334155"/>
<line x1="684.5" y1="74" x2="684.5" y2="418" stroke="#475569" stroke-width="1.3" stroke-dasharray="5 5"/>
<text x="684.5" y="64" text-anchor="middle" font-size="11" fill="#475569">random</text>
<text x="318" y="97" text-anchor="end" font-size="12" font-weight="600" fill="#334155">Predictive entropy</text>
<line x1="330" y1="92" x2="1010" y2="92" stroke="#f1f5f9"/>
<line x1="669.9" y1="92" x2="858.3" y2="92" stroke="#2563eb" stroke-width="2" opacity="0.45"/>
<line x1="669.9" y1="88" x2="669.9" y2="96" stroke="#2563eb" stroke-width="1.5" opacity="0.45"/>
<line x1="858.3" y1="88" x2="858.3" y2="96" stroke="#2563eb" stroke-width="1.5" opacity="0.45"/>
<circle cx="764.1" cy="92" r="5.5" fill="#2563eb"/>
<text x="776.1" y="83.0" font-size="12" fill="#0f172a">0.877</text>
<text x="866.3" y="96" font-size="10.5" fill="#64748b">SD 0.015</text>
<text x="318" y="133" text-anchor="end" font-size="12" font-weight="400" fill="#334155">Ensemble MI</text>
<line x1="330" y1="128" x2="1010" y2="128" stroke="#f1f5f9"/>
<line x1="568.3" y1="128" x2="884.4" y2="128" stroke="#0891b2" stroke-width="2" opacity="0.45"/>
<line x1="568.3" y1="124" x2="568.3" y2="132" stroke="#0891b2" stroke-width="1.5" opacity="0.45"/>
<line x1="884.4" y1="124" x2="884.4" y2="132" stroke="#0891b2" stroke-width="1.5" opacity="0.45"/>
<circle cx="726.4" cy="128" r="5.5" fill="#0891b2"/>
<text x="738.4" y="141.0" font-size="12" fill="#0f172a">0.871</text>
<text x="892.4" y="132" font-size="10.5" fill="#64748b">SD 0.025</text>
<text x="318" y="169" text-anchor="end" font-size="12" font-weight="600" fill="#334155">Family QBC</text>
<line x1="330" y1="164" x2="1010" y2="164" stroke="#f1f5f9"/>
<line x1="580.9" y1="164" x2="834.6" y2="164" stroke="#7c3aed" stroke-width="2" opacity="0.45"/>
<line x1="580.9" y1="160" x2="580.9" y2="168" stroke="#7c3aed" stroke-width="1.5" opacity="0.45"/>
<line x1="834.6" y1="160" x2="834.6" y2="168" stroke="#7c3aed" stroke-width="1.5" opacity="0.45"/>
<circle cx="707.8" cy="164" r="5.5" fill="#7c3aed"/>
<text x="719.8" y="155.0" font-size="12" fill="#0f172a">0.868</text>
<text x="842.6" y="168" font-size="10.5" fill="#64748b">SD 0.020</text>
<text x="318" y="205" text-anchor="end" font-size="12" font-weight="600" fill="#334155">Cluster-diverse</text>
<line x1="330" y1="200" x2="1010" y2="200" stroke="#f1f5f9"/>
<line x1="556.7" y1="200" x2="830.3" y2="200" stroke="#16a34a" stroke-width="2" opacity="0.45"/>
<line x1="556.7" y1="196" x2="556.7" y2="204" stroke="#16a34a" stroke-width="1.5" opacity="0.45"/>
<line x1="830.3" y1="196" x2="830.3" y2="204" stroke="#16a34a" stroke-width="1.5" opacity="0.45"/>
<circle cx="693.5" cy="200" r="5.5" fill="#16a34a"/>
<text x="705.5" y="213.0" font-size="12" fill="#0f172a">0.865</text>
<text x="838.3" y="204" font-size="10.5" fill="#64748b">SD 0.022</text>
<text x="318" y="241" text-anchor="end" font-size="12" font-weight="600" fill="#334155">Random</text>
<line x1="330" y1="236" x2="1010" y2="236" stroke="#f1f5f9"/>
<line x1="565.6" y1="236" x2="803.4" y2="236" stroke="#475569" stroke-width="2" opacity="0.45"/>
<line x1="565.6" y1="232" x2="565.6" y2="240" stroke="#475569" stroke-width="1.5" opacity="0.45"/>
<line x1="803.4" y1="232" x2="803.4" y2="240" stroke="#475569" stroke-width="1.5" opacity="0.45"/>
<circle cx="684.5" cy="236" r="5.5" fill="#475569"/>
<text x="696.5" y="227.0" font-size="12" fill="#0f172a">0.864</text>
<text x="811.4" y="240" font-size="10.5" fill="#64748b">SD 0.019</text>
<text x="318" y="277" text-anchor="end" font-size="12" font-weight="400" fill="#334155">Hybrid MI + diverse</text>
<line x1="330" y1="272" x2="1010" y2="272" stroke="#f1f5f9"/>
<line x1="662.3" y1="272" x2="693.0" y2="272" stroke="#ea580c" stroke-width="2" opacity="0.45"/>
<line x1="662.3" y1="268" x2="662.3" y2="276" stroke="#ea580c" stroke-width="1.5" opacity="0.45"/>
<line x1="693.0" y1="268" x2="693.0" y2="276" stroke="#ea580c" stroke-width="1.5" opacity="0.45"/>
<circle cx="677.6" cy="272" r="5.5" fill="#ea580c"/>
<text x="689.6" y="285.0" font-size="12" fill="#0f172a">0.863</text>
<text x="701.0" y="276" font-size="10.5" fill="#64748b">SD 0.002</text>
<text x="318" y="313" text-anchor="end" font-size="12" font-weight="400" fill="#334155">OED logdet</text>
<line x1="330" y1="308" x2="1010" y2="308" stroke="#f1f5f9"/>
<line x1="552.6" y1="308" x2="742.3" y2="308" stroke="#ca8a04" stroke-width="2" opacity="0.45"/>
<line x1="552.6" y1="304" x2="552.6" y2="312" stroke="#ca8a04" stroke-width="1.5" opacity="0.45"/>
<line x1="742.3" y1="304" x2="742.3" y2="312" stroke="#ca8a04" stroke-width="1.5" opacity="0.45"/>
<circle cx="647.5" cy="308" r="5.5" fill="#ca8a04"/>
<text x="659.5" y="299.0" font-size="12" fill="#0f172a">0.858</text>
<text x="750.3" y="312" font-size="10.5" fill="#64748b">SD 0.015</text>
<text x="318" y="349" text-anchor="end" font-size="12" font-weight="400" fill="#334155">Mean</text>
<line x1="330" y1="344" x2="1010" y2="344" stroke="#f1f5f9"/>
<line x1="527.6" y1="344" x2="666.6" y2="344" stroke="#64748b" stroke-width="2" opacity="0.45"/>
<line x1="527.6" y1="340" x2="527.6" y2="348" stroke="#64748b" stroke-width="1.5" opacity="0.45"/>
<line x1="666.6" y1="340" x2="666.6" y2="348" stroke="#64748b" stroke-width="1.5" opacity="0.45"/>
<circle cx="597.1" cy="344" r="5.5" fill="#64748b"/>
<text x="609.1" y="357.0" font-size="12" fill="#0f172a">0.850</text>
<text x="674.6" y="348" font-size="10.5" fill="#64748b">SD 0.011</text>
<text x="318" y="385" text-anchor="end" font-size="12" font-weight="400" fill="#334155">Similarity-penalized mean</text>
<line x1="330" y1="380" x2="1010" y2="380" stroke="#f1f5f9"/>
<line x1="502.2" y1="380" x2="620.5" y2="380" stroke="#be123c" stroke-width="2" opacity="0.45"/>
<line x1="502.2" y1="376" x2="502.2" y2="384" stroke="#be123c" stroke-width="1.5" opacity="0.45"/>
<line x1="620.5" y1="376" x2="620.5" y2="384" stroke="#be123c" stroke-width="1.5" opacity="0.45"/>
<circle cx="561.3" cy="380" r="5.5" fill="#be123c"/>
<text x="573.3" y="371.0" font-size="12" fill="#0f172a">0.844</text>
<text x="628.5" y="384" font-size="10.5" fill="#64748b">SD 0.009</text>
<text x="318" y="421" text-anchor="end" font-size="12" font-weight="400" fill="#334155">UCB</text>
<line x1="330" y1="416" x2="1010" y2="416" stroke="#f1f5f9"/>
<line x1="477.9" y1="416" x2="632.0" y2="416" stroke="#0f766e" stroke-width="2" opacity="0.45"/>
<line x1="477.9" y1="412" x2="477.9" y2="420" stroke="#0f766e" stroke-width="1.5" opacity="0.45"/>
<line x1="632.0" y1="412" x2="632.0" y2="420" stroke="#0f766e" stroke-width="1.5" opacity="0.45"/>
<circle cx="555.0" cy="416" r="5.5" fill="#0f766e"/>
<text x="567.0" y="429.0" font-size="12" fill="#0f172a">0.843</text>
<text x="640.0" y="420" font-size="10.5" fill="#64748b">SD 0.012</text>
<text x="670.0" y="472" text-anchor="middle" font-size="13" fill="#334155">AULC-F1</text>
</svg>
