<svg xmlns="http://www.w3.org/2000/svg" width="1000" height="370" viewBox="0 0 1000 370">
<rect width="100%" height="100%" fill="#ffffff"/>
<text x="500.0" y="32" text-anchor="middle" font-family="Arial, sans-serif" font-size="18" font-weight="600" fill="#0f172a">Benchmark Holdout Final PR-AUC, initial labels=10</text>
<text x="310" y="74" text-anchor="end" font-size="12" fill="#334155">Predictive entropy</text>
<rect x="320" y="58" width="630.0" height="18" rx="3" fill="#2563eb" opacity="0.82"/>
<text x="956.0" y="72" font-size="12" fill="#334155">0.922</text>
<text x="310" y="102" text-anchor="end" font-size="12" fill="#334155">Hybrid MI + diverse</text>
<rect x="320" y="86" width="624.0" height="18" rx="3" fill="#16a34a" opacity="0.82"/>
<text x="950.0" y="100" font-size="12" fill="#334155">0.913</text>
<text x="310" y="130" text-anchor="end" font-size="12" fill="#334155">Cluster-diverse</text>
<rect x="320" y="114" width="621.0" height="18" rx="3" fill="#dc2626" opacity="0.82"/>
<text x="947.0" y="128" font-size="12" fill="#334155">0.909</text>
<text x="310" y="158" text-anchor="end" font-size="12" fill="#334155">Family QBC</text>
<rect x="320" y="142" width="619.1" height="18" rx="3" fill="#9333ea" opacity="0.82"/>
<text x="945.1" y="156" font-size="12" fill="#334155">0.906</text>
<text x="310" y="186" text-anchor="end" font-size="12" fill="#334155">Ensemble MI</text>
<rect x="320" y="170" width="618.5" height="18" rx="3" fill="#ea580c" opacity="0.82"/>
<text x="944.5" y="184" font-size="12" fill="#334155">0.905</text>
<text x="310" y="214" text-anchor="end" font-size="12" fill="#334155">OED logdet</text>
<rect x="320" y="198" width="616.4" height="18" rx="3" fill="#0891b2" opacity="0.82"/>
<text x="942.4" y="212" font-size="12" fill="#334155">0.902</text>
<text x="310" y="242" text-anchor="end" font-size="12" fill="#334155">Random</text>
<rect x="320" y="226" width="615.9" height="18" rx="3" fill="#4f46e5" opacity="0.82"/>
<text x="941.9" y="240" font-size="12" fill="#334155">0.901</text>
<text x="310" y="270" text-anchor="end" font-size="12" fill="#334155">Similarity-penalized mean</text>
<rect x="320" y="254" width="612.0" height="18" rx="3" fill="#65a30d" opacity="0.82"/>
<text x="938.0" y="268" font-size="12" fill="#334155">0.895</text>
<text x="310" y="298" text-anchor="end" font-size="12" fill="#334155">Mean</text>
<rect x="320" y="282" width="610.1" height="18" rx="3" fill="#be123c" opacity="0.82"/>
<text x="936.1" y="296" font-size="12" fill="#334155">0.893</text>
<text x="310" y="326" text-anchor="end" font-size="12" fill="#334155">UCB</text>
<rect x="320" y="310" width="598.5" height="18" rx="3" fill="#0f766e" opacity="0.82"/>
<text x="924.5" y="324" font-size="12" fill="#334155">0.876</text>
</svg>
