<svg xmlns="http://www.w3.org/2000/svg" width="1198" height="994" viewBox="0 0 1198 994">
<rect width="100%" height="100%" fill="#ffffff"/>
<text x="599.0" y="34" text-anchor="middle" font-family="Arial, sans-serif" font-size="24" font-weight="700" fill="#0f172a">Benchmark selected-peptide Jaccard overlap, initial labels=40</text>
<text x="599.0" y="62" text-anchor="middle" font-family="Arial, sans-serif" font-size="13" fill="#334155">Darker cells indicate more redundant selected sets; values are mean Jaccard across replay runs.</text>
<text x="599.0" y="84" text-anchor="middle" font-family="Arial, sans-serif" font-size="12" fill="#64748b">Columns use abbreviations; rows show full strategy names.</text>
<text x="304.0" y="126.0" text-anchor="middle" font-size="12" font-weight="600" fill="#0f172a">Rand</text>
<text x="376.0" y="126.0" text-anchor="middle" font-size="12" font-weight="600" fill="#0f172a">PE</text>
<text x="448.0" y="126.0" text-anchor="middle" font-size="12" font-weight="600" fill="#0f172a">FQBC</text>
<text x="520.0" y="126.0" text-anchor="middle" font-size="12" font-weight="600" fill="#0f172a">CDR</text>
<text x="592.0" y="126.0" text-anchor="middle" font-size="12" font-weight="600" fill="#0f172a">EMI</text>
<text x="664.0" y="126.0" text-anchor="middle" font-size="12" font-weight="600" fill="#0f172a">HMI+D</text>
<text x="736.0" y="126.0" text-anchor="middle" font-size="12" font-weight="600" fill="#0f172a">OED</text>
<text x="808.0" y="126.0" text-anchor="middle" font-size="12" font-weight="600" fill="#0f172a">Mean</text>
<text x="880.0" y="126.0" text-anchor="middle" font-size="12" font-weight="600" fill="#0f172a">SimPen</text>
<text x="952.0" y="126.0" text-anchor="middle" font-size="12" font-weight="600" fill="#0f172a">UCB</text>
<text x="254" y="182.0" text-anchor="end" font-size="13" fill="#0f172a">Random</text>
<rect x="268.0" y="142.0" width="72.0" height="72.0" fill="#1d4ed8" stroke="#ffffff" stroke-width="1"/>
<text x="304.0" y="182.0" text-anchor="middle" font-size="12" fill="#ffffff">1.00</text>
<rect x="340.0" y="142.0" width="72.0" height="72.0" fill="#b7d8fd" stroke="#ffffff" stroke-width="1"/>
<text x="376.0" y="182.0" text-anchor="middle" font-size="12" fill="#0f172a">0.32</text>
<rect x="412.0" y="142.0" width="72.0" height="72.0" fill="#b4d6fd" stroke="#ffffff" stroke-width="1"/>
<text x="448.0" y="182.0" text-anchor="middle" font-size="12" fill="#0f172a">0.34</text>
<rect x="484.0" y="142.0" width="72.0" height="72.0" fill="#b1d5fd" stroke="#ffffff" stroke-width="1"/>
<text x="520.0" y="182.0" text-anchor="middle" font-size="12" fill="#0f172a">0.35</text>
<rect x="556.0" y="142.0" width="72.0" height="72.0" fill="#b4d6fd" stroke="#ffffff" stroke-width="1"/>
<text x="592.0" y="182.0" text-anchor="middle" font-size="12" fill="#0f172a">0.34</text>
<rect x="628.0" y="142.0" width="72.0" height="72.0" fill="#b4d6fd" stroke="#ffffff" stroke-width="1"/>
<text x="664.0" y="182.0" text-anchor="middle" font-size="12" fill="#0f172a">0.34</text>
<rect x="700.0" y="142.0" width="72.0" height="72.0" fill="#b5d7fd" stroke="#ffffff" stroke-width="1"/>
<text x="736.0" y="182.0" text-anchor="middle" font-size="12" fill="#0f172a">0.33</text>
<rect x="772.0" y="142.0" width="72.0" height="72.0" fill="#aed3fd" stroke="#ffffff" stroke-width="1"/>
<text x="808.0" y="182.0" text-anchor="middle" font-size="12" fill="#0f172a">0.36</text>
<rect x="844.0" y="142.0" width="72.0" height="72.0" fill="#afd4fd" stroke="#ffffff" stroke-width="1"/>
<text x="880.0" y="182.0" text-anchor="middle" font-size="12" fill="#0f172a">0.36</text>
<rect x="916.0" y="142.0" width="72.0" height="72.0" fill="#aed3fd" stroke="#ffffff" stroke-width="1"/>
<text x="952.0" y="182.0" text-anchor="middle" font-size="12" fill="#0f172a">0.37</text>
<text x="254" y="254.0" text-anchor="end" font-size="13" fill="#0f172a">Predictive entropy</text>
<rect x="268.0" y="214.0" width="72.0" height="72.0" fill="#b7d8fd" stroke="#ffffff" stroke-width="1"/>
<text x="304.0" y="254.0" text-anchor="middle" font-size="12" fill="#0f172a">0.32</text>
<rect x="340.0" y="214.0" width="72.0" height="72.0" fill="#1d4ed8" stroke="#ffffff" stroke-width="1"/>
<text x="376.0" y="254.0" text-anchor="middle" font-size="12" fill="#ffffff">1.00</text>
<rect x="412.0" y="214.0" width="72.0" height="72.0" fill="#76a7f4" stroke="#ffffff" stroke-width="1"/>
<text x="448.0" y="254.0" text-anchor="middle" font-size="12" fill="#ffffff">0.62</text>
<rect x="484.0" y="214.0" width="72.0" height="72.0" fill="#a2cdfd" stroke="#ffffff" stroke-width="1"/>
<text x="520.0" y="254.0" text-anchor="middle" font-size="12" fill="#0f172a">0.43</text>
<rect x="556.0" y="214.0" width="72.0" height="72.0" fill="#7fb1f7" stroke="#ffffff" stroke-width="1"/>
<text x="592.0" y="254.0" text-anchor="middle" font-size="12" fill="#ffffff">0.58</text>
<rect x="628.0" y="214.0" width="72.0" height="72.0" fill="#96c7fd" stroke="#ffffff" stroke-width="1"/>
<text x="664.0" y="254.0" text-anchor="middle" font-size="12" fill="#0f172a">0.48</text>
<rect x="700.0" y="214.0" width="72.0" height="72.0" fill="#add2fd" stroke="#ffffff" stroke-width="1"/>
<text x="736.0" y="254.0" text-anchor="middle" font-size="12" fill="#0f172a">0.37</text>
<rect x="772.0" y="214.0" width="72.0" height="72.0" fill="#dbebfc" stroke="#ffffff" stroke-width="1"/>
<text x="808.0" y="254.0" text-anchor="middle" font-size="12" fill="#0f172a">0.14</text>
<rect x="844.0" y="214.0" width="72.0" height="72.0" fill="#dbebfc" stroke="#ffffff" stroke-width="1"/>
<text x="880.0" y="254.0" text-anchor="middle" font-size="12" fill="#0f172a">0.14</text>
<rect x="916.0" y="214.0" width="72.0" height="72.0" fill="#dbebfc" stroke="#ffffff" stroke-width="1"/>
<text x="952.0" y="254.0" text-anchor="middle" font-size="12" fill="#0f172a">0.14</text>
<text x="254" y="326.0" text-anchor="end" font-size="13" fill="#0f172a">Family QBC</text>
<rect x="268.0" y="286.0" width="72.0" height="72.0" fill="#b4d6fd" stroke="#ffffff" stroke-width="1"/>
<text x="304.0" y="326.0" text-anchor="middle" font-size="12" fill="#0f172a">0.34</text>
<rect x="340.0" y="286.0" width="72.0" height="72.0" fill="#76a7f4" stroke="#ffffff" stroke-width="1"/>
<text x="376.0" y="326.0" text-anchor="middle" font-size="12" fill="#ffffff">0.62</text>
<rect x="412.0" y="286.0" width="72.0" height="72.0" fill="#1d4ed8" stroke="#ffffff" stroke-width="1"/>
<text x="448.0" y="326.0" text-anchor="middle" font-size="12" fill="#ffffff">1.00</text>
<rect x="484.0" y="286.0" width="72.0" height="72.0" fill="#aed3fd" stroke="#ffffff" stroke-width="1"/>
<text x="520.0" y="326.0" text-anchor="middle" font-size="12" fill="#0f172a">0.37</text>
<rect x="556.0" y="286.0" width="72.0" height="72.0" fill="#93c5fd" stroke="#ffffff" stroke-width="1"/>
<text x="592.0" y="326.0" text-anchor="middle" font-size="12" fill="#0f172a">0.50</text>
<rect x="628.0" y="286.0" width="72.0" height="72.0" fill="#a3cefd" stroke="#ffffff" stroke-width="1"/>
<text x="664.0" y="326.0" text-anchor="middle" font-size="12" fill="#0f172a">0.42</text>
<rect x="700.0" y="286.0" width="72.0" height="72.0" fill="#b0d4fd" stroke="#ffffff" stroke-width="1"/>
<text x="736.0" y="326.0" text-anchor="middle" font-size="12" fill="#0f172a">0.36</text>
<rect x="772.0" y="286.0" width="72.0" height="72.0" fill="#d8e9fc" stroke="#ffffff" stroke-width="1"/>
<text x="808.0" y="326.0" text-anchor="middle" font-size="12" fill="#0f172a">0.16</text>
<rect x="844.0" y="286.0" width="72.0" height="72.0" fill="#d8e9fc" stroke="#ffffff" stroke-width="1"/>
<text x="880.0" y="326.0" text-anchor="middle" font-size="12" fill="#0f172a">0.16</text>
<rect x="916.0" y="286.0" width="72.0" height="72.0" fill="#d9eafc" stroke="#ffffff" stroke-width="1"/>
<text x="952.0" y="326.0" text-anchor="middle" font-size="12" fill="#0f172a">0.15</text>
<text x="254" y="398.0" text-anchor="end" font-size="13" fill="#0f172a">Cluster-diverse</text>
<rect x="268.0" y="358.0" width="72.0" height="72.0" fill="#b1d5fd" stroke="#ffffff" stroke-width="1"/>
<text x="304.0" y="398.0" text-anchor="middle" font-size="12" fill="#0f172a">0.35</text>
<rect x="340.0" y="358.0" width="72.0" height="72.0" fill="#a2cdfd" stroke="#ffffff" stroke-width="1"/>
<text x="376.0" y="398.0" text-anchor="middle" font-size="12" fill="#0f172a">0.43</text>
<rect x="412.0" y="358.0" width="72.0" height="72.0" fill="#aed3fd" stroke="#ffffff" stroke-width="1"/>
<text x="448.0" y="398.0" text-anchor="middle" font-size="12" fill="#0f172a">0.37</text>
<rect x="484.0" y="358.0" width="72.0" height="72.0" fill="#1d4ed8" stroke="#ffffff" stroke-width="1"/>
<text x="520.0" y="398.0" text-anchor="middle" font-size="12" fill="#ffffff">1.00</text>
<rect x="556.0" y="358.0" width="72.0" height="72.0" fill="#90c2fc" stroke="#ffffff" stroke-width="1"/>
<text x="592.0" y="398.0" text-anchor="middle" font-size="12" fill="#0f172a">0.51</text>
<rect x="628.0" y="358.0" width="72.0" height="72.0" fill="#81b2f7" stroke="#ffffff" stroke-width="1"/>
<text x="664.0" y="398.0" text-anchor="middle" font-size="12" fill="#ffffff">0.58</text>
<rect x="700.0" y="358.0" width="72.0" height="72.0" fill="#88bafa" stroke="#ffffff" stroke-width="1"/>
<text x="736.0" y="398.0" text-anchor="middle" font-size="12" fill="#0f172a">0.55</text>
<rect x="772.0" y="358.0" width="72.0" height="72.0" fill="#b3d6fd" stroke="#ffffff" stroke-width="1"/>
<text x="808.0" y="398.0" text-anchor="middle" font-size="12" fill="#0f172a">0.34</text>
<rect x="844.0" y="358.0" width="72.0" height="72.0" fill="#b1d5fd" stroke="#ffffff" stroke-width="1"/>
<text x="880.0" y="398.0" text-anchor="middle" font-size="12" fill="#0f172a">0.35</text>
<rect x="916.0" y="358.0" width="72.0" height="72.0" fill="#b1d5fd" stroke="#ffffff" stroke-width="1"/>
<text x="952.0" y="398.0" text-anchor="middle" font-size="12" fill="#0f172a">0.35</text>
<text x="254" y="470.0" text-anchor="end" font-size="13" fill="#0f172a">Ensemble MI</text>
<rect x="268.0" y="430.0" width="72.0" height="72.0" fill="#b4d6fd" stroke="#ffffff" stroke-width="1"/>
<text x="304.0" y="470.0" text-anchor="middle" font-size="12" fill="#0f172a">0.34</text>
<rect x="340.0" y="430.0" width="72.0" height="72.0" fill="#7fb1f7" stroke="#ffffff" stroke-width="1"/>
<text x="376.0" y="470.0" text-anchor="middle" font-size="12" fill="#ffffff">0.58</text>
<rect x="412.0" y="430.0" width="72.0" height="72.0" fill="#93c5fd" stroke="#ffffff" stroke-width="1"/>
<text x="448.0" y="470.0" text-anchor="middle" font-size="12" fill="#0f172a">0.50</text>
<rect x="484.0" y="430.0" width="72.0" height="72.0" fill="#90c2fc" stroke="#ffffff" stroke-width="1"/>
<text x="520.0" y="470.0" text-anchor="middle" font-size="12" fill="#0f172a">0.51</text>
<rect x="556.0" y="430.0" width="72.0" height="72.0" fill="#1d4ed8" stroke="#ffffff" stroke-width="1"/>
<text x="592.0" y="470.0" text-anchor="middle" font-size="12" fill="#ffffff">1.00</text>
<rect x="628.0" y="430.0" width="72.0" height="72.0" fill="#7badf6" stroke="#ffffff" stroke-width="1"/>
<text x="664.0" y="470.0" text-anchor="middle" font-size="12" fill="#ffffff">0.60</text>
<rect x="700.0" y="430.0" width="72.0" height="72.0" fill="#99c8fd" stroke="#ffffff" stroke-width="1"/>
<text x="736.0" y="470.0" text-anchor="middle" font-size="12" fill="#0f172a">0.47</text>
<rect x="772.0" y="430.0" width="72.0" height="72.0" fill="#c9e2fc" stroke="#ffffff" stroke-width="1"/>
<text x="808.0" y="470.0" text-anchor="middle" font-size="12" fill="#0f172a">0.23</text>
<rect x="844.0" y="430.0" width="72.0" height="72.0" fill="#c9e1fc" stroke="#ffffff" stroke-width="1"/>
<text x="880.0" y="470.0" text-anchor="middle" font-size="12" fill="#0f172a">0.24</text>
<rect x="916.0" y="430.0" width="72.0" height="72.0" fill="#c8e1fc" stroke="#ffffff" stroke-width="1"/>
<text x="952.0" y="470.0" text-anchor="middle" font-size="12" fill="#0f172a">0.24</text>
<text x="254" y="542.0" text-anchor="end" font-size="13" fill="#0f172a">Hybrid MI + diverse</text>
<rect x="268.0" y="502.0" width="72.0" height="72.0" fill="#b4d6fd" stroke="#ffffff" stroke-width="1"/>
<text x="304.0" y="542.0" text-anchor="middle" font-size="12" fill="#0f172a">0.34</text>
<rect x="340.0" y="502.0" width="72.0" height="72.0" fill="#96c7fd" stroke="#ffffff" stroke-width="1"/>
<text x="376.0" y="542.0" text-anchor="middle" font-size="12" fill="#0f172a">0.48</text>
<rect x="412.0" y="502.0" width="72.0" height="72.0" fill="#a3cefd" stroke="#ffffff" stroke-width="1"/>
<text x="448.0" y="542.0" text-anchor="middle" font-size="12" fill="#0f172a">0.42</text>
<rect x="484.0" y="502.0" width="72.0" height="72.0" fill="#81b2f7" stroke="#ffffff" stroke-width="1"/>
<text x="520.0" y="542.0" text-anchor="middle" font-size="12" fill="#ffffff">0.58</text>
<rect x="556.0" y="502.0" width="72.0" height="72.0" fill="#7badf6" stroke="#ffffff" stroke-width="1"/>
<text x="592.0" y="542.0" text-anchor="middle" font-size="12" fill="#ffffff">0.60</text>
<rect x="628.0" y="502.0" width="72.0" height="72.0" fill="#1d4ed8" stroke="#ffffff" stroke-width="1"/>
<text x="664.0" y="542.0" text-anchor="middle" font-size="12" fill="#ffffff">1.00</text>
<rect x="700.0" y="502.0" width="72.0" height="72.0" fill="#7daef6" stroke="#ffffff" stroke-width="1"/>
<text x="736.0" y="542.0" text-anchor="middle" font-size="12" fill="#ffffff">0.60</text>
<rect x="772.0" y="502.0" width="72.0" height="72.0" fill="#bcdbfd" stroke="#ffffff" stroke-width="1"/>
<text x="808.0" y="542.0" text-anchor="middle" font-size="12" fill="#0f172a">0.30</text>
<rect x="844.0" y="502.0" width="72.0" height="72.0" fill="#bbdafd" stroke="#ffffff" stroke-width="1"/>
<text x="880.0" y="542.0" text-anchor="middle" font-size="12" fill="#0f172a">0.30</text>
<rect x="916.0" y="502.0" width="72.0" height="72.0" fill="#bad9fd" stroke="#ffffff" stroke-width="1"/>
<text x="952.0" y="542.0" text-anchor="middle" font-size="12" fill="#0f172a">0.31</text>
<text x="254" y="614.0" text-anchor="end" font-size="13" fill="#0f172a">OED logdet</text>
<rect x="268.0" y="574.0" width="72.0" height="72.0" fill="#b5d7fd" stroke="#ffffff" stroke-width="1"/>
<text x="304.0" y="614.0" text-anchor="middle" font-size="12" fill="#0f172a">0.33</text>
<rect x="340.0" y="574.0" width="72.0" height="72.0" fill="#add2fd" stroke="#ffffff" stroke-width="1"/>
<text x="376.0" y="614.0" text-anchor="middle" font-size="12" fill="#0f172a">0.37</text>
<rect x="412.0" y="574.0" width="72.0" height="72.0" fill="#b0d4fd" stroke="#ffffff" stroke-width="1"/>
<text x="448.0" y="614.0" text-anchor="middle" font-size="12" fill="#0f172a">0.36</text>
<rect x="484.0" y="574.0" width="72.0" height="72.0" fill="#88bafa" stroke="#ffffff" stroke-width="1"/>
<text x="520.0" y="614.0" text-anchor="middle" font-size="12" fill="#0f172a">0.55</text>
<rect x="556.0" y="574.0" width="72.0" height="72.0" fill="#99c8fd" stroke="#ffffff" stroke-width="1"/>
<text x="592.0" y="614.0" text-anchor="middle" font-size="12" fill="#0f172a">0.47</text>
<rect x="628.0" y="574.0" width="72.0" height="72.0" fill="#7daef6" stroke="#ffffff" stroke-width="1"/>
<text x="664.0" y="614.0" text-anchor="middle" font-size="12" fill="#ffffff">0.60</text>
<rect x="700.0" y="574.0" width="72.0" height="72.0" fill="#1d4ed8" stroke="#ffffff" stroke-width="1"/>
<text x="736.0" y="614.0" text-anchor="middle" font-size="12" fill="#ffffff">1.00</text>
<rect x="772.0" y="574.0" width="72.0" height="72.0" fill="#add3fd" stroke="#ffffff" stroke-width="1"/>
<text x="808.0" y="614.0" text-anchor="middle" font-size="12" fill="#0f172a">0.37</text>
<rect x="844.0" y="574.0" width="72.0" height="72.0" fill="#abd2fd" stroke="#ffffff" stroke-width="1"/>
<text x="880.0" y="614.0" text-anchor="middle" font-size="12" fill="#0f172a">0.38</text>
<rect x="916.0" y="574.0" width="72.0" height="72.0" fill="#abd2fd" stroke="#ffffff" stroke-width="1"/>
<text x="952.0" y="614.0" text-anchor="middle" font-size="12" fill="#0f172a">0.38</text>
<text x="254" y="686.0" text-anchor="end" font-size="13" fill="#0f172a">Mean</text>
<rect x="268.0" y="646.0" width="72.0" height="72.0" fill="#aed3fd" stroke="#ffffff" stroke-width="1"/>
<text x="304.0" y="686.0" text-anchor="middle" font-size="12" fill="#0f172a">0.36</text>
<rect x="340.0" y="646.0" width="72.0" height="72.0" fill="#dbebfc" stroke="#ffffff" stroke-width="1"/>
<text x="376.0" y="686.0" text-anchor="middle" font-size="12" fill="#0f172a">0.14</text>
<rect x="412.0" y="646.0" width="72.0" height="72.0" fill="#d8e9fc" stroke="#ffffff" stroke-width="1"/>
<text x="448.0" y="686.0" text-anchor="middle" font-size="12" fill="#0f172a">0.16</text>
<rect x="484.0" y="646.0" width="72.0" height="72.0" fill="#b3d6fd" stroke="#ffffff" stroke-width="1"/>
<text x="520.0" y="686.0" text-anchor="middle" font-size="12" fill="#0f172a">0.34</text>
<rect x="556.0" y="646.0" width="72.0" height="72.0" fill="#c9e2fc" stroke="#ffffff" stroke-width="1"/>
<text x="592.0" y="686.0" text-anchor="middle" font-size="12" fill="#0f172a">0.23</text>
<rect x="628.0" y="646.0" width="72.0" height="72.0" fill="#bcdbfd" stroke="#ffffff" stroke-width="1"/>
<text x="664.0" y="686.0" text-anchor="middle" font-size="12" fill="#0f172a">0.30</text>
<rect x="700.0" y="646.0" width="72.0" height="72.0" fill="#add3fd" stroke="#ffffff" stroke-width="1"/>
<text x="736.0" y="686.0" text-anchor="middle" font-size="12" fill="#0f172a">0.37</text>
<rect x="772.0" y="646.0" width="72.0" height="72.0" fill="#1d4ed8" stroke="#ffffff" stroke-width="1"/>
<text x="808.0" y="686.0" text-anchor="middle" font-size="12" fill="#ffffff">1.00</text>
<rect x="844.0" y="646.0" width="72.0" height="72.0" fill="#3566df" stroke="#ffffff" stroke-width="1"/>
<text x="880.0" y="686.0" text-anchor="middle" font-size="12" fill="#ffffff">0.90</text>
<rect x="916.0" y="646.0" width="72.0" height="72.0" fill="#396ae1" stroke="#ffffff" stroke-width="1"/>
<text x="952.0" y="686.0" text-anchor="middle" font-size="12" fill="#ffffff">0.88</text>
<text x="254" y="758.0" text-anchor="end" font-size="13" fill="#0f172a">Similarity-penalized mean</text>
<rect x="268.0" y="718.0" width="72.0" height="72.0" fill="#afd4fd" stroke="#ffffff" stroke-width="1"/>
<text x="304.0" y="758.0" text-anchor="middle" font-size="12" fill="#0f172a">0.36</text>
<rect x="340.0" y="718.0" width="72.0" height="72.0" fill="#dbebfc" stroke="#ffffff" stroke-width="1"/>
<text x="376.0" y="758.0" text-anchor="middle" font-size="12" fill="#0f172a">0.14</text>
<rect x="412.0" y="718.0" width="72.0" height="72.0" fill="#d8e9fc" stroke="#ffffff" stroke-width="1"/>
<text x="448.0" y="758.0" text-anchor="middle" font-size="12" fill="#0f172a">0.16</text>
<rect x="484.0" y="718.0" width="72.0" height="72.0" fill="#b1d5fd" stroke="#ffffff" stroke-width="1"/>
<text x="520.0" y="758.0" text-anchor="middle" font-size="12" fill="#0f172a">0.35</text>
<rect x="556.0" y="718.0" width="72.0" height="72.0" fill="#c9e1fc" stroke="#ffffff" stroke-width="1"/>
<text x="592.0" y="758.0" text-anchor="middle" font-size="12" fill="#0f172a">0.24</text>
<rect x="628.0" y="718.0" width="72.0" height="72.0" fill="#bbdafd" stroke="#ffffff" stroke-width="1"/>
<text x="664.0" y="758.0" text-anchor="middle" font-size="12" fill="#0f172a">0.30</text>
<rect x="700.0" y="718.0" width="72.0" height="72.0" fill="#abd2fd" stroke="#ffffff" stroke-width="1"/>
<text x="736.0" y="758.0" text-anchor="middle" font-size="12" fill="#0f172a">0.38</text>
<rect x="772.0" y="718.0" width="72.0" height="72.0" fill="#3566df" stroke="#ffffff" stroke-width="1"/>
<text x="808.0" y="758.0" text-anchor="middle" font-size="12" fill="#ffffff">0.90</text>
<rect x="844.0" y="718.0" width="72.0" height="72.0" fill="#1d4ed8" stroke="#ffffff" stroke-width="1"/>
<text x="880.0" y="758.0" text-anchor="middle" font-size="12" fill="#ffffff">1.00</text>
<rect x="916.0" y="718.0" width="72.0" height="72.0" fill="#3667e0" stroke="#ffffff" stroke-width="1"/>
<text x="952.0" y="758.0" text-anchor="middle" font-size="12" fill="#ffffff">0.89</text>
<text x="254" y="830.0" text-anchor="end" font-size="13" fill="#0f172a">UCB</text>
<rect x="268.0" y="790.0" width="72.0" height="72.0" fill="#aed3fd" stroke="#ffffff" stroke-width="1"/>
<text x="304.0" y="830.0" text-anchor="middle" font-size="12" fill="#0f172a">0.37</text>
<rect x="340.0" y="790.0" width="72.0" height="72.0" fill="#dbebfc" stroke="#ffffff" stroke-width="1"/>
<text x="376.0" y="830.0" text-anchor="middle" font-size="12" fill="#0f172a">0.14</text>
<rect x="412.0" y="790.0" width="72.0" height="72.0" fill="#d9eafc" stroke="#ffffff" stroke-width="1"/>
<text x="448.0" y="830.0" text-anchor="middle" font-size="12" fill="#0f172a">0.15</text>
<rect x="484.0" y="790.0" width="72.0" height="72.0" fill="#b1d5fd" stroke="#ffffff" stroke-width="1"/>
<text x="520.0" y="830.0" text-anchor="middle" font-size="12" fill="#0f172a">0.35</text>
<rect x="556.0" y="790.0" width="72.0" height="72.0" fill="#c8e1fc" stroke="#ffffff" stroke-width="1"/>
<text x="592.0" y="830.0" text-anchor="middle" font-size="12" fill="#0f172a">0.24</text>
<rect x="628.0" y="790.0" width="72.0" height="72.0" fill="#bad9fd" stroke="#ffffff" stroke-width="1"/>
<text x="664.0" y="830.0" text-anchor="middle" font-size="12" fill="#0f172a">0.31</text>
<rect x="700.0" y="790.0" width="72.0" height="72.0" fill="#abd2fd" stroke="#ffffff" stroke-width="1"/>
<text x="736.0" y="830.0" text-anchor="middle" font-size="12" fill="#0f172a">0.38</text>
<rect x="772.0" y="790.0" width="72.0" height="72.0" fill="#396ae1" stroke="#ffffff" stroke-width="1"/>
<text x="808.0" y="830.0" text-anchor="middle" font-size="12" fill="#ffffff">0.88</text>
<rect x="844.0" y="790.0" width="72.0" height="72.0" fill="#3667e0" stroke="#ffffff" stroke-width="1"/>
<text x="880.0" y="830.0" text-anchor="middle" font-size="12" fill="#ffffff">0.89</text>
<rect x="916.0" y="790.0" width="72.0" height="72.0" fill="#1d4ed8" stroke="#ffffff" stroke-width="1"/>
<text x="952.0" y="830.0" text-anchor="middle" font-size="12" fill="#ffffff">1.00</text>
<line x1="340.0" y1="142.0" x2="340.0" y2="862.0" stroke="#0f172a" stroke-width="1.2" opacity="0.35"/>
<line x1="268.0" y1="214.0" x2="988.0" y2="214.0" stroke="#0f172a" stroke-width="1.2" opacity="0.35"/>
<line x1="484.0" y1="142.0" x2="484.0" y2="862.0" stroke="#0f172a" stroke-width="1.2" opacity="0.35"/>
<line x1="268.0" y1="358.0" x2="988.0" y2="358.0" stroke="#0f172a" stroke-width="1.2" opacity="0.35"/>
<line x1="772.0" y1="142.0" x2="772.0" y2="862.0" stroke="#0f172a" stroke-width="1.2" opacity="0.35"/>
<line x1="268.0" y1="646.0" x2="988.0" y2="646.0" stroke="#0f172a" stroke-width="1.2" opacity="0.35"/>
<rect x="1030" y="142.0" width="18" height="36.5" fill="#1d4ed8"/>
<rect x="1030" y="178.0" width="18" height="36.5" fill="#295bdc"/>
<rect x="1030" y="214.0" width="18" height="36.5" fill="#3667e0"/>
<rect x="1030" y="250.0" width="18" height="36.5" fill="#4274e4"/>
<rect x="1030" y="286.0" width="18" height="36.5" fill="#4f80e8"/>
<rect x="1030" y="322.0" width="18" height="36.5" fill="#5b8deb"/>
<rect x="1030" y="358.0" width="18" height="36.5" fill="#6899ef"/>
<rect x="1030" y="394.0" width="18" height="36.5" fill="#74a6f3"/>
<rect x="1030" y="430.0" width="18" height="36.5" fill="#80b2f7"/>
<rect x="1030" y="466.0" width="18" height="36.5" fill="#8dbffb"/>
<rect x="1030" y="502.0" width="18" height="36.5" fill="#98c8fd"/>
<rect x="1030" y="538.0" width="18" height="36.5" fill="#a3cdfd"/>
<rect x="1030" y="574.0" width="18" height="36.5" fill="#aed3fd"/>
<rect x="1030" y="610.0" width="18" height="36.5" fill="#b8d9fd"/>
<rect x="1030" y="646.0" width="18" height="36.5" fill="#c3defd"/>
<rect x="1030" y="682.0" width="18" height="36.5" fill="#cde4fc"/>
<rect x="1030" y="718.0" width="18" height="36.5" fill="#d8e9fc"/>
<rect x="1030" y="754.0" width="18" height="36.5" fill="#e3effc"/>
<rect x="1030" y="790.0" width="18" height="36.5" fill="#edf4fc"/>
<rect x="1030" y="826.0" width="18" height="36.5" fill="#f8fafc"/>
<text x="1058" y="146" font-size="12" fill="#334155">1.0</text>
<text x="1058" y="862.0" font-size="12" fill="#334155">0.0</text>
<text x="1039" y="892.0" text-anchor="middle" font-size="13" fill="#334155">Jaccard</text>
<text x="268" y="904" font-size="12" fill="#475569">Abbrev.: PE = predictive entropy; FQBC = family QBC; CDR = cluster-diverse; EMI = ensemble MI</text>
<text x="268" y="924" font-size="12" fill="#475569">HMI+D = hybrid MI + diverse; OED = OED logdet; SimPen = similarity-penalized mean</text>
</svg>
