<svg xmlns="http://www.w3.org/2000/svg" width="1280" height="558" viewBox="0 0 1280 558">
<rect width="100%" height="100%" fill="#ffffff"/>
<text x="788.0" y="32" text-anchor="middle" font-family="Arial, sans-serif" font-size="18" font-weight="600" fill="#0f172a">Benchmark Validation labels needed vs random to F1=0.86 (initial labels=10)</text>
<rect x="814" y="47" width="12" height="12" fill="#2563eb" opacity="0.72"/>
<text x="832" y="58" font-size="11" fill="#334155">fewer labels than random</text>
<rect x="1104" y="47" width="12" height="12" fill="#dc2626" opacity="0.72"/>
<text x="1122" y="58" font-size="11" fill="#334155">more labels</text>
<line x1="330.0" y1="82" x2="330.0" y2="472" stroke="#e5e7eb"/>
<text x="330.0" y="490" text-anchor="middle" font-size="11" fill="#475569">-24</text>
<line x1="492.5" y1="82" x2="492.5" y2="472" stroke="#e5e7eb"/>
<text x="492.5" y="490" text-anchor="middle" font-size="11" fill="#475569">-14</text>
<line x1="655.0" y1="82" x2="655.0" y2="472" stroke="#e5e7eb"/>
<text x="655.0" y="490" text-anchor="middle" font-size="11" fill="#475569">-4</text>
<line x1="817.5" y1="82" x2="817.5" y2="472" stroke="#e5e7eb"/>
<text x="817.5" y="490" text-anchor="middle" font-size="11" fill="#475569">+5</text>
<line x1="980.0" y1="82" x2="980.0" y2="472" stroke="#e5e7eb"/>
<text x="980.0" y="490" text-anchor="middle" font-size="11" fill="#475569">+15</text>
<line x1="728.7" y1="80" x2="728.7" y2="472" stroke="#64748b" stroke-width="1.2" stroke-dasharray="4 4"/>
<text x="728.7" y="508" text-anchor="middle" font-size="12" fill="#475569">random baseline</text>
<text x="312" y="128" text-anchor="end" font-size="12" fill="#334155">Predictive entropy</text>
<line x1="728.7" y1="124" x2="401.1" y2="124" stroke="#2563eb" stroke-width="4" opacity="0.72"/>
<circle cx="401.1" cy="124" r="5" fill="#2563eb"/>
<text x="1246" y="128" text-anchor="end" font-size="12" fill="#2563eb">-20 labels (-44%, 5/5 folds)</text>
<text x="312" y="172" text-anchor="end" font-size="12" fill="#334155">Cluster-diverse</text>
<line x1="728.7" y1="168" x2="462.5" y2="168" stroke="#2563eb" stroke-width="4" opacity="0.72"/>
<circle cx="462.5" cy="168" r="5" fill="#2563eb"/>
<text x="1246" y="172" text-anchor="end" font-size="12" fill="#2563eb">-16.2 labels (-36%, 4/5 folds)</text>
<text x="312" y="216" text-anchor="end" font-size="12" fill="#334155">Family QBC</text>
<line x1="728.7" y1="212" x2="548.5" y2="212" stroke="#2563eb" stroke-width="4" opacity="0.72"/>
<circle cx="548.5" cy="212" r="5" fill="#2563eb"/>
<text x="1246" y="216" text-anchor="end" font-size="12" fill="#2563eb">-11 labels (-24%, 5/5 folds)</text>
<text x="312" y="260" text-anchor="end" font-size="12" fill="#334155">Hybrid MI + diverse</text>
<line x1="728.7" y1="256" x2="597.7" y2="256" stroke="#2563eb" stroke-width="4" opacity="0.72"/>
<circle cx="597.7" cy="256" r="5" fill="#2563eb"/>
<text x="1246" y="260" text-anchor="end" font-size="12" fill="#2563eb">-8 labels (-18%, 5/5 folds)</text>
<text x="312" y="304" text-anchor="end" font-size="12" fill="#334155">Ensemble MI</text>
<line x1="728.7" y1="300" x2="679.6" y2="300" stroke="#2563eb" stroke-width="4" opacity="0.72"/>
<circle cx="679.6" cy="300" r="5" fill="#2563eb"/>
<text x="1246" y="304" text-anchor="end" font-size="12" fill="#2563eb">-3 labels (-7%, 5/5 folds)</text>
<text x="312" y="348" text-anchor="end" font-size="12" fill="#334155">OED logdet</text>
<line x1="728.7" y1="344" x2="794.2" y2="344" stroke="#dc2626" stroke-width="4" opacity="0.72"/>
<circle cx="794.2" cy="344" r="5" fill="#dc2626"/>
<text x="1246" y="348" text-anchor="end" font-size="12" fill="#dc2626">+4 labels (+9%, 5/5 folds)</text>
<text x="312" y="392" text-anchor="end" font-size="12" fill="#334155">Similarity-penalized mean</text>
<line x1="728.7" y1="388" x2="810.6" y2="388" stroke="#dc2626" stroke-width="4" opacity="0.72"/>
<circle cx="810.6" cy="388" r="5" fill="#dc2626"/>
<text x="1246" y="392" text-anchor="end" font-size="12" fill="#dc2626">+5 labels (+11%, 4/5 folds)</text>
<text x="312" y="436" text-anchor="end" font-size="12" fill="#334155">UCB</text>
<line x1="728.7" y1="432" x2="831.1" y2="432" stroke="#dc2626" stroke-width="4" opacity="0.72"/>
<circle cx="831.1" cy="432" r="5" fill="#dc2626"/>
<text x="1246" y="436" text-anchor="end" font-size="12" fill="#dc2626">+6.2 labels (+14%, 4/5 folds)</text>
<text x="312" y="480" text-anchor="end" font-size="12" fill="#334155">Mean</text>
<line x1="728.7" y1="476" x2="908.9" y2="476" stroke="#dc2626" stroke-width="4" opacity="0.72"/>
<circle cx="908.9" cy="476" r="5" fill="#dc2626"/>
<text x="1246" y="480" text-anchor="end" font-size="12" fill="#dc2626">+11 labels (+24%, 5/5 folds)</text>
<text x="788.0" y="542" text-anchor="middle" font-size="13" fill="#334155">Additional labeled peptides vs random to reach target F1</text>
</svg>
