<svg xmlns="http://www.w3.org/2000/svg" width="1198" height="1060" viewBox="0 0 1198 1060">
<rect width="100%" height="100%" fill="#ffffff"/>
<text x="628.0" y="48.0" text-anchor="middle" font-family="Arial, sans-serif" font-size="24" font-weight="700" fill="#0f172a">Benchmark selected-peptide Jaccard overlap, initial labels=10</text>
<text x="330.0" y="188.0" text-anchor="end" font-size="12" fill="#0f172a" transform="rotate(42 330.0 188.0)">Random</text>
<text x="402.0" y="188.0" text-anchor="end" font-size="12" fill="#0f172a" transform="rotate(42 402.0 188.0)">Predictive entropy</text>
<text x="474.0" y="188.0" text-anchor="end" font-size="12" fill="#0f172a" transform="rotate(42 474.0 188.0)">Family QBC</text>
<text x="546.0" y="188.0" text-anchor="end" font-size="12" fill="#0f172a" transform="rotate(42 546.0 188.0)">Cluster-diverse</text>
<text x="618.0" y="188.0" text-anchor="end" font-size="12" fill="#0f172a" transform="rotate(42 618.0 188.0)">Ensemble MI</text>
<text x="690.0" y="188.0" text-anchor="end" font-size="12" fill="#0f172a" transform="rotate(42 690.0 188.0)">Hybrid MI + diverse</text>
<text x="762.0" y="188.0" text-anchor="end" font-size="12" fill="#0f172a" transform="rotate(42 762.0 188.0)">OED logdet</text>
<text x="834.0" y="188.0" text-anchor="end" font-size="12" fill="#0f172a" transform="rotate(42 834.0 188.0)">Mean</text>
<text x="906.0" y="188.0" text-anchor="end" font-size="12" fill="#0f172a" transform="rotate(42 906.0 188.0)">Similarity-penalized mean</text>
<text x="978.0" y="188.0" text-anchor="end" font-size="12" fill="#0f172a" transform="rotate(42 978.0 188.0)">UCB</text>
<text x="254" y="252.0" text-anchor="end" font-size="12" fill="#0f172a">Random</text>
<text x="254" y="324.0" text-anchor="end" font-size="12" fill="#0f172a">Predictive entropy</text>
<text x="254" y="396.0" text-anchor="end" font-size="12" fill="#0f172a">Family QBC</text>
<text x="254" y="468.0" text-anchor="end" font-size="12" fill="#0f172a">Cluster-diverse</text>
<text x="254" y="540.0" text-anchor="end" font-size="12" fill="#0f172a">Ensemble MI</text>
<text x="254" y="612.0" text-anchor="end" font-size="12" fill="#0f172a">Hybrid MI + diverse</text>
<text x="254" y="684.0" text-anchor="end" font-size="12" fill="#0f172a">OED logdet</text>
<text x="254" y="756.0" text-anchor="end" font-size="12" fill="#0f172a">Mean</text>
<text x="254" y="828.0" text-anchor="end" font-size="12" fill="#0f172a">Similarity-penalized mean</text>
<text x="254" y="900.0" text-anchor="end" font-size="12" fill="#0f172a">UCB</text>
<rect x="268.0" y="212.0" width="72.0" height="72.0" fill="#1d4ed8" stroke="#ffffff" stroke-width="1"/>
<text x="304.0" y="252.0" text-anchor="middle" font-size="12" fill="#ffffff">1.00</text>
<rect x="340.0" y="212.0" width="72.0" height="72.0" fill="#bfdcfd" stroke="#ffffff" stroke-width="1"/>
<text x="376.0" y="252.0" text-anchor="middle" font-size="12" fill="#0f172a">0.28</text>
<rect x="412.0" y="212.0" width="72.0" height="72.0" fill="#bedbfd" stroke="#ffffff" stroke-width="1"/>
<text x="448.0" y="252.0" text-anchor="middle" font-size="12" fill="#0f172a">0.29</text>
<rect x="484.0" y="212.0" width="72.0" height="72.0" fill="#c0dcfd" stroke="#ffffff" stroke-width="1"/>
<text x="520.0" y="252.0" text-anchor="middle" font-size="12" fill="#0f172a">0.28</text>
<rect x="556.0" y="212.0" width="72.0" height="72.0" fill="#bcdafd" stroke="#ffffff" stroke-width="1"/>
<text x="592.0" y="252.0" text-anchor="middle" font-size="12" fill="#0f172a">0.30</text>
<rect x="628.0" y="212.0" width="72.0" height="72.0" fill="#bfdcfd" stroke="#ffffff" stroke-width="1"/>
<text x="664.0" y="252.0" text-anchor="middle" font-size="12" fill="#0f172a">0.28</text>
<rect x="700.0" y="212.0" width="72.0" height="72.0" fill="#c1ddfd" stroke="#ffffff" stroke-width="1"/>
<text x="736.0" y="252.0" text-anchor="middle" font-size="12" fill="#0f172a">0.27</text>
<rect x="772.0" y="212.0" width="72.0" height="72.0" fill="#c0dcfd" stroke="#ffffff" stroke-width="1"/>
<text x="808.0" y="252.0" text-anchor="middle" font-size="12" fill="#0f172a">0.28</text>
<rect x="844.0" y="212.0" width="72.0" height="72.0" fill="#bedcfd" stroke="#ffffff" stroke-width="1"/>
<text x="880.0" y="252.0" text-anchor="middle" font-size="12" fill="#0f172a">0.29</text>
<rect x="916.0" y="212.0" width="72.0" height="72.0" fill="#c0dcfd" stroke="#ffffff" stroke-width="1"/>
<text x="952.0" y="252.0" text-anchor="middle" font-size="12" fill="#0f172a">0.28</text>
<rect x="268.0" y="284.0" width="72.0" height="72.0" fill="#bfdcfd" stroke="#ffffff" stroke-width="1"/>
<text x="304.0" y="324.0" text-anchor="middle" font-size="12" fill="#0f172a">0.28</text>
<rect x="340.0" y="284.0" width="72.0" height="72.0" fill="#1d4ed8" stroke="#ffffff" stroke-width="1"/>
<text x="376.0" y="324.0" text-anchor="middle" font-size="12" fill="#ffffff">1.00</text>
<rect x="412.0" y="284.0" width="72.0" height="72.0" fill="#9ccafd" stroke="#ffffff" stroke-width="1"/>
<text x="448.0" y="324.0" text-anchor="middle" font-size="12" fill="#0f172a">0.45</text>
<rect x="484.0" y="284.0" width="72.0" height="72.0" fill="#b2d6fd" stroke="#ffffff" stroke-width="1"/>
<text x="520.0" y="324.0" text-anchor="middle" font-size="12" fill="#0f172a">0.34</text>
<rect x="556.0" y="284.0" width="72.0" height="72.0" fill="#a7d0fd" stroke="#ffffff" stroke-width="1"/>
<text x="592.0" y="324.0" text-anchor="middle" font-size="12" fill="#0f172a">0.40</text>
<rect x="628.0" y="284.0" width="72.0" height="72.0" fill="#b0d4fd" stroke="#ffffff" stroke-width="1"/>
<text x="664.0" y="324.0" text-anchor="middle" font-size="12" fill="#0f172a">0.36</text>
<rect x="700.0" y="284.0" width="72.0" height="72.0" fill="#bfdcfd" stroke="#ffffff" stroke-width="1"/>
<text x="736.0" y="324.0" text-anchor="middle" font-size="12" fill="#0f172a">0.28</text>
<rect x="772.0" y="284.0" width="72.0" height="72.0" fill="#e2eefc" stroke="#ffffff" stroke-width="1"/>
<text x="808.0" y="324.0" text-anchor="middle" font-size="12" fill="#0f172a">0.11</text>
<rect x="844.0" y="284.0" width="72.0" height="72.0" fill="#dfedfc" stroke="#ffffff" stroke-width="1"/>
<text x="880.0" y="324.0" text-anchor="middle" font-size="12" fill="#0f172a">0.12</text>
<rect x="916.0" y="284.0" width="72.0" height="72.0" fill="#e4effc" stroke="#ffffff" stroke-width="1"/>
<text x="952.0" y="324.0" text-anchor="middle" font-size="12" fill="#0f172a">0.10</text>
<rect x="268.0" y="356.0" width="72.0" height="72.0" fill="#bedbfd" stroke="#ffffff" stroke-width="1"/>
<text x="304.0" y="396.0" text-anchor="middle" font-size="12" fill="#0f172a">0.29</text>
<rect x="340.0" y="356.0" width="72.0" height="72.0" fill="#9ccafd" stroke="#ffffff" stroke-width="1"/>
<text x="376.0" y="396.0" text-anchor="middle" font-size="12" fill="#0f172a">0.45</text>
<rect x="412.0" y="356.0" width="72.0" height="72.0" fill="#1d4ed8" stroke="#ffffff" stroke-width="1"/>
<text x="448.0" y="396.0" text-anchor="middle" font-size="12" fill="#ffffff">1.00</text>
<rect x="484.0" y="356.0" width="72.0" height="72.0" fill="#b4d7fd" stroke="#ffffff" stroke-width="1"/>
<text x="520.0" y="396.0" text-anchor="middle" font-size="12" fill="#0f172a">0.33</text>
<rect x="556.0" y="356.0" width="72.0" height="72.0" fill="#a5cffd" stroke="#ffffff" stroke-width="1"/>
<text x="592.0" y="396.0" text-anchor="middle" font-size="12" fill="#0f172a">0.41</text>
<rect x="628.0" y="356.0" width="72.0" height="72.0" fill="#abd1fd" stroke="#ffffff" stroke-width="1"/>
<text x="664.0" y="396.0" text-anchor="middle" font-size="12" fill="#0f172a">0.38</text>
<rect x="700.0" y="356.0" width="72.0" height="72.0" fill="#b7d8fd" stroke="#ffffff" stroke-width="1"/>
<text x="736.0" y="396.0" text-anchor="middle" font-size="12" fill="#0f172a">0.32</text>
<rect x="772.0" y="356.0" width="72.0" height="72.0" fill="#e4effc" stroke="#ffffff" stroke-width="1"/>
<text x="808.0" y="396.0" text-anchor="middle" font-size="12" fill="#0f172a">0.10</text>
<rect x="844.0" y="356.0" width="72.0" height="72.0" fill="#e3effc" stroke="#ffffff" stroke-width="1"/>
<text x="880.0" y="396.0" text-anchor="middle" font-size="12" fill="#0f172a">0.10</text>
<rect x="916.0" y="356.0" width="72.0" height="72.0" fill="#e0edfc" stroke="#ffffff" stroke-width="1"/>
<text x="952.0" y="396.0" text-anchor="middle" font-size="12" fill="#0f172a">0.12</text>
<rect x="268.0" y="428.0" width="72.0" height="72.0" fill="#c0dcfd" stroke="#ffffff" stroke-width="1"/>
<text x="304.0" y="468.0" text-anchor="middle" font-size="12" fill="#0f172a">0.28</text>
<rect x="340.0" y="428.0" width="72.0" height="72.0" fill="#b2d6fd" stroke="#ffffff" stroke-width="1"/>
<text x="376.0" y="468.0" text-anchor="middle" font-size="12" fill="#0f172a">0.34</text>
<rect x="412.0" y="428.0" width="72.0" height="72.0" fill="#b4d7fd" stroke="#ffffff" stroke-width="1"/>
<text x="448.0" y="468.0" text-anchor="middle" font-size="12" fill="#0f172a">0.33</text>
<rect x="484.0" y="428.0" width="72.0" height="72.0" fill="#1d4ed8" stroke="#ffffff" stroke-width="1"/>
<text x="520.0" y="468.0" text-anchor="middle" font-size="12" fill="#ffffff">1.00</text>
<rect x="556.0" y="428.0" width="72.0" height="72.0" fill="#9ac9fd" stroke="#ffffff" stroke-width="1"/>
<text x="592.0" y="468.0" text-anchor="middle" font-size="12" fill="#0f172a">0.47</text>
<rect x="628.0" y="428.0" width="72.0" height="72.0" fill="#99c8fd" stroke="#ffffff" stroke-width="1"/>
<text x="664.0" y="468.0" text-anchor="middle" font-size="12" fill="#0f172a">0.47</text>
<rect x="700.0" y="428.0" width="72.0" height="72.0" fill="#9dcafd" stroke="#ffffff" stroke-width="1"/>
<text x="736.0" y="468.0" text-anchor="middle" font-size="12" fill="#0f172a">0.45</text>
<rect x="772.0" y="428.0" width="72.0" height="72.0" fill="#c8e1fc" stroke="#ffffff" stroke-width="1"/>
<text x="808.0" y="468.0" text-anchor="middle" font-size="12" fill="#0f172a">0.24</text>
<rect x="844.0" y="428.0" width="72.0" height="72.0" fill="#c4dffd" stroke="#ffffff" stroke-width="1"/>
<text x="880.0" y="468.0" text-anchor="middle" font-size="12" fill="#0f172a">0.26</text>
<rect x="916.0" y="428.0" width="72.0" height="72.0" fill="#bfdcfd" stroke="#ffffff" stroke-width="1"/>
<text x="952.0" y="468.0" text-anchor="middle" font-size="12" fill="#0f172a">0.28</text>
<rect x="268.0" y="500.0" width="72.0" height="72.0" fill="#bcdafd" stroke="#ffffff" stroke-width="1"/>
<text x="304.0" y="540.0" text-anchor="middle" font-size="12" fill="#0f172a">0.30</text>
<rect x="340.0" y="500.0" width="72.0" height="72.0" fill="#a7d0fd" stroke="#ffffff" stroke-width="1"/>
<text x="376.0" y="540.0" text-anchor="middle" font-size="12" fill="#0f172a">0.40</text>
<rect x="412.0" y="500.0" width="72.0" height="72.0" fill="#a5cffd" stroke="#ffffff" stroke-width="1"/>
<text x="448.0" y="540.0" text-anchor="middle" font-size="12" fill="#0f172a">0.41</text>
<rect x="484.0" y="500.0" width="72.0" height="72.0" fill="#9ac9fd" stroke="#ffffff" stroke-width="1"/>
<text x="520.0" y="540.0" text-anchor="middle" font-size="12" fill="#0f172a">0.47</text>
<rect x="556.0" y="500.0" width="72.0" height="72.0" fill="#1d4ed8" stroke="#ffffff" stroke-width="1"/>
<text x="592.0" y="540.0" text-anchor="middle" font-size="12" fill="#ffffff">1.00</text>
<rect x="628.0" y="500.0" width="72.0" height="72.0" fill="#90c2fc" stroke="#ffffff" stroke-width="1"/>
<text x="664.0" y="540.0" text-anchor="middle" font-size="12" fill="#0f172a">0.51</text>
<rect x="700.0" y="500.0" width="72.0" height="72.0" fill="#9dcafd" stroke="#ffffff" stroke-width="1"/>
<text x="736.0" y="540.0" text-anchor="middle" font-size="12" fill="#0f172a">0.45</text>
<rect x="772.0" y="500.0" width="72.0" height="72.0" fill="#d2e6fc" stroke="#ffffff" stroke-width="1"/>
<text x="808.0" y="540.0" text-anchor="middle" font-size="12" fill="#0f172a">0.19</text>
<rect x="844.0" y="500.0" width="72.0" height="72.0" fill="#cee4fc" stroke="#ffffff" stroke-width="1"/>
<text x="880.0" y="540.0" text-anchor="middle" font-size="12" fill="#0f172a">0.21</text>
<rect x="916.0" y="500.0" width="72.0" height="72.0" fill="#cae2fc" stroke="#ffffff" stroke-width="1"/>
<text x="952.0" y="540.0" text-anchor="middle" font-size="12" fill="#0f172a">0.23</text>
<rect x="268.0" y="572.0" width="72.0" height="72.0" fill="#bfdcfd" stroke="#ffffff" stroke-width="1"/>
<text x="304.0" y="612.0" text-anchor="middle" font-size="12" fill="#0f172a">0.28</text>
<rect x="340.0" y="572.0" width="72.0" height="72.0" fill="#b0d4fd" stroke="#ffffff" stroke-width="1"/>
<text x="376.0" y="612.0" text-anchor="middle" font-size="12" fill="#0f172a">0.36</text>
<rect x="412.0" y="572.0" width="72.0" height="72.0" fill="#abd1fd" stroke="#ffffff" stroke-width="1"/>
<text x="448.0" y="612.0" text-anchor="middle" font-size="12" fill="#0f172a">0.38</text>
<rect x="484.0" y="572.0" width="72.0" height="72.0" fill="#99c8fd" stroke="#ffffff" stroke-width="1"/>
<text x="520.0" y="612.0" text-anchor="middle" font-size="12" fill="#0f172a">0.47</text>
<rect x="556.0" y="572.0" width="72.0" height="72.0" fill="#90c2fc" stroke="#ffffff" stroke-width="1"/>
<text x="592.0" y="612.0" text-anchor="middle" font-size="12" fill="#0f172a">0.51</text>
<rect x="628.0" y="572.0" width="72.0" height="72.0" fill="#1d4ed8" stroke="#ffffff" stroke-width="1"/>
<text x="664.0" y="612.0" text-anchor="middle" font-size="12" fill="#ffffff">1.00</text>
<rect x="700.0" y="572.0" width="72.0" height="72.0" fill="#93c5fd" stroke="#ffffff" stroke-width="1"/>
<text x="736.0" y="612.0" text-anchor="middle" font-size="12" fill="#0f172a">0.50</text>
<rect x="772.0" y="572.0" width="72.0" height="72.0" fill="#cae2fc" stroke="#ffffff" stroke-width="1"/>
<text x="808.0" y="612.0" text-anchor="middle" font-size="12" fill="#0f172a">0.23</text>
<rect x="844.0" y="572.0" width="72.0" height="72.0" fill="#c5dffd" stroke="#ffffff" stroke-width="1"/>
<text x="880.0" y="612.0" text-anchor="middle" font-size="12" fill="#0f172a">0.25</text>
<rect x="916.0" y="572.0" width="72.0" height="72.0" fill="#c4dffd" stroke="#ffffff" stroke-width="1"/>
<text x="952.0" y="612.0" text-anchor="middle" font-size="12" fill="#0f172a">0.26</text>
<rect x="268.0" y="644.0" width="72.0" height="72.0" fill="#c1ddfd" stroke="#ffffff" stroke-width="1"/>
<text x="304.0" y="684.0" text-anchor="middle" font-size="12" fill="#0f172a">0.27</text>
<rect x="340.0" y="644.0" width="72.0" height="72.0" fill="#bfdcfd" stroke="#ffffff" stroke-width="1"/>
<text x="376.0" y="684.0" text-anchor="middle" font-size="12" fill="#0f172a">0.28</text>
<rect x="412.0" y="644.0" width="72.0" height="72.0" fill="#b7d8fd" stroke="#ffffff" stroke-width="1"/>
<text x="448.0" y="684.0" text-anchor="middle" font-size="12" fill="#0f172a">0.32</text>
<rect x="484.0" y="644.0" width="72.0" height="72.0" fill="#9dcafd" stroke="#ffffff" stroke-width="1"/>
<text x="520.0" y="684.0" text-anchor="middle" font-size="12" fill="#0f172a">0.45</text>
<rect x="556.0" y="644.0" width="72.0" height="72.0" fill="#9dcafd" stroke="#ffffff" stroke-width="1"/>
<text x="592.0" y="684.0" text-anchor="middle" font-size="12" fill="#0f172a">0.45</text>
<rect x="628.0" y="644.0" width="72.0" height="72.0" fill="#93c5fd" stroke="#ffffff" stroke-width="1"/>
<text x="664.0" y="684.0" text-anchor="middle" font-size="12" fill="#0f172a">0.50</text>
<rect x="700.0" y="644.0" width="72.0" height="72.0" fill="#1d4ed8" stroke="#ffffff" stroke-width="1"/>
<text x="736.0" y="684.0" text-anchor="middle" font-size="12" fill="#ffffff">1.00</text>
<rect x="772.0" y="644.0" width="72.0" height="72.0" fill="#bddbfd" stroke="#ffffff" stroke-width="1"/>
<text x="808.0" y="684.0" text-anchor="middle" font-size="12" fill="#0f172a">0.29</text>
<rect x="844.0" y="644.0" width="72.0" height="72.0" fill="#badafd" stroke="#ffffff" stroke-width="1"/>
<text x="880.0" y="684.0" text-anchor="middle" font-size="12" fill="#0f172a">0.31</text>
<rect x="916.0" y="644.0" width="72.0" height="72.0" fill="#b3d6fd" stroke="#ffffff" stroke-width="1"/>
<text x="952.0" y="684.0" text-anchor="middle" font-size="12" fill="#0f172a">0.34</text>
<rect x="268.0" y="716.0" width="72.0" height="72.0" fill="#c0dcfd" stroke="#ffffff" stroke-width="1"/>
<text x="304.0" y="756.0" text-anchor="middle" font-size="12" fill="#0f172a">0.28</text>
<rect x="340.0" y="716.0" width="72.0" height="72.0" fill="#e2eefc" stroke="#ffffff" stroke-width="1"/>
<text x="376.0" y="756.0" text-anchor="middle" font-size="12" fill="#0f172a">0.11</text>
<rect x="412.0" y="716.0" width="72.0" height="72.0" fill="#e4effc" stroke="#ffffff" stroke-width="1"/>
<text x="448.0" y="756.0" text-anchor="middle" font-size="12" fill="#0f172a">0.10</text>
<rect x="484.0" y="716.0" width="72.0" height="72.0" fill="#c8e1fc" stroke="#ffffff" stroke-width="1"/>
<text x="520.0" y="756.0" text-anchor="middle" font-size="12" fill="#0f172a">0.24</text>
<rect x="556.0" y="716.0" width="72.0" height="72.0" fill="#d2e6fc" stroke="#ffffff" stroke-width="1"/>
<text x="592.0" y="756.0" text-anchor="middle" font-size="12" fill="#0f172a">0.19</text>
<rect x="628.0" y="716.0" width="72.0" height="72.0" fill="#cae2fc" stroke="#ffffff" stroke-width="1"/>
<text x="664.0" y="756.0" text-anchor="middle" font-size="12" fill="#0f172a">0.23</text>
<rect x="700.0" y="716.0" width="72.0" height="72.0" fill="#bddbfd" stroke="#ffffff" stroke-width="1"/>
<text x="736.0" y="756.0" text-anchor="middle" font-size="12" fill="#0f172a">0.29</text>
<rect x="772.0" y="716.0" width="72.0" height="72.0" fill="#1d4ed8" stroke="#ffffff" stroke-width="1"/>
<text x="808.0" y="756.0" text-anchor="middle" font-size="12" fill="#ffffff">1.00</text>
<rect x="844.0" y="716.0" width="72.0" height="72.0" fill="#4d7ee7" stroke="#ffffff" stroke-width="1"/>
<text x="880.0" y="756.0" text-anchor="middle" font-size="12" fill="#ffffff">0.80</text>
<rect x="916.0" y="716.0" width="72.0" height="72.0" fill="#5a8beb" stroke="#ffffff" stroke-width="1"/>
<text x="952.0" y="756.0" text-anchor="middle" font-size="12" fill="#ffffff">0.74</text>
<rect x="268.0" y="788.0" width="72.0" height="72.0" fill="#bedcfd" stroke="#ffffff" stroke-width="1"/>
<text x="304.0" y="828.0" text-anchor="middle" font-size="12" fill="#0f172a">0.29</text>
<rect x="340.0" y="788.0" width="72.0" height="72.0" fill="#dfedfc" stroke="#ffffff" stroke-width="1"/>
<text x="376.0" y="828.0" text-anchor="middle" font-size="12" fill="#0f172a">0.12</text>
<rect x="412.0" y="788.0" width="72.0" height="72.0" fill="#e3effc" stroke="#ffffff" stroke-width="1"/>
<text x="448.0" y="828.0" text-anchor="middle" font-size="12" fill="#0f172a">0.10</text>
<rect x="484.0" y="788.0" width="72.0" height="72.0" fill="#c4dffd" stroke="#ffffff" stroke-width="1"/>
<text x="520.0" y="828.0" text-anchor="middle" font-size="12" fill="#0f172a">0.26</text>
<rect x="556.0" y="788.0" width="72.0" height="72.0" fill="#cee4fc" stroke="#ffffff" stroke-width="1"/>
<text x="592.0" y="828.0" text-anchor="middle" font-size="12" fill="#0f172a">0.21</text>
<rect x="628.0" y="788.0" width="72.0" height="72.0" fill="#c5dffd" stroke="#ffffff" stroke-width="1"/>
<text x="664.0" y="828.0" text-anchor="middle" font-size="12" fill="#0f172a">0.25</text>
<rect x="700.0" y="788.0" width="72.0" height="72.0" fill="#badafd" stroke="#ffffff" stroke-width="1"/>
<text x="736.0" y="828.0" text-anchor="middle" font-size="12" fill="#0f172a">0.31</text>
<rect x="772.0" y="788.0" width="72.0" height="72.0" fill="#4d7ee7" stroke="#ffffff" stroke-width="1"/>
<text x="808.0" y="828.0" text-anchor="middle" font-size="12" fill="#ffffff">0.80</text>
<rect x="844.0" y="788.0" width="72.0" height="72.0" fill="#1d4ed8" stroke="#ffffff" stroke-width="1"/>
<text x="880.0" y="828.0" text-anchor="middle" font-size="12" fill="#ffffff">1.00</text>
<rect x="916.0" y="788.0" width="72.0" height="72.0" fill="#5d8eec" stroke="#ffffff" stroke-width="1"/>
<text x="952.0" y="828.0" text-anchor="middle" font-size="12" fill="#ffffff">0.73</text>
<rect x="268.0" y="860.0" width="72.0" height="72.0" fill="#c0dcfd" stroke="#ffffff" stroke-width="1"/>
<text x="304.0" y="900.0" text-anchor="middle" font-size="12" fill="#0f172a">0.28</text>
<rect x="340.0" y="860.0" width="72.0" height="72.0" fill="#e4effc" stroke="#ffffff" stroke-width="1"/>
<text x="376.0" y="900.0" text-anchor="middle" font-size="12" fill="#0f172a">0.10</text>
<rect x="412.0" y="860.0" width="72.0" height="72.0" fill="#e0edfc" stroke="#ffffff" stroke-width="1"/>
<text x="448.0" y="900.0" text-anchor="middle" font-size="12" fill="#0f172a">0.12</text>
<rect x="484.0" y="860.0" width="72.0" height="72.0" fill="#bfdcfd" stroke="#ffffff" stroke-width="1"/>
<text x="520.0" y="900.0" text-anchor="middle" font-size="12" fill="#0f172a">0.28</text>
<rect x="556.0" y="860.0" width="72.0" height="72.0" fill="#cae2fc" stroke="#ffffff" stroke-width="1"/>
<text x="592.0" y="900.0" text-anchor="middle" font-size="12" fill="#0f172a">0.23</text>
<rect x="628.0" y="860.0" width="72.0" height="72.0" fill="#c4dffd" stroke="#ffffff" stroke-width="1"/>
<text x="664.0" y="900.0" text-anchor="middle" font-size="12" fill="#0f172a">0.26</text>
<rect x="700.0" y="860.0" width="72.0" height="72.0" fill="#b3d6fd" stroke="#ffffff" stroke-width="1"/>
<text x="736.0" y="900.0" text-anchor="middle" font-size="12" fill="#0f172a">0.34</text>
<rect x="772.0" y="860.0" width="72.0" height="72.0" fill="#5a8beb" stroke="#ffffff" stroke-width="1"/>
<text x="808.0" y="900.0" text-anchor="middle" font-size="12" fill="#ffffff">0.74</text>
<rect x="844.0" y="860.0" width="72.0" height="72.0" fill="#5d8eec" stroke="#ffffff" stroke-width="1"/>
<text x="880.0" y="900.0" text-anchor="middle" font-size="12" fill="#ffffff">0.73</text>
<rect x="916.0" y="860.0" width="72.0" height="72.0" fill="#1d4ed8" stroke="#ffffff" stroke-width="1"/>
<text x="952.0" y="900.0" text-anchor="middle" font-size="12" fill="#ffffff">1.00</text>
<line x1="340.0" y1="212.0" x2="340.0" y2="932.0" stroke="#0f172a" stroke-width="1.2" opacity="0.35"/>
<line x1="268.0" y1="284.0" x2="988.0" y2="284.0" stroke="#0f172a" stroke-width="1.2" opacity="0.35"/>
<line x1="484.0" y1="212.0" x2="484.0" y2="932.0" stroke="#0f172a" stroke-width="1.2" opacity="0.35"/>
<line x1="268.0" y1="428.0" x2="988.0" y2="428.0" stroke="#0f172a" stroke-width="1.2" opacity="0.35"/>
<line x1="772.0" y1="212.0" x2="772.0" y2="932.0" stroke="#0f172a" stroke-width="1.2" opacity="0.35"/>
<line x1="268.0" y1="716.0" x2="988.0" y2="716.0" stroke="#0f172a" stroke-width="1.2" opacity="0.35"/>


<rect x="1030" y="212.0" width="18" height="36.5" fill="#1d4ed8"/>
<rect x="1030" y="248.0" width="18" height="36.5" fill="#295bdc"/>
<rect x="1030" y="284.0" width="18" height="36.5" fill="#3667e0"/>
<rect x="1030" y="320.0" width="18" height="36.5" fill="#4274e4"/>
<rect x="1030" y="356.0" width="18" height="36.5" fill="#4f80e8"/>
<rect x="1030" y="392.0" width="18" height="36.5" fill="#5b8deb"/>
<rect x="1030" y="428.0" width="18" height="36.5" fill="#6899ef"/>
<rect x="1030" y="464.0" width="18" height="36.5" fill="#74a6f3"/>
<rect x="1030" y="500.0" width="18" height="36.5" fill="#80b2f7"/>
<rect x="1030" y="536.0" width="18" height="36.5" fill="#8dbffb"/>
<rect x="1030" y="572.0" width="18" height="36.5" fill="#98c8fd"/>
<rect x="1030" y="608.0" width="18" height="36.5" fill="#a3cdfd"/>
<rect x="1030" y="644.0" width="18" height="36.5" fill="#aed3fd"/>
<rect x="1030" y="680.0" width="18" height="36.5" fill="#b8d9fd"/>
<rect x="1030" y="716.0" width="18" height="36.5" fill="#c3defd"/>
<rect x="1030" y="752.0" width="18" height="36.5" fill="#cde4fc"/>
<rect x="1030" y="788.0" width="18" height="36.5" fill="#d8e9fc"/>
<rect x="1030" y="824.0" width="18" height="36.5" fill="#e3effc"/>
<rect x="1030" y="860.0" width="18" height="36.5" fill="#edf4fc"/>
<rect x="1030" y="896.0" width="18" height="36.5" fill="#f8fafc"/>
<text x="1058" y="216.0" font-size="12" fill="#334155">1.0</text>
<text x="1058" y="932.0" font-size="12" fill="#334155">0.0</text>
<text x="1039" y="962.0" text-anchor="middle" font-size="13" fill="#334155">Jaccard</text>
</svg>


