<svg xmlns="http://www.w3.org/2000/svg" width="1000" height="370" viewBox="0 0 1000 370">
<rect width="100%" height="100%" fill="#ffffff"/>
<text x="500.0" y="32" text-anchor="middle" font-family="Arial, sans-serif" font-size="18" font-weight="600" fill="#0f172a">Benchmark Holdout Final PR-AUC, initial labels=40</text>
<text x="310" y="74" text-anchor="end" font-size="12" fill="#334155">Ensemble MI</text>
<rect x="320" y="58" width="630.0" height="18" rx="3" fill="#2563eb" opacity="0.82"/>
<text x="956.0" y="72" font-size="12" fill="#334155">0.922</text>
<text x="310" y="102" text-anchor="end" font-size="12" fill="#334155">Family QBC</text>
<rect x="320" y="86" width="629.4" height="18" rx="3" fill="#16a34a" opacity="0.82"/>
<text x="955.4" y="100" font-size="12" fill="#334155">0.921</text>
<text x="310" y="130" text-anchor="end" font-size="12" fill="#334155">Predictive entropy</text>
<rect x="320" y="114" width="628.0" height="18" rx="3" fill="#dc2626" opacity="0.82"/>
<text x="954.0" y="128" font-size="12" fill="#334155">0.919</text>
<text x="310" y="158" text-anchor="end" font-size="12" fill="#334155">OED logdet</text>
<rect x="320" y="142" width="627.6" height="18" rx="3" fill="#9333ea" opacity="0.82"/>
<text x="953.6" y="156" font-size="12" fill="#334155">0.918</text>
<text x="310" y="186" text-anchor="end" font-size="12" fill="#334155">Hybrid MI + diverse</text>
<rect x="320" y="170" width="626.7" height="18" rx="3" fill="#ea580c" opacity="0.82"/>
<text x="952.7" y="184" font-size="12" fill="#334155">0.917</text>
<text x="310" y="214" text-anchor="end" font-size="12" fill="#334155">Cluster-diverse</text>
<rect x="320" y="198" width="626.0" height="18" rx="3" fill="#0891b2" opacity="0.82"/>
<text x="952.0" y="212" font-size="12" fill="#334155">0.916</text>
<text x="310" y="242" text-anchor="end" font-size="12" fill="#334155">UCB</text>
<rect x="320" y="226" width="621.7" height="18" rx="3" fill="#4f46e5" opacity="0.82"/>
<text x="947.7" y="240" font-size="12" fill="#334155">0.910</text>
<text x="310" y="270" text-anchor="end" font-size="12" fill="#334155">Similarity-penalized mean</text>
<rect x="320" y="254" width="619.9" height="18" rx="3" fill="#65a30d" opacity="0.82"/>
<text x="945.9" y="268" font-size="12" fill="#334155">0.907</text>
<text x="310" y="298" text-anchor="end" font-size="12" fill="#334155">Mean</text>
<rect x="320" y="282" width="619.0" height="18" rx="3" fill="#be123c" opacity="0.82"/>
<text x="945.0" y="296" font-size="12" fill="#334155">0.906</text>
<text x="310" y="326" text-anchor="end" font-size="12" fill="#334155">Random</text>
<rect x="320" y="310" width="615.0" height="18" rx="3" fill="#0f766e" opacity="0.82"/>
<text x="941.0" y="324" font-size="12" fill="#334155">0.900</text>
</svg>
