<svg xmlns="http://www.w3.org/2000/svg" width="1160" height="508" viewBox="0 0 1160 508">
<rect width="100%" height="100%" fill="#ffffff"/>
<text x="660.0" y="32" text-anchor="middle" font-family="Arial, sans-serif" font-size="18" font-weight="600" fill="#0f172a">Benchmark Validation final F1 delta vs random, initial labels=40</text>
<line x1="320.0" y1="58" x2="320.0" y2="432" stroke="#e5e7eb"/>
<text x="320.0" y="450" text-anchor="middle" font-size="11" fill="#475569">-0.026</text>
<line x1="490.0" y1="58" x2="490.0" y2="432" stroke="#e5e7eb"/>
<text x="490.0" y="450" text-anchor="middle" font-size="11" fill="#475569">-0.014</text>
<line x1="660.0" y1="58" x2="660.0" y2="432" stroke="#e5e7eb"/>
<text x="660.0" y="450" text-anchor="middle" font-size="11" fill="#475569">-0.002</text>
<line x1="830.0" y1="58" x2="830.0" y2="432" stroke="#e5e7eb"/>
<text x="830.0" y="450" text-anchor="middle" font-size="11" fill="#475569">+0.010</text>
<line x1="1000.0" y1="58" x2="1000.0" y2="432" stroke="#e5e7eb"/>
<text x="1000.0" y="450" text-anchor="middle" font-size="11" fill="#475569">+0.022</text>
<line x1="689.3" y1="56" x2="689.3" y2="432" stroke="#64748b" stroke-width="1.2" stroke-dasharray="4 4"/>
<text x="689.3" y="468" text-anchor="middle" font-size="12" fill="#475569">random baseline</text>
<text x="1138" y="52" text-anchor="end" font-size="11" fill="#64748b">wins shown as folds beating random; n=5</text>
<text x="304" y="88" text-anchor="end" font-size="12" fill="#334155">Hybrid MI + diverse</text>
<text x="1138" y="107" text-anchor="end" font-size="11" fill="#64748b">3/5 wins</text>
<line x1="689.3" y1="102" x2="934.2" y2="102" stroke="#2563eb" stroke-width="4" opacity="0.72"/>
<circle cx="934.2" cy="102" r="5" fill="#2563eb"/>
<text x="942.2" y="107" text-anchor="start" font-size="12" fill="#334155">+0.017</text>
<text x="304" y="130" text-anchor="end" font-size="12" fill="#334155">Family QBC</text>
<text x="1138" y="149" text-anchor="end" font-size="11" fill="#64748b">4/5 wins</text>
<line x1="689.3" y1="144" x2="879.0" y2="144" stroke="#2563eb" stroke-width="4" opacity="0.72"/>
<circle cx="879.0" cy="144" r="5" fill="#2563eb"/>
<text x="887.0" y="149" text-anchor="start" font-size="12" fill="#334155">+0.013</text>
<text x="304" y="172" text-anchor="end" font-size="12" fill="#334155">Ensemble MI</text>
<text x="1138" y="191" text-anchor="end" font-size="11" fill="#64748b">3/5 wins</text>
<line x1="689.3" y1="186" x2="820.7" y2="186" stroke="#2563eb" stroke-width="4" opacity="0.72"/>
<circle cx="820.7" cy="186" r="5" fill="#2563eb"/>
<text x="828.7" y="191" text-anchor="start" font-size="12" fill="#334155">+0.009</text>
<text x="304" y="214" text-anchor="end" font-size="12" fill="#334155">Predictive entropy</text>
<text x="1138" y="233" text-anchor="end" font-size="11" fill="#64748b">3/5 wins</text>
<line x1="689.3" y1="228" x2="818.0" y2="228" stroke="#2563eb" stroke-width="4" opacity="0.72"/>
<circle cx="818.0" cy="228" r="5" fill="#2563eb"/>
<text x="826.0" y="233" text-anchor="start" font-size="12" fill="#334155">+0.009</text>
<text x="304" y="256" text-anchor="end" font-size="12" fill="#334155">OED logdet</text>
<text x="1138" y="275" text-anchor="end" font-size="11" fill="#64748b">3/5 wins</text>
<line x1="689.3" y1="270" x2="796.4" y2="270" stroke="#2563eb" stroke-width="4" opacity="0.72"/>
<circle cx="796.4" cy="270" r="5" fill="#2563eb"/>
<text x="804.4" y="275" text-anchor="start" font-size="12" fill="#334155">+0.008</text>
<text x="304" y="298" text-anchor="end" font-size="12" fill="#334155">Cluster-diverse</text>
<text x="1138" y="317" text-anchor="end" font-size="11" fill="#64748b">3/5 wins</text>
<line x1="689.3" y1="312" x2="747.8" y2="312" stroke="#2563eb" stroke-width="4" opacity="0.72"/>
<circle cx="747.8" cy="312" r="5" fill="#2563eb"/>
<text x="755.8" y="317" text-anchor="start" font-size="12" fill="#334155">+0.004</text>
<text x="304" y="340" text-anchor="end" font-size="12" fill="#334155">Similarity-penalized mean</text>
<text x="1138" y="359" text-anchor="end" font-size="11" fill="#64748b">2/5 wins</text>
<line x1="689.3" y1="354" x2="557.8" y2="354" stroke="#dc2626" stroke-width="4" opacity="0.72"/>
<circle cx="557.8" cy="354" r="5" fill="#dc2626"/>
<text x="549.8" y="359" text-anchor="end" font-size="12" fill="#334155">-0.009</text>
<text x="304" y="382" text-anchor="end" font-size="12" fill="#334155">Mean</text>
<text x="1138" y="401" text-anchor="end" font-size="11" fill="#64748b">1/5 wins</text>
<line x1="689.3" y1="396" x2="460.8" y2="396" stroke="#dc2626" stroke-width="4" opacity="0.72"/>
<circle cx="460.8" cy="396" r="5" fill="#dc2626"/>
<text x="452.8" y="401" text-anchor="end" font-size="12" fill="#334155">-0.016</text>
<text x="304" y="424" text-anchor="end" font-size="12" fill="#334155">UCB</text>
<text x="1138" y="443" text-anchor="end" font-size="11" fill="#64748b">1/5 wins</text>
<line x1="689.3" y1="438" x2="385.8" y2="438" stroke="#dc2626" stroke-width="4" opacity="0.72"/>
<circle cx="385.8" cy="438" r="5" fill="#dc2626"/>
<text x="377.8" y="443" text-anchor="end" font-size="12" fill="#334155">-0.022</text>
<text x="660.0" y="492" text-anchor="middle" font-size="13" fill="#334155">Mean final F1 delta vs random after 20 replay rounds</text>
</svg>
