<svg xmlns="http://www.w3.org/2000/svg" width="1000" height="370" viewBox="0 0 1000 370">
<rect width="100%" height="100%" fill="#ffffff"/>
<text x="500.0" y="32" text-anchor="middle" font-family="Arial, sans-serif" font-size="18" font-weight="600" fill="#0f172a">Benchmark Validation labels to F1=0.86, initial labels=10</text>
<text x="310" y="74" text-anchor="end" font-size="12" fill="#334155">Predictive entropy</text>
<rect x="320" y="58" width="281.2" height="18" rx="3" fill="#2563eb" opacity="0.82"/>
<text x="607.2" y="72" font-size="12" fill="#334155">25.000</text>
<text x="310" y="102" text-anchor="end" font-size="12" fill="#334155">Cluster-diverse</text>
<rect x="320" y="86" width="323.4" height="18" rx="3" fill="#16a34a" opacity="0.82"/>
<text x="649.4" y="100" font-size="12" fill="#334155">28.750</text>
<text x="310" y="130" text-anchor="end" font-size="12" fill="#334155">Family QBC</text>
<rect x="320" y="114" width="382.5" height="18" rx="3" fill="#dc2626" opacity="0.82"/>
<text x="708.5" y="128" font-size="12" fill="#334155">34.000</text>
<text x="310" y="158" text-anchor="end" font-size="12" fill="#334155">Hybrid MI + diverse</text>
<rect x="320" y="142" width="416.2" height="18" rx="3" fill="#9333ea" opacity="0.82"/>
<text x="742.2" y="156" font-size="12" fill="#334155">37.000</text>
<text x="310" y="186" text-anchor="end" font-size="12" fill="#334155">Ensemble MI</text>
<rect x="320" y="170" width="472.5" height="18" rx="3" fill="#ea580c" opacity="0.82"/>
<text x="798.5" y="184" font-size="12" fill="#334155">42.000</text>
<text x="310" y="214" text-anchor="end" font-size="12" fill="#334155">Random</text>
<rect x="320" y="198" width="506.2" height="18" rx="3" fill="#0891b2" opacity="0.82"/>
<text x="832.2" y="212" font-size="12" fill="#334155">45.000</text>
<text x="310" y="242" text-anchor="end" font-size="12" fill="#334155">OED logdet</text>
<rect x="320" y="226" width="551.2" height="18" rx="3" fill="#4f46e5" opacity="0.82"/>
<text x="877.2" y="240" font-size="12" fill="#334155">49.000</text>
<text x="310" y="270" text-anchor="end" font-size="12" fill="#334155">Similarity-penalized mean</text>
<rect x="320" y="254" width="562.5" height="18" rx="3" fill="#65a30d" opacity="0.82"/>
<text x="888.5" y="268" font-size="12" fill="#334155">50.000</text>
<text x="310" y="298" text-anchor="end" font-size="12" fill="#334155">UCB</text>
<rect x="320" y="282" width="576.6" height="18" rx="3" fill="#be123c" opacity="0.82"/>
<text x="902.6" y="296" font-size="12" fill="#334155">51.250</text>
<text x="310" y="326" text-anchor="end" font-size="12" fill="#334155">Mean</text>
<rect x="320" y="310" width="630.0" height="18" rx="3" fill="#0f766e" opacity="0.82"/>
<text x="956.0" y="324" font-size="12" fill="#334155">56.000</text>
</svg>
