<svg xmlns="http://www.w3.org/2000/svg" width="1280" height="558" viewBox="0 0 1280 558">
<rect width="100%" height="100%" fill="#ffffff"/>
<text x="788.0" y="32" text-anchor="middle" font-family="Arial, sans-serif" font-size="18" font-weight="600" fill="#0f172a">Benchmark Holdout labels needed vs random to F1=0.86 (initial labels=40)</text>
<rect x="814" y="47" width="12" height="12" fill="#2563eb" opacity="0.72"/>
<text x="832" y="58" font-size="11" fill="#334155">fewer labels than random</text>
<rect x="1104" y="47" width="12" height="12" fill="#dc2626" opacity="0.72"/>
<text x="1122" y="58" font-size="11" fill="#334155">more labels</text>
<line x1="330.0" y1="82" x2="330.0" y2="472" stroke="#e5e7eb"/>
<text x="330.0" y="490" text-anchor="middle" font-size="11" fill="#475569">-4</text>
<line x1="492.5" y1="82" x2="492.5" y2="472" stroke="#e5e7eb"/>
<text x="492.5" y="490" text-anchor="middle" font-size="11" fill="#475569">+6</text>
<line x1="655.0" y1="82" x2="655.0" y2="472" stroke="#e5e7eb"/>
<text x="655.0" y="490" text-anchor="middle" font-size="11" fill="#475569">+16</text>
<line x1="817.5" y1="82" x2="817.5" y2="472" stroke="#e5e7eb"/>
<text x="817.5" y="490" text-anchor="middle" font-size="11" fill="#475569">+26</text>
<line x1="980.0" y1="82" x2="980.0" y2="472" stroke="#e5e7eb"/>
<text x="980.0" y="490" text-anchor="middle" font-size="11" fill="#475569">+36</text>
<line x1="401.1" y1="80" x2="401.1" y2="472" stroke="#64748b" stroke-width="1.2" stroke-dasharray="4 4"/>
<text x="401.1" y="508" text-anchor="middle" font-size="12" fill="#475569">random baseline</text>
<text x="312" y="128" text-anchor="end" font-size="12" fill="#334155">Ensemble MI</text>
<line x1="401.1" y1="124" x2="441.2" y2="124" stroke="#dc2626" stroke-width="4" opacity="0.72"/>
<circle cx="441.2" cy="124" r="5" fill="#dc2626"/>
<text x="1246" y="128" text-anchor="end" font-size="12" fill="#dc2626">+2.5 labels (+3%, 2/5 folds)</text>
<text x="312" y="172" text-anchor="end" font-size="12" fill="#334155">Mean</text>
<line x1="401.1" y1="168" x2="481.3" y2="168" stroke="#dc2626" stroke-width="4" opacity="0.72"/>
<circle cx="481.3" cy="168" r="5" fill="#dc2626"/>
<text x="1246" y="172" text-anchor="end" font-size="12" fill="#dc2626">+5 labels (+7%, 1/5 folds)</text>
<text x="312" y="216" text-anchor="end" font-size="12" fill="#334155">Cluster-diverse</text>
<line x1="401.1" y1="212" x2="501.3" y2="212" stroke="#dc2626" stroke-width="4" opacity="0.72"/>
<circle cx="501.3" cy="212" r="5" fill="#dc2626"/>
<text x="1246" y="216" text-anchor="end" font-size="12" fill="#dc2626">+6.2 labels (+8%, 4/5 folds)</text>
<text x="312" y="260" text-anchor="end" font-size="12" fill="#334155">OED logdet</text>
<line x1="401.1" y1="256" x2="508.0" y2="256" stroke="#dc2626" stroke-width="4" opacity="0.72"/>
<circle cx="508.0" cy="256" r="5" fill="#dc2626"/>
<text x="1246" y="260" text-anchor="end" font-size="12" fill="#dc2626">+6.7 labels (+9%, 3/5 folds)</text>
<text x="312" y="304" text-anchor="end" font-size="12" fill="#334155">UCB</text>
<line x1="401.1" y1="300" x2="601.5" y2="300" stroke="#dc2626" stroke-width="4" opacity="0.72"/>
<circle cx="601.5" cy="300" r="5" fill="#dc2626"/>
<text x="1246" y="304" text-anchor="end" font-size="12" fill="#dc2626">+12.5 labels (+17%, 2/5 folds)</text>
<text x="312" y="348" text-anchor="end" font-size="12" fill="#334155">Similarity-penalized mean</text>
<line x1="401.1" y1="344" x2="721.8" y2="344" stroke="#dc2626" stroke-width="4" opacity="0.72"/>
<circle cx="721.8" cy="344" r="5" fill="#dc2626"/>
<text x="1246" y="348" text-anchor="end" font-size="12" fill="#dc2626">+20 labels (+27%, 2/5 folds)</text>
<text x="312" y="392" text-anchor="end" font-size="12" fill="#334155">Family QBC</text>
<line x1="401.1" y1="388" x2="741.9" y2="388" stroke="#dc2626" stroke-width="4" opacity="0.72"/>
<circle cx="741.9" cy="388" r="5" fill="#dc2626"/>
<text x="1246" y="392" text-anchor="end" font-size="12" fill="#dc2626">+21.2 labels (+28%, 4/5 folds)</text>
<text x="312" y="436" text-anchor="end" font-size="12" fill="#334155">Hybrid MI + diverse</text>
<line x1="401.1" y1="432" x2="802.0" y2="432" stroke="#dc2626" stroke-width="4" opacity="0.72"/>
<circle cx="802.0" cy="432" r="5" fill="#dc2626"/>
<text x="1246" y="436" text-anchor="end" font-size="12" fill="#dc2626">+25 labels (+33%, 2/5 folds)</text>
<text x="312" y="480" text-anchor="end" font-size="12" fill="#334155">Predictive entropy</text>
<line x1="401.1" y1="476" x2="908.9" y2="476" stroke="#dc2626" stroke-width="4" opacity="0.72"/>
<circle cx="908.9" cy="476" r="5" fill="#dc2626"/>
<text x="1246" y="480" text-anchor="end" font-size="12" fill="#dc2626">+31.7 labels (+42%, 3/5 folds)</text>
<text x="788.0" y="542" text-anchor="middle" font-size="13" fill="#334155">Additional labeled peptides vs random to reach target F1</text>
</svg>
