<svg xmlns="http://www.w3.org/2000/svg" width="1180" height="488" viewBox="0 0 1180 488">
<rect width="100%" height="100%" fill="#ffffff"/>
<text x="670.0" y="32" text-anchor="middle" font-family="Arial, sans-serif" font-size="18" font-weight="600" fill="#0f172a">Benchmark Holdout Final F1, initial labels=10</text>
<text x="670.0" y="54" text-anchor="middle" font-size="12" fill="#64748b">Dots show mean across 5 outer folds; whiskers and labels show SD. Higher is better unless stated otherwise.</text>
<line x1="330.0" y1="74" x2="330.0" y2="418" stroke="#e5e7eb"/>
<text x="330.0" y="436" text-anchor="middle" font-size="11" fill="#475569">0.736</text>
<line x1="500.0" y1="74" x2="500.0" y2="418" stroke="#e5e7eb"/>
<text x="500.0" y="436" text-anchor="middle" font-size="11" fill="#475569">0.782</text>
<line x1="670.0" y1="74" x2="670.0" y2="418" stroke="#e5e7eb"/>
<text x="670.0" y="436" text-anchor="middle" font-size="11" fill="#475569">0.829</text>
<line x1="840.0" y1="74" x2="840.0" y2="418" stroke="#e5e7eb"/>
<text x="840.0" y="436" text-anchor="middle" font-size="11" fill="#475569">0.875</text>
<line x1="1010.0" y1="74" x2="1010.0" y2="418" stroke="#e5e7eb"/>
<text x="1010.0" y="436" text-anchor="middle" font-size="11" fill="#475569">0.921</text>
<line x1="330" y1="418" x2="1010" y2="418" stroke="#334155"/>
<line x1="646.1" y1="74" x2="646.1" y2="418" stroke="#475569" stroke-width="1.3" stroke-dasharray="5 5"/>
<text x="646.1" y="64" text-anchor="middle" font-size="11" fill="#475569">random</text>
<text x="318" y="97" text-anchor="end" font-size="12" font-weight="600" fill="#334155">Cluster-diverse</text>
<line x1="330" y1="92" x2="1010" y2="92" stroke="#f1f5f9"/>
<line x1="708.7" y1="92" x2="818.6" y2="92" stroke="#16a34a" stroke-width="2" opacity="0.45"/>
<line x1="708.7" y1="88" x2="708.7" y2="96" stroke="#16a34a" stroke-width="1.5" opacity="0.45"/>
<line x1="818.6" y1="88" x2="818.6" y2="96" stroke="#16a34a" stroke-width="1.5" opacity="0.45"/>
<circle cx="763.7" cy="92" r="5.5" fill="#16a34a"/>
<text x="775.7" y="83.0" font-size="12" fill="#0f172a">0.854</text>
<text x="826.6" y="96" font-size="10.5" fill="#64748b">SD 0.015</text>
<text x="318" y="133" text-anchor="end" font-size="12" font-weight="600" fill="#334155">Family QBC</text>
<line x1="330" y1="128" x2="1010" y2="128" stroke="#f1f5f9"/>
<line x1="607.3" y1="128" x2="892.8" y2="128" stroke="#7c3aed" stroke-width="2" opacity="0.45"/>
<line x1="607.3" y1="124" x2="607.3" y2="132" stroke="#7c3aed" stroke-width="1.5" opacity="0.45"/>
<line x1="892.8" y1="124" x2="892.8" y2="132" stroke="#7c3aed" stroke-width="1.5" opacity="0.45"/>
<circle cx="750.1" cy="128" r="5.5" fill="#7c3aed"/>
<text x="762.1" y="141.0" font-size="12" fill="#0f172a">0.851</text>
<text x="900.8" y="132" font-size="10.5" fill="#64748b">SD 0.039</text>
<text x="318" y="169" text-anchor="end" font-size="12" font-weight="600" fill="#334155">Predictive entropy</text>
<line x1="330" y1="164" x2="1010" y2="164" stroke="#f1f5f9"/>
<line x1="642.6" y1="164" x2="826.0" y2="164" stroke="#2563eb" stroke-width="2" opacity="0.45"/>
<line x1="642.6" y1="160" x2="642.6" y2="168" stroke="#2563eb" stroke-width="1.5" opacity="0.45"/>
<line x1="826.0" y1="160" x2="826.0" y2="168" stroke="#2563eb" stroke-width="1.5" opacity="0.45"/>
<circle cx="734.3" cy="164" r="5.5" fill="#2563eb"/>
<text x="746.3" y="155.0" font-size="12" fill="#0f172a">0.846</text>
<text x="834.0" y="168" font-size="10.5" fill="#64748b">SD 0.025</text>
<text x="318" y="205" text-anchor="end" font-size="12" font-weight="400" fill="#334155">Hybrid MI + diverse</text>
<line x1="330" y1="200" x2="1010" y2="200" stroke="#f1f5f9"/>
<line x1="584.3" y1="200" x2="817.7" y2="200" stroke="#ea580c" stroke-width="2" opacity="0.45"/>
<line x1="584.3" y1="196" x2="584.3" y2="204" stroke="#ea580c" stroke-width="1.5" opacity="0.45"/>
<line x1="817.7" y1="196" x2="817.7" y2="204" stroke="#ea580c" stroke-width="1.5" opacity="0.45"/>
<circle cx="701.0" cy="200" r="5.5" fill="#ea580c"/>
<text x="713.0" y="213.0" font-size="12" fill="#0f172a">0.837</text>
<text x="825.7" y="204" font-size="10.5" fill="#64748b">SD 0.032</text>
<text x="318" y="241" text-anchor="end" font-size="12" font-weight="400" fill="#334155">OED logdet</text>
<line x1="330" y1="236" x2="1010" y2="236" stroke="#f1f5f9"/>
<line x1="627.7" y1="236" x2="771.7" y2="236" stroke="#ca8a04" stroke-width="2" opacity="0.45"/>
<line x1="627.7" y1="232" x2="627.7" y2="240" stroke="#ca8a04" stroke-width="1.5" opacity="0.45"/>
<line x1="771.7" y1="232" x2="771.7" y2="240" stroke="#ca8a04" stroke-width="1.5" opacity="0.45"/>
<circle cx="699.7" cy="236" r="5.5" fill="#ca8a04"/>
<text x="711.7" y="227.0" font-size="12" fill="#0f172a">0.837</text>
<text x="779.7" y="240" font-size="10.5" fill="#64748b">SD 0.020</text>
<text x="318" y="277" text-anchor="end" font-size="12" font-weight="400" fill="#334155">Ensemble MI</text>
<line x1="330" y1="272" x2="1010" y2="272" stroke="#f1f5f9"/>
<line x1="569.9" y1="272" x2="824.8" y2="272" stroke="#0891b2" stroke-width="2" opacity="0.45"/>
<line x1="569.9" y1="268" x2="569.9" y2="276" stroke="#0891b2" stroke-width="1.5" opacity="0.45"/>
<line x1="824.8" y1="268" x2="824.8" y2="276" stroke="#0891b2" stroke-width="1.5" opacity="0.45"/>
<circle cx="697.3" cy="272" r="5.5" fill="#0891b2"/>
<text x="709.3" y="285.0" font-size="12" fill="#0f172a">0.836</text>
<text x="832.8" y="276" font-size="10.5" fill="#64748b">SD 0.035</text>
<text x="318" y="313" text-anchor="end" font-size="12" font-weight="400" fill="#334155">Similarity-penalized mean</text>
<line x1="330" y1="308" x2="1010" y2="308" stroke="#f1f5f9"/>
<line x1="642.4" y1="308" x2="708.9" y2="308" stroke="#be123c" stroke-width="2" opacity="0.45"/>
<line x1="642.4" y1="304" x2="642.4" y2="312" stroke="#be123c" stroke-width="1.5" opacity="0.45"/>
<line x1="708.9" y1="304" x2="708.9" y2="312" stroke="#be123c" stroke-width="1.5" opacity="0.45"/>
<circle cx="675.7" cy="308" r="5.5" fill="#be123c"/>
<text x="687.7" y="299.0" font-size="12" fill="#0f172a">0.830</text>
<text x="716.9" y="312" font-size="10.5" fill="#64748b">SD 0.009</text>
<text x="318" y="349" text-anchor="end" font-size="12" font-weight="400" fill="#334155">Mean</text>
<line x1="330" y1="344" x2="1010" y2="344" stroke="#f1f5f9"/>
<line x1="549.3" y1="344" x2="762.0" y2="344" stroke="#64748b" stroke-width="2" opacity="0.45"/>
<line x1="549.3" y1="340" x2="549.3" y2="348" stroke="#64748b" stroke-width="1.5" opacity="0.45"/>
<line x1="762.0" y1="340" x2="762.0" y2="348" stroke="#64748b" stroke-width="1.5" opacity="0.45"/>
<circle cx="655.7" cy="344" r="5.5" fill="#64748b"/>
<text x="667.7" y="357.0" font-size="12" fill="#0f172a">0.825</text>
<text x="770.0" y="348" font-size="10.5" fill="#64748b">SD 0.029</text>
<text x="318" y="385" text-anchor="end" font-size="12" font-weight="600" fill="#334155">Random</text>
<line x1="330" y1="380" x2="1010" y2="380" stroke="#f1f5f9"/>
<line x1="487.2" y1="380" x2="804.9" y2="380" stroke="#475569" stroke-width="2" opacity="0.45"/>
<line x1="487.2" y1="376" x2="487.2" y2="384" stroke="#475569" stroke-width="1.5" opacity="0.45"/>
<line x1="804.9" y1="376" x2="804.9" y2="384" stroke="#475569" stroke-width="1.5" opacity="0.45"/>
<circle cx="646.1" cy="380" r="5.5" fill="#475569"/>
<text x="658.1" y="371.0" font-size="12" fill="#0f172a">0.822</text>
<text x="812.9" y="384" font-size="10.5" fill="#64748b">SD 0.043</text>
<text x="318" y="421" text-anchor="end" font-size="12" font-weight="400" fill="#334155">UCB</text>
<line x1="330" y1="416" x2="1010" y2="416" stroke="#f1f5f9"/>
<line x1="525.4" y1="416" x2="585.5" y2="416" stroke="#0f766e" stroke-width="2" opacity="0.45"/>
<line x1="525.4" y1="412" x2="525.4" y2="420" stroke="#0f766e" stroke-width="1.5" opacity="0.45"/>
<line x1="585.5" y1="412" x2="585.5" y2="420" stroke="#0f766e" stroke-width="1.5" opacity="0.45"/>
<circle cx="555.5" cy="416" r="5.5" fill="#0f766e"/>
<text x="567.5" y="429.0" font-size="12" fill="#0f172a">0.798</text>
<text x="593.5" y="420" font-size="10.5" fill="#64748b">SD 0.008</text>
<text x="670.0" y="472" text-anchor="middle" font-size="13" fill="#334155">Final F1</text>
</svg>
