<svg xmlns="http://www.w3.org/2000/svg" width="1100" height="450" viewBox="0 0 1100 450" role="img" aria-label="Mean labels required to reach holdout F1 0.86">
<rect width="100%" height="100%" fill="#ffffff"/>
<text x="250" y="30" font-family="Arial, Helvetica, sans-serif" font-size="18" font-weight="700" fill="#111827">Labels needed to reach holdout F1 &gt;= 0.86</text>
<text x="250" y="52" font-family="Arial, Helvetica, sans-serif" font-size="12" fill="#4b5563">Benchmark replay, ensemble-calibrated setup. Bars show mean labelled peptides across five overlapping outer folds.</text>
<rect x="250" y="66" width="12" height="9" fill="#2563eb" opacity="0.82"/><text x="268" y="75" font-family="Arial, Helvetica, sans-serif" font-size="11" fill="#374151">n0 = 10</text>
<rect x="342" y="66" width="12" height="9" fill="#f59e0b" opacity="0.82"/><text x="360" y="75" font-family="Arial, Helvetica, sans-serif" font-size="11" fill="#374151">n0 = 40</text>
<text x="454" y="75" font-family="Arial, Helvetica, sans-serif" font-size="11" fill="#6b7280">Lower is better. Labels include the initial labelled set.</text>
<line x1="250.0" y1="90" x2="250.0" y2="402" stroke="#e5e7eb" stroke-width="1"/>
<text x="250.0" y="422" text-anchor="middle" font-family="Arial, Helvetica, sans-serif" font-size="11" fill="#374151">0</text>
<line x1="379.7" y1="90" x2="379.7" y2="402" stroke="#e5e7eb" stroke-width="1"/>
<text x="379.7" y="422" text-anchor="middle" font-family="Arial, Helvetica, sans-serif" font-size="11" fill="#374151">20</text>
<line x1="509.3" y1="90" x2="509.3" y2="402" stroke="#e5e7eb" stroke-width="1"/>
<text x="509.3" y="422" text-anchor="middle" font-family="Arial, Helvetica, sans-serif" font-size="11" fill="#374151">40</text>
<line x1="639.0" y1="90" x2="639.0" y2="402" stroke="#e5e7eb" stroke-width="1"/>
<text x="639.0" y="422" text-anchor="middle" font-family="Arial, Helvetica, sans-serif" font-size="11" fill="#374151">60</text>
<line x1="768.7" y1="90" x2="768.7" y2="402" stroke="#e5e7eb" stroke-width="1"/>
<text x="768.7" y="422" text-anchor="middle" font-family="Arial, Helvetica, sans-serif" font-size="11" fill="#374151">80</text>
<line x1="898.3" y1="90" x2="898.3" y2="402" stroke="#e5e7eb" stroke-width="1"/>
<text x="898.3" y="422" text-anchor="middle" font-family="Arial, Helvetica, sans-serif" font-size="11" fill="#374151">100</text>
<line x1="1028.0" y1="90" x2="1028.0" y2="402" stroke="#e5e7eb" stroke-width="1"/>
<text x="1028.0" y="422" text-anchor="middle" font-family="Arial, Helvetica, sans-serif" font-size="11" fill="#374151">120</text>
<line x1="250" y1="402" x2="1028" y2="402" stroke="#111827" stroke-width="1"/>
<text x="238" y="110" text-anchor="end" font-family="Arial, Helvetica, sans-serif" font-size="11.5" font-weight="400" fill="#374151">Random</text>
<rect x="250" y="91" width="778" height="31" fill="#f9fafb" opacity="0.7"/>
<rect x="250" y="99" width="567.3" height="10" fill="#2563eb" opacity="0.82"/>
<text x="822.3" y="108" font-family="Arial, Helvetica, sans-serif" font-size="10.5" fill="#374151">87.5 (2/5)</text>
<rect x="250" y="111" width="486.2" height="10" fill="#f59e0b" opacity="0.82"/>
<text x="741.2" y="120" font-family="Arial, Helvetica, sans-serif" font-size="10.5" fill="#374151">75.0 (2/5)</text>
<text x="238" y="141" text-anchor="end" font-family="Arial, Helvetica, sans-serif" font-size="11.5" font-weight="400" fill="#374151">Ensemble mean</text>
<rect x="250" y="130" width="470.0" height="10" fill="#2563eb" opacity="0.82"/>
<text x="725.0" y="139" font-family="Arial, Helvetica, sans-serif" font-size="10.5" fill="#374151">72.5 (2/5)</text>
<rect x="250" y="142" width="518.7" height="10" fill="#f59e0b" opacity="0.82"/>
<text x="773.7" y="151" font-family="Arial, Helvetica, sans-serif" font-size="10.5" fill="#374151">80.0 (1/5)</text>
<text x="238" y="172" text-anchor="end" font-family="Arial, Helvetica, sans-serif" font-size="11.5" font-weight="400" fill="#374151">Similarity-penalized mean</text>
<rect x="250" y="153" width="778" height="31" fill="#f9fafb" opacity="0.7"/>
<rect x="250" y="161" width="405.2" height="10" fill="#2563eb" opacity="0.82"/>
<text x="660.2" y="170" font-family="Arial, Helvetica, sans-serif" font-size="10.5" fill="#374151">62.5 (2/5)</text>
<rect x="250" y="173" width="615.9" height="10" fill="#f59e0b" opacity="0.82"/>
<text x="870.9" y="182" font-family="Arial, Helvetica, sans-serif" font-size="10.5" fill="#374151">95.0 (2/5)</text>
<text x="238" y="203" text-anchor="end" font-family="Arial, Helvetica, sans-serif" font-size="11.5" font-weight="400" fill="#374151">Predictive entropy</text>
<rect x="250" y="192" width="380.9" height="10" fill="#2563eb" opacity="0.82"/>
<text x="635.9" y="201" font-family="Arial, Helvetica, sans-serif" font-size="10.5" fill="#374151">58.8 (4/5)</text>
<rect x="250" y="204" width="691.6" height="10" fill="#f59e0b" opacity="0.82"/>
<text x="946.6" y="213" font-family="Arial, Helvetica, sans-serif" font-size="10.5" fill="#374151">106.7 (3/5)</text>
<text x="238" y="234" text-anchor="end" font-family="Arial, Helvetica, sans-serif" font-size="11.5" font-weight="400" fill="#374151">Ensemble MI</text>
<rect x="250" y="215" width="778" height="31" fill="#f9fafb" opacity="0.7"/>
<rect x="250" y="223" width="572.7" height="10" fill="#2563eb" opacity="0.82"/>
<text x="827.7" y="232" font-family="Arial, Helvetica, sans-serif" font-size="10.5" fill="#374151">88.3 (3/5)</text>
<rect x="250" y="235" width="502.5" height="10" fill="#f59e0b" opacity="0.82"/>
<text x="757.5" y="244" font-family="Arial, Helvetica, sans-serif" font-size="10.5" fill="#374151">77.5 (2/5)</text>
<text x="238" y="265" text-anchor="end" font-family="Arial, Helvetica, sans-serif" font-size="11.5" font-weight="400" fill="#374151">UCB</text>
<rect x="250" y="254" width="421.4" height="10" fill="#2563eb" opacity="0.82"/>
<text x="676.4" y="263" font-family="Arial, Helvetica, sans-serif" font-size="10.5" fill="#374151">65.0 (1/5)</text>
<rect x="250" y="266" width="567.3" height="10" fill="#f59e0b" opacity="0.82"/>
<text x="822.3" y="275" font-family="Arial, Helvetica, sans-serif" font-size="10.5" fill="#374151">87.5 (2/5)</text>
<text x="238" y="296" text-anchor="end" font-family="Arial, Helvetica, sans-serif" font-size="11.5" font-weight="400" fill="#374151">Family QBC</text>
<rect x="250" y="277" width="778" height="31" fill="#f9fafb" opacity="0.7"/>
<rect x="250" y="285" width="389.0" height="10" fill="#2563eb" opacity="0.82"/>
<text x="644.0" y="294" font-family="Arial, Helvetica, sans-serif" font-size="10.5" fill="#374151">60.0 (3/5)</text>
<rect x="250" y="297" width="624.0" height="10" fill="#f59e0b" opacity="0.82"/>
<text x="879.0" y="306" font-family="Arial, Helvetica, sans-serif" font-size="10.5" fill="#374151">96.2 (4/5)</text>
<text x="238" y="327" text-anchor="end" font-family="Arial, Helvetica, sans-serif" font-size="11.5" font-weight="400" fill="#374151">Cluster-diverse rep.</text>
<rect x="250" y="316" width="518.7" height="10" fill="#2563eb" opacity="0.82"/>
<text x="773.7" y="325" font-family="Arial, Helvetica, sans-serif" font-size="10.5" fill="#374151">80.0 (3/5)</text>
<rect x="250" y="328" width="526.8" height="10" fill="#f59e0b" opacity="0.82"/>
<text x="781.8" y="337" font-family="Arial, Helvetica, sans-serif" font-size="10.5" fill="#374151">81.2 (4/5)</text>
<text x="238" y="358" text-anchor="end" font-family="Arial, Helvetica, sans-serif" font-size="11.5" font-weight="400" fill="#374151">OED logdet</text>
<rect x="250" y="339" width="778" height="31" fill="#f9fafb" opacity="0.7"/>
<rect x="250" y="347" width="615.9" height="10" fill="#2563eb" opacity="0.82"/>
<text x="870.9" y="356" font-family="Arial, Helvetica, sans-serif" font-size="10.5" fill="#374151">95.0 (2/5)</text>
<rect x="250" y="359" width="529.5" height="10" fill="#f59e0b" opacity="0.82"/>
<text x="784.5" y="368" font-family="Arial, Helvetica, sans-serif" font-size="10.5" fill="#374151">81.7 (3/5)</text>
<text x="238" y="389" text-anchor="end" font-family="Arial, Helvetica, sans-serif" font-size="11.5" font-weight="400" fill="#374151">Hybrid MI-diverse</text>
<rect x="250" y="378" width="605.1" height="10" fill="#2563eb" opacity="0.82"/>
<text x="860.1" y="387" font-family="Arial, Helvetica, sans-serif" font-size="10.5" fill="#374151">93.3 (3/5)</text>
<rect x="250" y="390" width="648.3" height="10" fill="#f59e0b" opacity="0.82"/>
<text x="903.3" y="399" font-family="Arial, Helvetica, sans-serif" font-size="10.5" fill="#374151">100.0 (2/5)</text>
<text x="639.0" y="438" text-anchor="middle" font-family="Arial, Helvetica, sans-serif" font-size="12" fill="#111827">Mean labelled peptides needed to first reach F1 &gt;= 0.86</text>
</svg>
