<svg xmlns="http://www.w3.org/2000/svg" width="1180" height="528" viewBox="0 0 1180 528">
<rect width="100%" height="100%" fill="#ffffff"/>
<text x="670.0" y="32" text-anchor="middle" font-family="Arial, sans-serif" font-size="18" font-weight="600" fill="#0f172a">Benchmark Holdout AULC-F1, initial labels=10</text>
<text x="670.0" y="54" text-anchor="middle" font-size="12" fill="#64748b">Dots show mean across 5 outer folds; whiskers and labels show SD. Higher is better unless stated otherwise.</text>
<line x1="330.0" y1="74" x2="330.0" y2="448" stroke="#e5e7eb"/>
<text x="330.0" y="466" text-anchor="middle" font-size="11" fill="#475569">0.745</text>
<line x1="500.0" y1="74" x2="500.0" y2="448" stroke="#e5e7eb"/>
<text x="500.0" y="466" text-anchor="middle" font-size="11" fill="#475569">0.779</text>
<line x1="670.0" y1="74" x2="670.0" y2="448" stroke="#e5e7eb"/>
<text x="670.0" y="466" text-anchor="middle" font-size="11" fill="#475569">0.813</text>
<line x1="840.0" y1="74" x2="840.0" y2="448" stroke="#e5e7eb"/>
<text x="840.0" y="466" text-anchor="middle" font-size="11" fill="#475569">0.848</text>
<line x1="1010.0" y1="74" x2="1010.0" y2="448" stroke="#e5e7eb"/>
<text x="1010.0" y="466" text-anchor="middle" font-size="11" fill="#475569">0.882</text>
<line x1="330" y1="448" x2="1010" y2="448" stroke="#334155"/>
<line x1="635.7" y1="74" x2="635.7" y2="448" stroke="#cbd5e1" stroke-width="0.8" stroke-dasharray="4 7" opacity="0.35"/>
<text x="318" y="97" text-anchor="end" font-size="12" font-weight="400" fill="#334155">Predictive entropy</text>
<line x1="330" y1="92" x2="1010" y2="92" stroke="#f1f5f9"/>
<line x1="652.3" y1="92" x2="836.7" y2="92" stroke="#2563eb" stroke-width="2" opacity="0.45"/>
<line x1="652.3" y1="88" x2="652.3" y2="96" stroke="#2563eb" stroke-width="1.5" opacity="0.45"/>
<line x1="836.7" y1="88" x2="836.7" y2="96" stroke="#2563eb" stroke-width="1.5" opacity="0.45"/>
<circle cx="744.5" cy="92" r="5.5" fill="#2563eb"/>
<text x="744.5" y="82.0" text-anchor="middle" font-size="12" fill="#0f172a">0.828</text>
<text x="844.7" y="96" font-size="10.5" fill="#64748b">SD 0.019</text>
<text x="318" y="133" text-anchor="end" font-size="12" font-weight="400" fill="#334155">Ensemble MI</text>
<line x1="330" y1="128" x2="1010" y2="128" stroke="#f1f5f9"/>
<line x1="605.9" y1="128" x2="745.7" y2="128" stroke="#0891b2" stroke-width="2" opacity="0.45"/>
<line x1="605.9" y1="124" x2="605.9" y2="132" stroke="#0891b2" stroke-width="1.5" opacity="0.45"/>
<line x1="745.7" y1="124" x2="745.7" y2="132" stroke="#0891b2" stroke-width="1.5" opacity="0.45"/>
<circle cx="675.8" cy="128" r="5.5" fill="#0891b2"/>
<text x="675.8" y="118.0" text-anchor="middle" font-size="12" fill="#0f172a">0.814</text>
<text x="753.7" y="132" font-size="10.5" fill="#64748b">SD 0.014</text>
<text x="318" y="169" text-anchor="end" font-size="12" font-weight="400" fill="#334155">Hybrid MI + diverse</text>
<line x1="330" y1="164" x2="1010" y2="164" stroke="#f1f5f9"/>
<line x1="560.4" y1="164" x2="772.5" y2="164" stroke="#ea580c" stroke-width="2" opacity="0.45"/>
<line x1="560.4" y1="160" x2="560.4" y2="168" stroke="#ea580c" stroke-width="1.5" opacity="0.45"/>
<line x1="772.5" y1="160" x2="772.5" y2="168" stroke="#ea580c" stroke-width="1.5" opacity="0.45"/>
<circle cx="666.5" cy="164" r="5.5" fill="#ea580c"/>
<text x="666.5" y="154.0" text-anchor="middle" font-size="12" fill="#0f172a">0.813</text>
<text x="780.5" y="168" font-size="10.5" fill="#64748b">SD 0.021</text>
<text x="318" y="205" text-anchor="end" font-size="12" font-weight="400" fill="#334155">Family QBC</text>
<line x1="330" y1="200" x2="1010" y2="200" stroke="#f1f5f9"/>
<line x1="540.3" y1="200" x2="771.3" y2="200" stroke="#7c3aed" stroke-width="2" opacity="0.45"/>
<line x1="540.3" y1="196" x2="540.3" y2="204" stroke="#7c3aed" stroke-width="1.5" opacity="0.45"/>
<line x1="771.3" y1="196" x2="771.3" y2="204" stroke="#7c3aed" stroke-width="1.5" opacity="0.45"/>
<circle cx="655.8" cy="200" r="5.5" fill="#7c3aed"/>
<text x="655.8" y="190.0" text-anchor="middle" font-size="12" fill="#0f172a">0.810</text>
<text x="779.3" y="204" font-size="10.5" fill="#64748b">SD 0.023</text>
<text x="318" y="241" text-anchor="end" font-size="12" font-weight="400" fill="#334155">Random</text>
<line x1="330" y1="236" x2="1010" y2="236" stroke="#f1f5f9"/>
<line x1="519.0" y1="236" x2="752.4" y2="236" stroke="#475569" stroke-width="2" opacity="0.45"/>
<line x1="519.0" y1="232" x2="519.0" y2="240" stroke="#475569" stroke-width="1.5" opacity="0.45"/>
<line x1="752.4" y1="232" x2="752.4" y2="240" stroke="#475569" stroke-width="1.5" opacity="0.45"/>
<circle cx="635.7" cy="236" r="5.5" fill="#475569"/>
<text x="635.7" y="226.0" text-anchor="middle" font-size="12" fill="#0f172a">0.806</text>
<text x="760.4" y="240" font-size="10.5" fill="#64748b">SD 0.024</text>
<text x="318" y="277" text-anchor="end" font-size="12" font-weight="400" fill="#334155">Cluster-diverse</text>
<line x1="330" y1="272" x2="1010" y2="272" stroke="#f1f5f9"/>
<line x1="472.8" y1="272" x2="792.6" y2="272" stroke="#16a34a" stroke-width="2" opacity="0.45"/>
<line x1="472.8" y1="268" x2="472.8" y2="276" stroke="#16a34a" stroke-width="1.5" opacity="0.45"/>
<line x1="792.6" y1="268" x2="792.6" y2="276" stroke="#16a34a" stroke-width="1.5" opacity="0.45"/>
<circle cx="632.7" cy="272" r="5.5" fill="#16a34a"/>
<text x="632.7" y="262.0" text-anchor="middle" font-size="12" fill="#0f172a">0.806</text>
<text x="800.6" y="276" font-size="10.5" fill="#64748b">SD 0.032</text>
<text x="318" y="313" text-anchor="end" font-size="12" font-weight="400" fill="#334155">OED logdet</text>
<line x1="330" y1="308" x2="1010" y2="308" stroke="#f1f5f9"/>
<line x1="472.7" y1="308" x2="784.9" y2="308" stroke="#ca8a04" stroke-width="2" opacity="0.45"/>
<line x1="472.7" y1="304" x2="472.7" y2="312" stroke="#ca8a04" stroke-width="1.5" opacity="0.45"/>
<line x1="784.9" y1="304" x2="784.9" y2="312" stroke="#ca8a04" stroke-width="1.5" opacity="0.45"/>
<circle cx="628.8" cy="308" r="5.5" fill="#ca8a04"/>
<text x="628.8" y="298.0" text-anchor="middle" font-size="12" fill="#0f172a">0.805</text>
<text x="792.9" y="312" font-size="10.5" fill="#64748b">SD 0.031</text>
<text x="318" y="349" text-anchor="end" font-size="12" font-weight="400" fill="#334155">UCB</text>
<line x1="330" y1="344" x2="1010" y2="344" stroke="#f1f5f9"/>
<line x1="497.4" y1="344" x2="711.5" y2="344" stroke="#0f766e" stroke-width="2" opacity="0.45"/>
<line x1="497.4" y1="340" x2="497.4" y2="348" stroke="#0f766e" stroke-width="1.5" opacity="0.45"/>
<line x1="711.5" y1="340" x2="711.5" y2="348" stroke="#0f766e" stroke-width="1.5" opacity="0.45"/>
<circle cx="604.4" cy="344" r="5.5" fill="#0f766e"/>
<text x="604.4" y="334.0" text-anchor="middle" font-size="12" fill="#0f172a">0.800</text>
<text x="719.5" y="348" font-size="10.5" fill="#64748b">SD 0.022</text>
<text x="318" y="385" text-anchor="end" font-size="12" font-weight="400" fill="#334155">Similarity-penalized mean</text>
<line x1="330" y1="380" x2="1010" y2="380" stroke="#f1f5f9"/>
<line x1="466.0" y1="380" x2="742.2" y2="380" stroke="#be123c" stroke-width="2" opacity="0.45"/>
<line x1="466.0" y1="376" x2="466.0" y2="384" stroke="#be123c" stroke-width="1.5" opacity="0.45"/>
<line x1="742.2" y1="376" x2="742.2" y2="384" stroke="#be123c" stroke-width="1.5" opacity="0.45"/>
<circle cx="604.1" cy="380" r="5.5" fill="#be123c"/>
<text x="604.1" y="370.0" text-anchor="middle" font-size="12" fill="#0f172a">0.800</text>
<text x="750.2" y="384" font-size="10.5" fill="#64748b">SD 0.028</text>
<text x="318" y="421" text-anchor="end" font-size="12" font-weight="400" fill="#334155">Mean</text>
<line x1="330" y1="416" x2="1010" y2="416" stroke="#f1f5f9"/>
<line x1="383.0" y1="416" x2="774.8" y2="416" stroke="#64748b" stroke-width="2" opacity="0.45"/>
<line x1="383.0" y1="412" x2="383.0" y2="420" stroke="#64748b" stroke-width="1.5" opacity="0.45"/>
<line x1="774.8" y1="412" x2="774.8" y2="420" stroke="#64748b" stroke-width="1.5" opacity="0.45"/>
<circle cx="578.9" cy="416" r="5.5" fill="#64748b"/>
<text x="578.9" y="406.0" text-anchor="middle" font-size="12" fill="#0f172a">0.795</text>
<text x="782.8" y="420" font-size="10.5" fill="#64748b">SD 0.040</text>
<text x="670.0" y="512" text-anchor="middle" font-size="13" fill="#334155">AULC-F1</text>
</svg>

