<svg xmlns="http://www.w3.org/2000/svg" width="1120" height="780" viewBox="0 0 1120 780">
<rect width="1120" height="780" fill="#ffffff"/>
<style>text{dominant-baseline:auto}.grid{stroke:#e2e8f0;stroke-width:1}.axis{stroke:#0f172a;stroke-width:2.2}</style>
<text x="310.0" y="368.0" text-anchor="middle" font-family="Arial, sans-serif" font-size="20" fill="#0f172a">Configuration</text>
<text x="17.0" y="195.0" text-anchor="middle" font-family="Arial, sans-serif" font-size="20" fill="#0f172a" transform="rotate(-90 17.0 195.0)">Mean normalised AULC-F1</text>
<line class="axis" x1="95" y1="274" x2="525" y2="274"/>
<line class="axis" x1="95" y1="70" x2="95" y2="274"/>
<line class="grid" x1="95" y1="261.0" x2="525" y2="261.0"/>
<text x="83.0" y="267.0" text-anchor="end" font-family="Arial, sans-serif" font-size="16" fill="#0f172a">0.800</text>
<line class="grid" x1="95" y1="224.8" x2="525" y2="224.8"/>
<text x="83.0" y="230.8" text-anchor="end" font-family="Arial, sans-serif" font-size="16" fill="#0f172a">0.805</text>
<line class="grid" x1="95" y1="188.6" x2="525" y2="188.6"/>
<text x="83.0" y="194.6" text-anchor="end" font-family="Arial, sans-serif" font-size="16" fill="#0f172a">0.810</text>
<line class="grid" x1="95" y1="152.4" x2="525" y2="152.4"/>
<text x="83.0" y="158.4" text-anchor="end" font-family="Arial, sans-serif" font-size="16" fill="#0f172a">0.815</text>
<line class="grid" x1="95" y1="116.2" x2="525" y2="116.2"/>
<text x="83.0" y="122.2" text-anchor="end" font-family="Arial, sans-serif" font-size="16" fill="#0f172a">0.820</text>
<line x1="153.0" y1="70" x2="153.0" y2="274" stroke="#f1f5f9" stroke-width="1"/>
<text x="153.0" y="297.0" text-anchor="middle" font-family="Arial, sans-serif" font-size="15" fill="#0f172a">Single</text>
<text x="153.0" y="315.0" text-anchor="middle" font-family="Arial, sans-serif" font-size="15" fill="#0f172a">raw</text>
<line x1="266.3" y1="70" x2="266.3" y2="274" stroke="#f1f5f9" stroke-width="1"/>
<text x="266.3" y="297.0" text-anchor="middle" font-family="Arial, sans-serif" font-size="15" fill="#0f172a">Single</text>
<text x="266.3" y="315.0" text-anchor="middle" font-family="Arial, sans-serif" font-size="15" fill="#0f172a">calibrated</text>
<line x1="379.7" y1="70" x2="379.7" y2="274" stroke="#f1f5f9" stroke-width="1"/>
<text x="379.7" y="297.0" text-anchor="middle" font-family="Arial, sans-serif" font-size="15" fill="#0f172a">Ensemble</text>
<text x="379.7" y="315.0" text-anchor="middle" font-family="Arial, sans-serif" font-size="15" fill="#0f172a">raw</text>
<line x1="493.0" y1="70" x2="493.0" y2="274" stroke="#f1f5f9" stroke-width="1"/>
<text x="493.0" y="297.0" text-anchor="middle" font-family="Arial, sans-serif" font-size="15" fill="#0f172a">Ensemble</text>
<text x="493.0" y="315.0" text-anchor="middle" font-family="Arial, sans-serif" font-size="15" fill="#0f172a">calibrated</text>
<circle cx="140.0" cy="241.5" r="6" fill="#0072B2" stroke="#ffffff" stroke-width="1.5"/>
<polygon points="166.0,131.7 172.0,137.7 166.0,143.7 160.0,137.7" fill="#D55E00" stroke="#ffffff" stroke-width="1.5"/>
<circle cx="253.3" cy="243.1" r="6" fill="#0072B2" stroke="#ffffff" stroke-width="1.5"/>
<polygon points="279.3,131.6 285.3,137.6 279.3,143.6 273.3,137.6" fill="#D55E00" stroke="#ffffff" stroke-width="1.5"/>
<circle cx="366.7" cy="203.4" r="6" fill="#0072B2" stroke="#ffffff" stroke-width="1.5"/>
<polygon points="392.7,131.3 398.7,137.3 392.7,143.3 386.7,137.3" fill="#D55E00" stroke="#ffffff" stroke-width="1.5"/>
<circle cx="480.0" cy="201.9" r="6" fill="#0072B2" stroke="#ffffff" stroke-width="1.5"/>
<polygon points="506.0,126.9 512.0,132.9 506.0,138.9 500.0,132.9" fill="#D55E00" stroke="#ffffff" stroke-width="1.5"/>
<text x="835.0" y="368.0" text-anchor="middle" font-family="Arial, sans-serif" font-size="20" fill="#0f172a">Configuration</text>
<text x="542.0" y="195.0" text-anchor="middle" font-family="Arial, sans-serif" font-size="20" fill="#0f172a" transform="rotate(-90 542.0 195.0)">Mean terminal F1</text>
<line class="axis" x1="620" y1="274" x2="1050" y2="274"/>
<line class="axis" x1="620" y1="70" x2="620" y2="274"/>
<line class="grid" x1="620" y1="246.8" x2="1050" y2="246.8"/>
<text x="608.0" y="252.8" text-anchor="end" font-family="Arial, sans-serif" font-size="16" fill="#0f172a">0.815</text>
<line class="grid" x1="620" y1="216.8" x2="1050" y2="216.8"/>
<text x="608.0" y="222.8" text-anchor="end" font-family="Arial, sans-serif" font-size="16" fill="#0f172a">0.820</text>
<line class="grid" x1="620" y1="186.9" x2="1050" y2="186.9"/>
<text x="608.0" y="192.9" text-anchor="end" font-family="Arial, sans-serif" font-size="16" fill="#0f172a">0.825</text>
<line class="grid" x1="620" y1="156.9" x2="1050" y2="156.9"/>
<text x="608.0" y="162.9" text-anchor="end" font-family="Arial, sans-serif" font-size="16" fill="#0f172a">0.830</text>
<line class="grid" x1="620" y1="126.9" x2="1050" y2="126.9"/>
<text x="608.0" y="132.9" text-anchor="end" font-family="Arial, sans-serif" font-size="16" fill="#0f172a">0.835</text>
<line class="grid" x1="620" y1="97.0" x2="1050" y2="97.0"/>
<text x="608.0" y="103.0" text-anchor="end" font-family="Arial, sans-serif" font-size="16" fill="#0f172a">0.840</text>
<line x1="678.0" y1="70" x2="678.0" y2="274" stroke="#f1f5f9" stroke-width="1"/>
<text x="678.0" y="297.0" text-anchor="middle" font-family="Arial, sans-serif" font-size="15" fill="#0f172a">Single</text>
<text x="678.0" y="315.0" text-anchor="middle" font-family="Arial, sans-serif" font-size="15" fill="#0f172a">raw</text>
<line x1="791.3" y1="70" x2="791.3" y2="274" stroke="#f1f5f9" stroke-width="1"/>
<text x="791.3" y="297.0" text-anchor="middle" font-family="Arial, sans-serif" font-size="15" fill="#0f172a">Single</text>
<text x="791.3" y="315.0" text-anchor="middle" font-family="Arial, sans-serif" font-size="15" fill="#0f172a">calibrated</text>
<line x1="904.7" y1="70" x2="904.7" y2="274" stroke="#f1f5f9" stroke-width="1"/>
<text x="904.7" y="297.0" text-anchor="middle" font-family="Arial, sans-serif" font-size="15" fill="#0f172a">Ensemble</text>
<text x="904.7" y="315.0" text-anchor="middle" font-family="Arial, sans-serif" font-size="15" fill="#0f172a">raw</text>
<line x1="1018.0" y1="70" x2="1018.0" y2="274" stroke="#f1f5f9" stroke-width="1"/>
<text x="1018.0" y="297.0" text-anchor="middle" font-family="Arial, sans-serif" font-size="15" fill="#0f172a">Ensemble</text>
<text x="1018.0" y="315.0" text-anchor="middle" font-family="Arial, sans-serif" font-size="15" fill="#0f172a">calibrated</text>
<circle cx="665.0" cy="202.4" r="6" fill="#0072B2" stroke="#ffffff" stroke-width="1.5"/>
<polygon points="691.0,149.9 697.0,155.9 691.0,161.9 685.0,155.9" fill="#D55E00" stroke="#ffffff" stroke-width="1.5"/>
<circle cx="778.3" cy="243.1" r="6" fill="#0072B2" stroke="#ffffff" stroke-width="1.5"/>
<polygon points="804.3,151.2 810.3,157.2 804.3,163.2 798.3,157.2" fill="#D55E00" stroke="#ffffff" stroke-width="1.5"/>
<circle cx="891.7" cy="222.4" r="6" fill="#0072B2" stroke="#ffffff" stroke-width="1.5"/>
<polygon points="917.7,126.9 923.7,132.9 917.7,138.9 911.7,132.9" fill="#D55E00" stroke="#ffffff" stroke-width="1.5"/>
<circle cx="1005.0" cy="167.0" r="6" fill="#0072B2" stroke="#ffffff" stroke-width="1.5"/>
<polygon points="1031.0,142.7 1037.0,148.7 1031.0,154.7 1025.0,148.7" fill="#D55E00" stroke="#ffffff" stroke-width="1.5"/>
<text x="310.0" y="708.0" text-anchor="middle" font-family="Arial, sans-serif" font-size="20" fill="#0f172a">Configuration</text>
<text x="17.0" y="535.0" text-anchor="middle" font-family="Arial, sans-serif" font-size="20" fill="#0f172a" transform="rotate(-90 17.0 535.0)">Mean terminal Brier score</text>
<line class="axis" x1="95" y1="614" x2="525" y2="614"/>
<line class="axis" x1="95" y1="410" x2="95" y2="614"/>
<line class="grid" x1="95" y1="578.8" x2="525" y2="578.8"/>
<text x="83.0" y="584.8" text-anchor="end" font-family="Arial, sans-serif" font-size="16" fill="#0f172a">0.150</text>
<line class="grid" x1="95" y1="534.4" x2="525" y2="534.4"/>
<text x="83.0" y="540.4" text-anchor="end" font-family="Arial, sans-serif" font-size="16" fill="#0f172a">0.160</text>
<line class="grid" x1="95" y1="489.9" x2="525" y2="489.9"/>
<text x="83.0" y="495.9" text-anchor="end" font-family="Arial, sans-serif" font-size="16" fill="#0f172a">0.170</text>
<line class="grid" x1="95" y1="445.4" x2="525" y2="445.4"/>
<text x="83.0" y="451.4" text-anchor="end" font-family="Arial, sans-serif" font-size="16" fill="#0f172a">0.180</text>
<line x1="153.0" y1="410" x2="153.0" y2="614" stroke="#f1f5f9" stroke-width="1"/>
<text x="153.0" y="637.0" text-anchor="middle" font-family="Arial, sans-serif" font-size="15" fill="#0f172a">Single</text>
<text x="153.0" y="655.0" text-anchor="middle" font-family="Arial, sans-serif" font-size="15" fill="#0f172a">raw</text>
<line x1="266.3" y1="410" x2="266.3" y2="614" stroke="#f1f5f9" stroke-width="1"/>
<text x="266.3" y="637.0" text-anchor="middle" font-family="Arial, sans-serif" font-size="15" fill="#0f172a">Single</text>
<text x="266.3" y="655.0" text-anchor="middle" font-family="Arial, sans-serif" font-size="15" fill="#0f172a">calibrated</text>
<line x1="379.7" y1="410" x2="379.7" y2="614" stroke="#f1f5f9" stroke-width="1"/>
<text x="379.7" y="637.0" text-anchor="middle" font-family="Arial, sans-serif" font-size="15" fill="#0f172a">Ensemble</text>
<text x="379.7" y="655.0" text-anchor="middle" font-family="Arial, sans-serif" font-size="15" fill="#0f172a">raw</text>
<line x1="493.0" y1="410" x2="493.0" y2="614" stroke="#f1f5f9" stroke-width="1"/>
<text x="493.0" y="637.0" text-anchor="middle" font-family="Arial, sans-serif" font-size="15" fill="#0f172a">Ensemble</text>
<text x="493.0" y="655.0" text-anchor="middle" font-family="Arial, sans-serif" font-size="15" fill="#0f172a">calibrated</text>
<circle cx="140.0" cy="472.9" r="6" fill="#0072B2" stroke="#ffffff" stroke-width="1.5"/>
<polygon points="166.0,512.5 172.0,518.5 166.0,524.5 160.0,518.5" fill="#D55E00" stroke="#ffffff" stroke-width="1.5"/>
<circle cx="253.3" cy="530.2" r="6" fill="#0072B2" stroke="#ffffff" stroke-width="1.5"/>
<polygon points="279.3,558.2 285.3,564.2 279.3,570.2 273.3,564.2" fill="#D55E00" stroke="#ffffff" stroke-width="1.5"/>
<circle cx="366.7" cy="500.5" r="6" fill="#0072B2" stroke="#ffffff" stroke-width="1.5"/>
<polygon points="392.7,559.2 398.7,565.2 392.7,571.2 386.7,565.2" fill="#D55E00" stroke="#ffffff" stroke-width="1.5"/>
<circle cx="480.0" cy="551.9" r="6" fill="#0072B2" stroke="#ffffff" stroke-width="1.5"/>
<polygon points="506.0,577.1 512.0,583.1 506.0,589.1 500.0,583.1" fill="#D55E00" stroke="#ffffff" stroke-width="1.5"/>
<text x="835.0" y="708.0" text-anchor="middle" font-family="Arial, sans-serif" font-size="20" fill="#0f172a">Configuration</text>
<text x="542.0" y="535.0" text-anchor="middle" font-family="Arial, sans-serif" font-size="20" fill="#0f172a" transform="rotate(-90 542.0 535.0)">Mean terminal ECE-10</text>
<line class="axis" x1="620" y1="614" x2="1050" y2="614"/>
<line class="axis" x1="620" y1="410" x2="620" y2="614"/>
<line class="grid" x1="620" y1="584.1" x2="1050" y2="584.1"/>
<text x="608.0" y="590.1" text-anchor="end" font-family="Arial, sans-serif" font-size="16" fill="#0f172a">0.100</text>
<line class="grid" x1="620" y1="553.0" x2="1050" y2="553.0"/>
<text x="608.0" y="559.0" text-anchor="end" font-family="Arial, sans-serif" font-size="16" fill="#0f172a">0.110</text>
<line class="grid" x1="620" y1="521.9" x2="1050" y2="521.9"/>
<text x="608.0" y="527.9" text-anchor="end" font-family="Arial, sans-serif" font-size="16" fill="#0f172a">0.120</text>
<line class="grid" x1="620" y1="490.8" x2="1050" y2="490.8"/>
<text x="608.0" y="496.8" text-anchor="end" font-family="Arial, sans-serif" font-size="16" fill="#0f172a">0.130</text>
<line class="grid" x1="620" y1="459.7" x2="1050" y2="459.7"/>
<text x="608.0" y="465.7" text-anchor="end" font-family="Arial, sans-serif" font-size="16" fill="#0f172a">0.140</text>
<line class="grid" x1="620" y1="428.5" x2="1050" y2="428.5"/>
<text x="608.0" y="434.5" text-anchor="end" font-family="Arial, sans-serif" font-size="16" fill="#0f172a">0.150</text>
<line x1="678.0" y1="410" x2="678.0" y2="614" stroke="#f1f5f9" stroke-width="1"/>
<text x="678.0" y="637.0" text-anchor="middle" font-family="Arial, sans-serif" font-size="15" fill="#0f172a">Single</text>
<text x="678.0" y="655.0" text-anchor="middle" font-family="Arial, sans-serif" font-size="15" fill="#0f172a">raw</text>
<line x1="791.3" y1="410" x2="791.3" y2="614" stroke="#f1f5f9" stroke-width="1"/>
<text x="791.3" y="637.0" text-anchor="middle" font-family="Arial, sans-serif" font-size="15" fill="#0f172a">Single</text>
<text x="791.3" y="655.0" text-anchor="middle" font-family="Arial, sans-serif" font-size="15" fill="#0f172a">calibrated</text>
<line x1="904.7" y1="410" x2="904.7" y2="614" stroke="#f1f5f9" stroke-width="1"/>
<text x="904.7" y="637.0" text-anchor="middle" font-family="Arial, sans-serif" font-size="15" fill="#0f172a">Ensemble</text>
<text x="904.7" y="655.0" text-anchor="middle" font-family="Arial, sans-serif" font-size="15" fill="#0f172a">raw</text>
<line x1="1018.0" y1="410" x2="1018.0" y2="614" stroke="#f1f5f9" stroke-width="1"/>
<text x="1018.0" y="637.0" text-anchor="middle" font-family="Arial, sans-serif" font-size="15" fill="#0f172a">Ensemble</text>
<text x="1018.0" y="655.0" text-anchor="middle" font-family="Arial, sans-serif" font-size="15" fill="#0f172a">calibrated</text>
<circle cx="665.0" cy="483.4" r="6" fill="#0072B2" stroke="#ffffff" stroke-width="1.5"/>
<polygon points="691.0,466.9 697.0,472.9 691.0,478.9 685.0,472.9" fill="#D55E00" stroke="#ffffff" stroke-width="1.5"/>
<circle cx="778.3" cy="559.6" r="6" fill="#0072B2" stroke="#ffffff" stroke-width="1.5"/>
<polygon points="804.3,571.8 810.3,577.8 804.3,583.8 798.3,577.8" fill="#D55E00" stroke="#ffffff" stroke-width="1.5"/>
<circle cx="891.7" cy="513.4" r="6" fill="#0072B2" stroke="#ffffff" stroke-width="1.5"/>
<polygon points="917.7,517.8 923.7,523.8 917.7,529.8 911.7,523.8" fill="#D55E00" stroke="#ffffff" stroke-width="1.5"/>
<circle cx="1005.0" cy="583.1" r="6" fill="#0072B2" stroke="#ffffff" stroke-width="1.5"/>
<polygon points="1031.0,575.0 1037.0,581.0 1031.0,587.0 1025.0,581.0" fill="#D55E00" stroke="#ffffff" stroke-width="1.5"/>
<circle cx="430.0" cy="12.0" r="6" fill="#0072B2" stroke="#ffffff" stroke-width="1.5"/>
<text x="448.0" y="18.0" text-anchor="start" font-family="Arial, sans-serif" font-size="18" fill="#0f172a">n0 = 10</text>
<polygon points="550.0,6.0 556.0,12.0 550.0,18.0 544.0,12.0" fill="#D55E00" stroke="#ffffff" stroke-width="1.5"/>
<text x="568.0" y="18.0" text-anchor="start" font-family="Arial, sans-serif" font-size="18" fill="#0f172a">n0 = 40</text>
</svg>
