<svg xmlns="http://www.w3.org/2000/svg" width="980" height="560" viewBox="0 0 980 560">
<rect width="980" height="560" fill="#ffffff"/>
<text x="490.0" y="32" text-anchor="middle" font-family="Arial, sans-serif" font-size="20" font-weight="700" fill="#0f172a">Phase 5 replay-job compute time</text>
<text x="490.0" y="54" text-anchor="middle" font-family="Arial, sans-serif" font-size="12" fill="#475569">Mean SUPEK wall time across three outer-fold jobs per strategy.</text>
<line x1="90" y1="440.0" x2="920" y2="440.0" stroke="#e2e8f0"/>
<text x="80" y="444.0" text-anchor="end" font-family="Arial" font-size="11" fill="#475569">0.00</text>
<line x1="90" y1="369.0" x2="920" y2="369.0" stroke="#e2e8f0"/>
<text x="80" y="373.0" text-anchor="end" font-family="Arial" font-size="11" fill="#475569">7.00</text>
<line x1="90" y1="298.0" x2="920" y2="298.0" stroke="#e2e8f0"/>
<text x="80" y="302.0" text-anchor="end" font-family="Arial" font-size="11" fill="#475569">14.00</text>
<line x1="90" y1="227.0" x2="920" y2="227.0" stroke="#e2e8f0"/>
<text x="80" y="231.0" text-anchor="end" font-family="Arial" font-size="11" fill="#475569">21.00</text>
<line x1="90" y1="156.0" x2="920" y2="156.0" stroke="#e2e8f0"/>
<text x="80" y="160.0" text-anchor="end" font-family="Arial" font-size="11" fill="#475569">28.00</text>
<line x1="90" y1="85.0" x2="920" y2="85.0" stroke="#e2e8f0"/>
<text x="80" y="89.0" text-anchor="end" font-family="Arial" font-size="11" fill="#475569">35.00</text>
<rect x="167.8" y="141.9" width="52.0" height="298.1" fill="#2563eb" rx="2"/>
<text x="193.8" y="135.9" text-anchor="middle" font-family="Arial" font-size="10" fill="#334155">29.394</text>
<text x="193.8" y="460" transform="rotate(28 193.8 460)" text-anchor="start" font-family="Arial" font-size="11" fill="#334155">random</text>
<rect x="375.2" y="149.5" width="52.0" height="290.5" fill="#2563eb" rx="2"/>
<text x="401.2" y="143.5" text-anchor="middle" font-family="Arial" font-size="10" fill="#334155">28.637</text>
<text x="401.2" y="460" transform="rotate(28 401.2 460)" text-anchor="start" font-family="Arial" font-size="11" fill="#334155">predictive entropy</text>
<rect x="582.8" y="154.2" width="52.0" height="285.8" fill="#2563eb" rx="2"/>
<text x="608.8" y="148.2" text-anchor="middle" font-family="Arial" font-size="10" fill="#334155">28.180</text>
<text x="608.8" y="460" transform="rotate(28 608.8 460)" text-anchor="start" font-family="Arial" font-size="11" fill="#334155">static easy entropy</text>
<rect x="790.2" y="152.5" width="52.0" height="287.5" fill="#2563eb" rx="2"/>
<text x="816.2" y="146.5" text-anchor="middle" font-family="Arial" font-size="10" fill="#334155">28.343</text>
<text x="816.2" y="460" transform="rotate(28 816.2 460)" text-anchor="start" font-family="Arial" font-size="11" fill="#334155">self paced entropy</text>
<text x="22" y="262.5" transform="rotate(-90 22 262.5)" text-anchor="middle" font-family="Arial" font-size="13" fill="#334155">Mean wall time (minutes)</text>
</svg>