<svg xmlns="http://www.w3.org/2000/svg" width="980" height="560" viewBox="0 0 980 560">
<rect width="980" height="560" fill="#ffffff"/>
<text x="490.0" y="32" text-anchor="middle" font-family="Arial, sans-serif" font-size="20" font-weight="700" fill="#0f172a">Pre-query classification error by difficulty quintile</text>
<text x="490.0" y="54" text-anchor="middle" font-family="Arial, sans-serif" font-size="12" fill="#475569">Mean post-hoc fixed-0.5 error rate across fold-step summaries.</text>
<line x1="90" y1="440.0" x2="920" y2="440.0" stroke="#e2e8f0"/>
<text x="80" y="444.0" text-anchor="end" font-family="Arial" font-size="11" fill="#475569">0.00</text>
<line x1="90" y1="369.0" x2="920" y2="369.0" stroke="#e2e8f0"/>
<text x="80" y="373.0" text-anchor="end" font-family="Arial" font-size="11" fill="#475569">0.13</text>
<line x1="90" y1="298.0" x2="920" y2="298.0" stroke="#e2e8f0"/>
<text x="80" y="302.0" text-anchor="end" font-family="Arial" font-size="11" fill="#475569">0.26</text>
<line x1="90" y1="227.0" x2="920" y2="227.0" stroke="#e2e8f0"/>
<text x="80" y="231.0" text-anchor="end" font-family="Arial" font-size="11" fill="#475569">0.39</text>
<line x1="90" y1="156.0" x2="920" y2="156.0" stroke="#e2e8f0"/>
<text x="80" y="160.0" text-anchor="end" font-family="Arial" font-size="11" fill="#475569">0.52</text>
<line x1="90" y1="85.0" x2="920" y2="85.0" stroke="#e2e8f0"/>
<text x="80" y="89.0" text-anchor="end" font-family="Arial" font-size="11" fill="#475569">0.65</text>
<rect x="112.8" y="323.3" width="29.2" height="116.7" fill="#2563eb" rx="2"/>
<text x="127.4" y="317.3" text-anchor="middle" font-family="Arial" font-size="10" fill="#334155">0.214</text>
<rect x="146.0" y="309.3" width="29.2" height="130.7" fill="#d97706" rx="2"/>
<text x="160.6" y="303.3" text-anchor="middle" font-family="Arial" font-size="10" fill="#334155">0.239</text>
<rect x="179.2" y="308.4" width="29.2" height="131.6" fill="#0f766e" rx="2"/>
<text x="193.8" y="302.4" text-anchor="middle" font-family="Arial" font-size="10" fill="#334155">0.241</text>
<rect x="212.3" y="284.5" width="29.2" height="155.5" fill="#7c3aed" rx="2"/>
<text x="226.9" y="278.5" text-anchor="middle" font-family="Arial" font-size="10" fill="#334155">0.285</text>
<rect x="245.5" y="252.0" width="29.2" height="188.0" fill="#dc2626" rx="2"/>
<text x="260.1" y="246.0" text-anchor="middle" font-family="Arial" font-size="10" fill="#334155">0.344</text>
<text x="193.8" y="460" transform="rotate(28 193.8 460)" text-anchor="start" font-family="Arial" font-size="11" fill="#334155">random</text>
<rect x="320.3" y="373.2" width="29.2" height="66.8" fill="#2563eb" rx="2"/>
<text x="334.9" y="367.2" text-anchor="middle" font-family="Arial" font-size="10" fill="#334155">0.122</text>
<rect x="353.5" y="371.1" width="29.2" height="68.9" fill="#d97706" rx="2"/>
<text x="368.1" y="365.1" text-anchor="middle" font-family="Arial" font-size="10" fill="#334155">0.126</text>
<rect x="386.7" y="372.1" width="29.2" height="67.9" fill="#0f766e" rx="2"/>
<text x="401.2" y="366.1" text-anchor="middle" font-family="Arial" font-size="10" fill="#334155">0.124</text>
<rect x="419.8" y="359.0" width="29.2" height="81.0" fill="#7c3aed" rx="2"/>
<text x="434.4" y="353.0" text-anchor="middle" font-family="Arial" font-size="10" fill="#334155">0.148</text>
<rect x="453.0" y="363.4" width="29.2" height="76.6" fill="#dc2626" rx="2"/>
<text x="467.6" y="357.4" text-anchor="middle" font-family="Arial" font-size="10" fill="#334155">0.140</text>
<text x="401.2" y="460" transform="rotate(28 401.2 460)" text-anchor="start" font-family="Arial" font-size="11" fill="#334155">predictive entropy</text>
<rect x="527.8" y="376.2" width="29.2" height="63.8" fill="#2563eb" rx="2"/>
<text x="542.4" y="370.2" text-anchor="middle" font-family="Arial" font-size="10" fill="#334155">0.117</text>
<rect x="561.0" y="343.8" width="29.2" height="96.2" fill="#d97706" rx="2"/>
<text x="575.6" y="337.8" text-anchor="middle" font-family="Arial" font-size="10" fill="#334155">0.176</text>
<rect x="594.2" y="305.7" width="29.2" height="134.3" fill="#0f766e" rx="2"/>
<text x="608.8" y="299.7" text-anchor="middle" font-family="Arial" font-size="10" fill="#334155">0.246</text>
<rect x="627.3" y="289.8" width="29.2" height="150.2" fill="#7c3aed" rx="2"/>
<text x="641.9" y="283.8" text-anchor="middle" font-family="Arial" font-size="10" fill="#334155">0.275</text>
<rect x="660.5" y="293.5" width="29.2" height="146.5" fill="#dc2626" rx="2"/>
<text x="675.1" y="287.5" text-anchor="middle" font-family="Arial" font-size="10" fill="#334155">0.268</text>
<text x="608.8" y="460" transform="rotate(28 608.8 460)" text-anchor="start" font-family="Arial" font-size="11" fill="#334155">static easy entropy</text>
<rect x="735.3" y="384.8" width="29.2" height="55.2" fill="#2563eb" rx="2"/>
<text x="749.9" y="378.8" text-anchor="middle" font-family="Arial" font-size="10" fill="#334155">0.101</text>
<rect x="768.5" y="362.1" width="29.2" height="77.9" fill="#d97706" rx="2"/>
<text x="783.1" y="356.1" text-anchor="middle" font-family="Arial" font-size="10" fill="#334155">0.143</text>
<rect x="801.7" y="362.9" width="29.2" height="77.1" fill="#0f766e" rx="2"/>
<text x="816.3" y="356.9" text-anchor="middle" font-family="Arial" font-size="10" fill="#334155">0.141</text>
<rect x="834.8" y="339.1" width="29.2" height="100.9" fill="#7c3aed" rx="2"/>
<text x="849.4" y="333.1" text-anchor="middle" font-family="Arial" font-size="10" fill="#334155">0.185</text>
<rect x="868.0" y="337.8" width="29.2" height="102.2" fill="#dc2626" rx="2"/>
<text x="882.6" y="331.8" text-anchor="middle" font-family="Arial" font-size="10" fill="#334155">0.187</text>
<text x="816.2" y="460" transform="rotate(28 816.2 460)" text-anchor="start" font-family="Arial" font-size="11" fill="#334155">self paced entropy</text>
<text x="22" y="262.5" transform="rotate(-90 22 262.5)" text-anchor="middle" font-family="Arial" font-size="13" fill="#334155">Error rate</text>
<rect x="90" y="528" width="14" height="10" fill="#2563eb"/>
<text x="110" y="537" font-family="Arial" font-size="11" fill="#334155">Q1</text>
<rect x="270" y="528" width="14" height="10" fill="#d97706"/>
<text x="290" y="537" font-family="Arial" font-size="11" fill="#334155">Q2</text>
<rect x="450" y="528" width="14" height="10" fill="#0f766e"/>
<text x="470" y="537" font-family="Arial" font-size="11" fill="#334155">Q3</text>
<rect x="630" y="528" width="14" height="10" fill="#7c3aed"/>
<text x="650" y="537" font-family="Arial" font-size="11" fill="#334155">Q4</text>
<rect x="810" y="528" width="14" height="10" fill="#dc2626"/>
<text x="830" y="537" font-family="Arial" font-size="11" fill="#334155">Q5</text>
</svg>