<svg xmlns="http://www.w3.org/2000/svg" width="980" height="600" viewBox="0 0 980 600">
<rect width="980" height="600" fill="#ffffff"/>
<text x="490.0" y="32" text-anchor="middle" font-family="Arial, sans-serif" font-size="20" font-weight="700" fill="#0f172a">Phase 5 selected operational difficulty percentile</text>
<text x="490.0" y="54" text-anchor="middle" font-family="Arial, sans-serif" font-size="12" fill="#475569">Mean selected percentile across folds; lower values are closer to the currently labelled model manifold.</text>
<line x1="90" y1="520.0" x2="730" y2="520.0" stroke="#e2e8f0"/>
<text x="80" y="524.0" text-anchor="end" font-family="Arial" font-size="11" fill="#475569">0.00</text>
<line x1="90" y1="432.0" x2="730" y2="432.0" stroke="#e2e8f0"/>
<text x="80" y="436.0" text-anchor="end" font-family="Arial" font-size="11" fill="#475569">0.20</text>
<line x1="90" y1="344.0" x2="730" y2="344.0" stroke="#e2e8f0"/>
<text x="80" y="348.0" text-anchor="end" font-family="Arial" font-size="11" fill="#475569">0.40</text>
<line x1="90" y1="256.0" x2="730" y2="256.0" stroke="#e2e8f0"/>
<text x="80" y="260.0" text-anchor="end" font-family="Arial" font-size="11" fill="#475569">0.60</text>
<line x1="90" y1="168.0" x2="730" y2="168.0" stroke="#e2e8f0"/>
<text x="80" y="172.0" text-anchor="end" font-family="Arial" font-size="11" fill="#475569">0.80</text>
<line x1="90" y1="80.0" x2="730" y2="80.0" stroke="#e2e8f0"/>
<text x="80" y="84.0" text-anchor="end" font-family="Arial" font-size="11" fill="#475569">1.00</text>
<line x1="90.0" y1="80" x2="90.0" y2="520" stroke="#f1f5f9"/>
<text x="90.0" y="542" text-anchor="middle" font-family="Arial" font-size="11" fill="#475569">0</text>
<line x1="218.0" y1="80" x2="218.0" y2="520" stroke="#f1f5f9"/>
<text x="218.0" y="542" text-anchor="middle" font-family="Arial" font-size="11" fill="#475569">9</text>
<line x1="346.0" y1="80" x2="346.0" y2="520" stroke="#f1f5f9"/>
<text x="346.0" y="542" text-anchor="middle" font-family="Arial" font-size="11" fill="#475569">18</text>
<line x1="474.0" y1="80" x2="474.0" y2="520" stroke="#f1f5f9"/>
<text x="474.0" y="542" text-anchor="middle" font-family="Arial" font-size="11" fill="#475569">26</text>
<line x1="602.0" y1="80" x2="602.0" y2="520" stroke="#f1f5f9"/>
<text x="602.0" y="542" text-anchor="middle" font-family="Arial" font-size="11" fill="#475569">35</text>
<line x1="730.0" y1="80" x2="730.0" y2="520" stroke="#f1f5f9"/>
<text x="730.0" y="542" text-anchor="middle" font-family="Arial" font-size="11" fill="#475569">44</text>
<line x1="90" y1="520" x2="730" y2="520" stroke="#334155" stroke-width="1.5"/>
<line x1="90" y1="80" x2="90" y2="520" stroke="#334155" stroke-width="1.5"/>
<text x="410.0" y="576" text-anchor="middle" font-family="Arial" font-size="13" fill="#334155">Acquisition step</text>
<text x="22" y="300.0" transform="rotate(-90 22 300.0)" text-anchor="middle" font-family="Arial" font-size="13" fill="#334155">Mean selected difficulty percentile</text>
<polyline points="90.0,291.4 104.5,258.8 119.1,297.5 133.6,316.1 148.2,334.8 162.7,308.3 177.3,349.4 191.8,211.0 206.4,253.3 220.9,277.0 235.5,234.4 250.0,277.2 264.5,289.8 279.1,334.6 293.6,272.8 308.2,238.1 322.7,302.0 337.3,335.1 351.8,330.0 366.4,328.1 380.9,353.0 395.5,328.2 410.0,327.5 424.5,299.6 439.1,263.6 453.6,303.4 468.2,312.8 482.7,289.9 497.3,310.5 511.8,304.6 526.4,237.0 540.9,310.4 555.5,266.5 570.0,303.2 584.5,282.6 599.1,303.3 613.6,282.0 628.2,287.6 642.7,330.2 657.3,272.2 671.8,276.8 686.4,273.0 700.9,325.1 715.5,269.0 730.0,300.0" fill="none" stroke="#64748b" stroke-width="2.5" stroke-linejoin="round" stroke-linecap="round"/>
<circle cx="90.0" cy="291.4" r="2.5" fill="#64748b"/>
<circle cx="104.5" cy="258.8" r="2.5" fill="#64748b"/>
<circle cx="119.1" cy="297.5" r="2.5" fill="#64748b"/>
<circle cx="133.6" cy="316.1" r="2.5" fill="#64748b"/>
<circle cx="148.2" cy="334.8" r="2.5" fill="#64748b"/>
<circle cx="162.7" cy="308.3" r="2.5" fill="#64748b"/>
<circle cx="177.3" cy="349.4" r="2.5" fill="#64748b"/>
<circle cx="191.8" cy="211.0" r="2.5" fill="#64748b"/>
<circle cx="206.4" cy="253.3" r="2.5" fill="#64748b"/>
<circle cx="220.9" cy="277.0" r="2.5" fill="#64748b"/>
<circle cx="235.5" cy="234.4" r="2.5" fill="#64748b"/>
<circle cx="250.0" cy="277.2" r="2.5" fill="#64748b"/>
<circle cx="264.5" cy="289.8" r="2.5" fill="#64748b"/>
<circle cx="279.1" cy="334.6" r="2.5" fill="#64748b"/>
<circle cx="293.6" cy="272.8" r="2.5" fill="#64748b"/>
<circle cx="308.2" cy="238.1" r="2.5" fill="#64748b"/>
<circle cx="322.7" cy="302.0" r="2.5" fill="#64748b"/>
<circle cx="337.3" cy="335.1" r="2.5" fill="#64748b"/>
<circle cx="351.8" cy="330.0" r="2.5" fill="#64748b"/>
<circle cx="366.4" cy="328.1" r="2.5" fill="#64748b"/>
<circle cx="380.9" cy="353.0" r="2.5" fill="#64748b"/>
<circle cx="395.5" cy="328.2" r="2.5" fill="#64748b"/>
<circle cx="410.0" cy="327.5" r="2.5" fill="#64748b"/>
<circle cx="424.5" cy="299.6" r="2.5" fill="#64748b"/>
<circle cx="439.1" cy="263.6" r="2.5" fill="#64748b"/>
<circle cx="453.6" cy="303.4" r="2.5" fill="#64748b"/>
<circle cx="468.2" cy="312.8" r="2.5" fill="#64748b"/>
<circle cx="482.7" cy="289.9" r="2.5" fill="#64748b"/>
<circle cx="497.3" cy="310.5" r="2.5" fill="#64748b"/>
<circle cx="511.8" cy="304.6" r="2.5" fill="#64748b"/>
<circle cx="526.4" cy="237.0" r="2.5" fill="#64748b"/>
<circle cx="540.9" cy="310.4" r="2.5" fill="#64748b"/>
<circle cx="555.5" cy="266.5" r="2.5" fill="#64748b"/>
<circle cx="570.0" cy="303.2" r="2.5" fill="#64748b"/>
<circle cx="584.5" cy="282.6" r="2.5" fill="#64748b"/>
<circle cx="599.1" cy="303.3" r="2.5" fill="#64748b"/>
<circle cx="613.6" cy="282.0" r="2.5" fill="#64748b"/>
<circle cx="628.2" cy="287.6" r="2.5" fill="#64748b"/>
<circle cx="642.7" cy="330.2" r="2.5" fill="#64748b"/>
<circle cx="657.3" cy="272.2" r="2.5" fill="#64748b"/>
<circle cx="671.8" cy="276.8" r="2.5" fill="#64748b"/>
<circle cx="686.4" cy="273.0" r="2.5" fill="#64748b"/>
<circle cx="700.9" cy="325.1" r="2.5" fill="#64748b"/>
<circle cx="715.5" cy="269.0" r="2.5" fill="#64748b"/>
<circle cx="730.0" cy="300.0" r="2.5" fill="#64748b"/>
<line x1="758" y1="90" x2="785" y2="90" stroke="#64748b" stroke-width="3"/>
<text x="793" y="94" font-family="Arial" font-size="12" fill="#1e293b">random</text>
<polyline points="90.0,317.7 104.5,203.1 119.1,186.2 133.6,234.4 148.2,197.2 162.7,172.6 177.3,191.1 191.8,239.4 206.4,281.7 220.9,223.7 235.5,222.3 250.0,251.3 264.5,287.8 279.1,204.7 293.6,259.2 308.2,285.5 322.7,170.6 337.3,259.4 351.8,283.6 366.4,247.4 380.9,296.0 395.5,205.2 410.0,155.4 424.5,224.8 439.1,318.6 453.6,246.5 468.2,308.1 482.7,381.6 497.3,306.3 511.8,223.0 526.4,193.4 540.9,244.9 555.5,321.5 570.0,245.1 584.5,252.7 599.1,265.6 613.6,346.7 628.2,304.1 642.7,270.7 657.3,326.8 671.8,301.2 686.4,266.8 700.9,339.8 715.5,272.3 730.0,300.0" fill="none" stroke="#2563eb" stroke-width="2.5" stroke-linejoin="round" stroke-linecap="round"/>
<circle cx="90.0" cy="317.7" r="2.5" fill="#2563eb"/>
<circle cx="104.5" cy="203.1" r="2.5" fill="#2563eb"/>
<circle cx="119.1" cy="186.2" r="2.5" fill="#2563eb"/>
<circle cx="133.6" cy="234.4" r="2.5" fill="#2563eb"/>
<circle cx="148.2" cy="197.2" r="2.5" fill="#2563eb"/>
<circle cx="162.7" cy="172.6" r="2.5" fill="#2563eb"/>
<circle cx="177.3" cy="191.1" r="2.5" fill="#2563eb"/>
<circle cx="191.8" cy="239.4" r="2.5" fill="#2563eb"/>
<circle cx="206.4" cy="281.7" r="2.5" fill="#2563eb"/>
<circle cx="220.9" cy="223.7" r="2.5" fill="#2563eb"/>
<circle cx="235.5" cy="222.3" r="2.5" fill="#2563eb"/>
<circle cx="250.0" cy="251.3" r="2.5" fill="#2563eb"/>
<circle cx="264.5" cy="287.8" r="2.5" fill="#2563eb"/>
<circle cx="279.1" cy="204.7" r="2.5" fill="#2563eb"/>
<circle cx="293.6" cy="259.2" r="2.5" fill="#2563eb"/>
<circle cx="308.2" cy="285.5" r="2.5" fill="#2563eb"/>
<circle cx="322.7" cy="170.6" r="2.5" fill="#2563eb"/>
<circle cx="337.3" cy="259.4" r="2.5" fill="#2563eb"/>
<circle cx="351.8" cy="283.6" r="2.5" fill="#2563eb"/>
<circle cx="366.4" cy="247.4" r="2.5" fill="#2563eb"/>
<circle cx="380.9" cy="296.0" r="2.5" fill="#2563eb"/>
<circle cx="395.5" cy="205.2" r="2.5" fill="#2563eb"/>
<circle cx="410.0" cy="155.4" r="2.5" fill="#2563eb"/>
<circle cx="424.5" cy="224.8" r="2.5" fill="#2563eb"/>
<circle cx="439.1" cy="318.6" r="2.5" fill="#2563eb"/>
<circle cx="453.6" cy="246.5" r="2.5" fill="#2563eb"/>
<circle cx="468.2" cy="308.1" r="2.5" fill="#2563eb"/>
<circle cx="482.7" cy="381.6" r="2.5" fill="#2563eb"/>
<circle cx="497.3" cy="306.3" r="2.5" fill="#2563eb"/>
<circle cx="511.8" cy="223.0" r="2.5" fill="#2563eb"/>
<circle cx="526.4" cy="193.4" r="2.5" fill="#2563eb"/>
<circle cx="540.9" cy="244.9" r="2.5" fill="#2563eb"/>
<circle cx="555.5" cy="321.5" r="2.5" fill="#2563eb"/>
<circle cx="570.0" cy="245.1" r="2.5" fill="#2563eb"/>
<circle cx="584.5" cy="252.7" r="2.5" fill="#2563eb"/>
<circle cx="599.1" cy="265.6" r="2.5" fill="#2563eb"/>
<circle cx="613.6" cy="346.7" r="2.5" fill="#2563eb"/>
<circle cx="628.2" cy="304.1" r="2.5" fill="#2563eb"/>
<circle cx="642.7" cy="270.7" r="2.5" fill="#2563eb"/>
<circle cx="657.3" cy="326.8" r="2.5" fill="#2563eb"/>
<circle cx="671.8" cy="301.2" r="2.5" fill="#2563eb"/>
<circle cx="686.4" cy="266.8" r="2.5" fill="#2563eb"/>
<circle cx="700.9" cy="339.8" r="2.5" fill="#2563eb"/>
<circle cx="715.5" cy="272.3" r="2.5" fill="#2563eb"/>
<circle cx="730.0" cy="300.0" r="2.5" fill="#2563eb"/>
<line x1="758" y1="115" x2="785" y2="115" stroke="#2563eb" stroke-width="3"/>
<text x="793" y="119" font-family="Arial" font-size="12" fill="#1e293b">predictive entropy</text>
<polyline points="90.0,445.4 104.5,461.6 119.1,465.6 133.6,444.4 148.2,469.2 162.7,455.1 177.3,447.0 191.8,449.1 206.4,448.3 220.9,463.5 235.5,454.4 250.0,454.4 264.5,446.0 279.1,439.0 293.6,470.1 308.2,468.2 322.7,438.1 337.3,474.8 351.8,456.3 366.4,455.9 380.9,468.7 395.5,441.4 410.0,449.0 424.5,453.3 439.1,420.7 453.6,451.9 468.2,427.9 482.7,438.3 497.3,441.1 511.8,437.9 526.4,448.6 540.9,450.7 555.5,427.0 570.0,418.1 584.5,429.3 599.1,447.0 613.6,422.7 628.2,445.5 642.7,433.7 657.3,440.1 671.8,445.4 686.4,458.2 700.9,457.1 715.5,422.2 730.0,300.0" fill="none" stroke="#dc2626" stroke-width="2.5" stroke-linejoin="round" stroke-linecap="round"/>
<circle cx="90.0" cy="445.4" r="2.5" fill="#dc2626"/>
<circle cx="104.5" cy="461.6" r="2.5" fill="#dc2626"/>
<circle cx="119.1" cy="465.6" r="2.5" fill="#dc2626"/>
<circle cx="133.6" cy="444.4" r="2.5" fill="#dc2626"/>
<circle cx="148.2" cy="469.2" r="2.5" fill="#dc2626"/>
<circle cx="162.7" cy="455.1" r="2.5" fill="#dc2626"/>
<circle cx="177.3" cy="447.0" r="2.5" fill="#dc2626"/>
<circle cx="191.8" cy="449.1" r="2.5" fill="#dc2626"/>
<circle cx="206.4" cy="448.3" r="2.5" fill="#dc2626"/>
<circle cx="220.9" cy="463.5" r="2.5" fill="#dc2626"/>
<circle cx="235.5" cy="454.4" r="2.5" fill="#dc2626"/>
<circle cx="250.0" cy="454.4" r="2.5" fill="#dc2626"/>
<circle cx="264.5" cy="446.0" r="2.5" fill="#dc2626"/>
<circle cx="279.1" cy="439.0" r="2.5" fill="#dc2626"/>
<circle cx="293.6" cy="470.1" r="2.5" fill="#dc2626"/>
<circle cx="308.2" cy="468.2" r="2.5" fill="#dc2626"/>
<circle cx="322.7" cy="438.1" r="2.5" fill="#dc2626"/>
<circle cx="337.3" cy="474.8" r="2.5" fill="#dc2626"/>
<circle cx="351.8" cy="456.3" r="2.5" fill="#dc2626"/>
<circle cx="366.4" cy="455.9" r="2.5" fill="#dc2626"/>
<circle cx="380.9" cy="468.7" r="2.5" fill="#dc2626"/>
<circle cx="395.5" cy="441.4" r="2.5" fill="#dc2626"/>
<circle cx="410.0" cy="449.0" r="2.5" fill="#dc2626"/>
<circle cx="424.5" cy="453.3" r="2.5" fill="#dc2626"/>
<circle cx="439.1" cy="420.7" r="2.5" fill="#dc2626"/>
<circle cx="453.6" cy="451.9" r="2.5" fill="#dc2626"/>
<circle cx="468.2" cy="427.9" r="2.5" fill="#dc2626"/>
<circle cx="482.7" cy="438.3" r="2.5" fill="#dc2626"/>
<circle cx="497.3" cy="441.1" r="2.5" fill="#dc2626"/>
<circle cx="511.8" cy="437.9" r="2.5" fill="#dc2626"/>
<circle cx="526.4" cy="448.6" r="2.5" fill="#dc2626"/>
<circle cx="540.9" cy="450.7" r="2.5" fill="#dc2626"/>
<circle cx="555.5" cy="427.0" r="2.5" fill="#dc2626"/>
<circle cx="570.0" cy="418.1" r="2.5" fill="#dc2626"/>
<circle cx="584.5" cy="429.3" r="2.5" fill="#dc2626"/>
<circle cx="599.1" cy="447.0" r="2.5" fill="#dc2626"/>
<circle cx="613.6" cy="422.7" r="2.5" fill="#dc2626"/>
<circle cx="628.2" cy="445.5" r="2.5" fill="#dc2626"/>
<circle cx="642.7" cy="433.7" r="2.5" fill="#dc2626"/>
<circle cx="657.3" cy="440.1" r="2.5" fill="#dc2626"/>
<circle cx="671.8" cy="445.4" r="2.5" fill="#dc2626"/>
<circle cx="686.4" cy="458.2" r="2.5" fill="#dc2626"/>
<circle cx="700.9" cy="457.1" r="2.5" fill="#dc2626"/>
<circle cx="715.5" cy="422.2" r="2.5" fill="#dc2626"/>
<circle cx="730.0" cy="300.0" r="2.5" fill="#dc2626"/>
<line x1="758" y1="140" x2="785" y2="140" stroke="#dc2626" stroke-width="3"/>
<text x="793" y="144" font-family="Arial" font-size="12" fill="#1e293b">static easy entropy</text>
<polyline points="90.0,445.4 104.5,452.0 119.1,456.9 133.6,447.7 148.2,435.2 162.7,418.9 177.3,418.5 191.8,430.0 206.4,403.9 220.9,445.9 235.5,368.8 250.0,396.6 264.5,441.1 279.1,392.7 293.6,375.4 308.2,426.9 322.7,372.9 337.3,399.9 351.8,362.2 366.4,349.0 380.9,366.9 395.5,307.3 410.0,394.9 424.5,303.9 439.1,310.2 453.6,341.0 468.2,279.7 482.7,241.5 497.3,275.6 511.8,292.8 526.4,286.5 540.9,325.7 555.5,345.8 570.0,277.9 584.5,313.6 599.1,344.6 613.6,365.3 628.2,359.8 642.7,309.5 657.3,284.3 671.8,213.2 686.4,297.7 700.9,344.0 715.5,337.5 730.0,300.0" fill="none" stroke="#7c3aed" stroke-width="2.5" stroke-linejoin="round" stroke-linecap="round"/>
<circle cx="90.0" cy="445.4" r="2.5" fill="#7c3aed"/>
<circle cx="104.5" cy="452.0" r="2.5" fill="#7c3aed"/>
<circle cx="119.1" cy="456.9" r="2.5" fill="#7c3aed"/>
<circle cx="133.6" cy="447.7" r="2.5" fill="#7c3aed"/>
<circle cx="148.2" cy="435.2" r="2.5" fill="#7c3aed"/>
<circle cx="162.7" cy="418.9" r="2.5" fill="#7c3aed"/>
<circle cx="177.3" cy="418.5" r="2.5" fill="#7c3aed"/>
<circle cx="191.8" cy="430.0" r="2.5" fill="#7c3aed"/>
<circle cx="206.4" cy="403.9" r="2.5" fill="#7c3aed"/>
<circle cx="220.9" cy="445.9" r="2.5" fill="#7c3aed"/>
<circle cx="235.5" cy="368.8" r="2.5" fill="#7c3aed"/>
<circle cx="250.0" cy="396.6" r="2.5" fill="#7c3aed"/>
<circle cx="264.5" cy="441.1" r="2.5" fill="#7c3aed"/>
<circle cx="279.1" cy="392.7" r="2.5" fill="#7c3aed"/>
<circle cx="293.6" cy="375.4" r="2.5" fill="#7c3aed"/>
<circle cx="308.2" cy="426.9" r="2.5" fill="#7c3aed"/>
<circle cx="322.7" cy="372.9" r="2.5" fill="#7c3aed"/>
<circle cx="337.3" cy="399.9" r="2.5" fill="#7c3aed"/>
<circle cx="351.8" cy="362.2" r="2.5" fill="#7c3aed"/>
<circle cx="366.4" cy="349.0" r="2.5" fill="#7c3aed"/>
<circle cx="380.9" cy="366.9" r="2.5" fill="#7c3aed"/>
<circle cx="395.5" cy="307.3" r="2.5" fill="#7c3aed"/>
<circle cx="410.0" cy="394.9" r="2.5" fill="#7c3aed"/>
<circle cx="424.5" cy="303.9" r="2.5" fill="#7c3aed"/>
<circle cx="439.1" cy="310.2" r="2.5" fill="#7c3aed"/>
<circle cx="453.6" cy="341.0" r="2.5" fill="#7c3aed"/>
<circle cx="468.2" cy="279.7" r="2.5" fill="#7c3aed"/>
<circle cx="482.7" cy="241.5" r="2.5" fill="#7c3aed"/>
<circle cx="497.3" cy="275.6" r="2.5" fill="#7c3aed"/>
<circle cx="511.8" cy="292.8" r="2.5" fill="#7c3aed"/>
<circle cx="526.4" cy="286.5" r="2.5" fill="#7c3aed"/>
<circle cx="540.9" cy="325.7" r="2.5" fill="#7c3aed"/>
<circle cx="555.5" cy="345.8" r="2.5" fill="#7c3aed"/>
<circle cx="570.0" cy="277.9" r="2.5" fill="#7c3aed"/>
<circle cx="584.5" cy="313.6" r="2.5" fill="#7c3aed"/>
<circle cx="599.1" cy="344.6" r="2.5" fill="#7c3aed"/>
<circle cx="613.6" cy="365.3" r="2.5" fill="#7c3aed"/>
<circle cx="628.2" cy="359.8" r="2.5" fill="#7c3aed"/>
<circle cx="642.7" cy="309.5" r="2.5" fill="#7c3aed"/>
<circle cx="657.3" cy="284.3" r="2.5" fill="#7c3aed"/>
<circle cx="671.8" cy="213.2" r="2.5" fill="#7c3aed"/>
<circle cx="686.4" cy="297.7" r="2.5" fill="#7c3aed"/>
<circle cx="700.9" cy="344.0" r="2.5" fill="#7c3aed"/>
<circle cx="715.5" cy="337.5" r="2.5" fill="#7c3aed"/>
<circle cx="730.0" cy="300.0" r="2.5" fill="#7c3aed"/>
<line x1="758" y1="165" x2="785" y2="165" stroke="#7c3aed" stroke-width="3"/>
<text x="793" y="169" font-family="Arial" font-size="12" fill="#1e293b">self paced entropy</text>
</svg>