<svg xmlns="http://www.w3.org/2000/svg" width="800" height="700" viewBox="0 0 800 700">
<rect width="800" height="700" fill="#ffffff"/>
<text x="400.0" y="32" text-anchor="middle" font-family="Arial, sans-serif" font-size="20" font-weight="700" fill="#0f172a">Phase 5 cumulative selection overlap at 110 labels</text>
<text x="400.0" y="54" text-anchor="middle" font-family="Arial, sans-serif" font-size="12" fill="#475569">Mean Jaccard overlap across the three fold conditions.</text>
<rect x="210.0" y="80.0" width="112.5" height="112.5" fill="rgb(80,100,250)" stroke="#ffffff"/>
<text x="266.2" y="140.2" text-anchor="middle" font-size="11" fill="#0f172a">1.00</text>
<rect x="322.5" y="80.0" width="112.5" height="112.5" fill="rgb(197,217,250)" stroke="#ffffff"/>
<text x="378.8" y="140.2" text-anchor="middle" font-size="11" fill="#0f172a">0.29</text>
<rect x="435.0" y="80.0" width="112.5" height="112.5" fill="rgb(197,217,250)" stroke="#ffffff"/>
<text x="491.2" y="140.2" text-anchor="middle" font-size="11" fill="#0f172a">0.29</text>
<rect x="547.5" y="80.0" width="112.5" height="112.5" fill="rgb(196,216,250)" stroke="#ffffff"/>
<text x="603.8" y="140.2" text-anchor="middle" font-size="11" fill="#0f172a">0.29</text>
<text x="200" y="140.2" text-anchor="end" font-size="11" fill="#334155">random</text>
<rect x="210.0" y="192.5" width="112.5" height="112.5" fill="rgb(197,217,250)" stroke="#ffffff"/>
<text x="266.2" y="252.8" text-anchor="middle" font-size="11" fill="#0f172a">0.29</text>
<rect x="322.5" y="192.5" width="112.5" height="112.5" fill="rgb(80,100,250)" stroke="#ffffff"/>
<text x="378.8" y="252.8" text-anchor="middle" font-size="11" fill="#0f172a">1.00</text>
<rect x="435.0" y="192.5" width="112.5" height="112.5" fill="rgb(169,189,250)" stroke="#ffffff"/>
<text x="491.2" y="252.8" text-anchor="middle" font-size="11" fill="#0f172a">0.46</text>
<rect x="547.5" y="192.5" width="112.5" height="112.5" fill="rgb(158,178,250)" stroke="#ffffff"/>
<text x="603.8" y="252.8" text-anchor="middle" font-size="11" fill="#0f172a">0.52</text>
<text x="200" y="252.8" text-anchor="end" font-size="11" fill="#334155">predictive entropy</text>
<rect x="210.0" y="305.0" width="112.5" height="112.5" fill="rgb(197,217,250)" stroke="#ffffff"/>
<text x="266.2" y="365.2" text-anchor="middle" font-size="11" fill="#0f172a">0.29</text>
<rect x="322.5" y="305.0" width="112.5" height="112.5" fill="rgb(169,189,250)" stroke="#ffffff"/>
<text x="378.8" y="365.2" text-anchor="middle" font-size="11" fill="#0f172a">0.46</text>
<rect x="435.0" y="305.0" width="112.5" height="112.5" fill="rgb(80,100,250)" stroke="#ffffff"/>
<text x="491.2" y="365.2" text-anchor="middle" font-size="11" fill="#0f172a">1.00</text>
<rect x="547.5" y="305.0" width="112.5" height="112.5" fill="rgb(144,164,250)" stroke="#ffffff"/>
<text x="603.8" y="365.2" text-anchor="middle" font-size="11" fill="#0f172a">0.61</text>
<text x="200" y="365.2" text-anchor="end" font-size="11" fill="#334155">static easy entropy</text>
<rect x="210.0" y="417.5" width="112.5" height="112.5" fill="rgb(196,216,250)" stroke="#ffffff"/>
<text x="266.2" y="477.8" text-anchor="middle" font-size="11" fill="#0f172a">0.29</text>
<rect x="322.5" y="417.5" width="112.5" height="112.5" fill="rgb(158,178,250)" stroke="#ffffff"/>
<text x="378.8" y="477.8" text-anchor="middle" font-size="11" fill="#0f172a">0.52</text>
<rect x="435.0" y="417.5" width="112.5" height="112.5" fill="rgb(144,164,250)" stroke="#ffffff"/>
<text x="491.2" y="477.8" text-anchor="middle" font-size="11" fill="#0f172a">0.61</text>
<rect x="547.5" y="417.5" width="112.5" height="112.5" fill="rgb(80,100,250)" stroke="#ffffff"/>
<text x="603.8" y="477.8" text-anchor="middle" font-size="11" fill="#0f172a">1.00</text>
<text x="200" y="477.8" text-anchor="end" font-size="11" fill="#334155">self paced entropy</text>
<text x="266.2" y="545.0" transform="rotate(42 266.2 545.0)" text-anchor="start" font-size="11" fill="#334155">random</text>
<text x="378.8" y="545.0" transform="rotate(42 378.8 545.0)" text-anchor="start" font-size="11" fill="#334155">predictive entropy</text>
<text x="491.2" y="545.0" transform="rotate(42 491.2 545.0)" text-anchor="start" font-size="11" fill="#334155">static easy entropy</text>
<text x="603.8" y="545.0" transform="rotate(42 603.8 545.0)" text-anchor="start" font-size="11" fill="#334155">self paced entropy</text>
</svg>