<svg xmlns="http://www.w3.org/2000/svg" width="980" height="560" viewBox="0 0 980 560">
<rect width="980" height="560" fill="#ffffff"/>
<text x="490.0" y="32" text-anchor="middle" font-family="Arial, sans-serif" font-size="20" font-weight="700" fill="#0f172a">Phase 5 cumulative selected-sequence diversity</text>
<text x="490.0" y="54" text-anchor="middle" font-family="Arial, sans-serif" font-size="12" fill="#475569">Mean pairwise normalised Levenshtein distance at preregistered labelled-count budgets.</text>
<line x1="90" y1="440.0" x2="920" y2="440.0" stroke="#e2e8f0"/>
<text x="80" y="444.0" text-anchor="end" font-family="Arial" font-size="11" fill="#475569">0.65</text>
<line x1="90" y1="369.0" x2="920" y2="369.0" stroke="#e2e8f0"/>
<text x="80" y="373.0" text-anchor="end" font-family="Arial" font-size="11" fill="#475569">0.72</text>
<line x1="90" y1="298.0" x2="920" y2="298.0" stroke="#e2e8f0"/>
<text x="80" y="302.0" text-anchor="end" font-family="Arial" font-size="11" fill="#475569">0.79</text>
<line x1="90" y1="227.0" x2="920" y2="227.0" stroke="#e2e8f0"/>
<text x="80" y="231.0" text-anchor="end" font-family="Arial" font-size="11" fill="#475569">0.86</text>
<line x1="90" y1="156.0" x2="920" y2="156.0" stroke="#e2e8f0"/>
<text x="80" y="160.0" text-anchor="end" font-family="Arial" font-size="11" fill="#475569">0.93</text>
<line x1="90" y1="85.0" x2="920" y2="85.0" stroke="#e2e8f0"/>
<text x="80" y="89.0" text-anchor="end" font-family="Arial" font-size="11" fill="#475569">1.00</text>
<rect x="112.8" y="212.8" width="51.3" height="227.2" fill="#2563eb" rx="2"/>
<text x="138.5" y="206.8" text-anchor="middle" font-family="Arial" font-size="10" fill="#334155">0.874</text>
<rect x="168.1" y="218.0" width="51.3" height="222.0" fill="#d97706" rx="2"/>
<text x="193.8" y="212.0" text-anchor="middle" font-family="Arial" font-size="10" fill="#334155">0.869</text>
<rect x="223.4" y="217.8" width="51.3" height="222.2" fill="#0f766e" rx="2"/>
<text x="249.0" y="211.8" text-anchor="middle" font-family="Arial" font-size="10" fill="#334155">0.869</text>
<text x="193.8" y="460" transform="rotate(28 193.8 460)" text-anchor="start" font-family="Arial" font-size="11" fill="#334155">random</text>
<rect x="320.3" y="235.9" width="51.3" height="204.1" fill="#2563eb" rx="2"/>
<text x="346.0" y="229.9" text-anchor="middle" font-family="Arial" font-size="10" fill="#334155">0.851</text>
<rect x="375.6" y="236.1" width="51.3" height="203.9" fill="#d97706" rx="2"/>
<text x="401.2" y="230.1" text-anchor="middle" font-family="Arial" font-size="10" fill="#334155">0.851</text>
<rect x="430.9" y="236.5" width="51.3" height="203.5" fill="#0f766e" rx="2"/>
<text x="456.5" y="230.5" text-anchor="middle" font-family="Arial" font-size="10" fill="#334155">0.851</text>
<text x="401.2" y="460" transform="rotate(28 401.2 460)" text-anchor="start" font-family="Arial" font-size="11" fill="#334155">predictive entropy</text>
<rect x="527.8" y="323.8" width="51.3" height="116.2" fill="#2563eb" rx="2"/>
<text x="553.5" y="317.8" text-anchor="middle" font-family="Arial" font-size="10" fill="#334155">0.765</text>
<rect x="583.1" y="328.5" width="51.3" height="111.5" fill="#d97706" rx="2"/>
<text x="608.8" y="322.5" text-anchor="middle" font-family="Arial" font-size="10" fill="#334155">0.760</text>
<rect x="638.4" y="270.1" width="51.3" height="169.9" fill="#0f766e" rx="2"/>
<text x="664.0" y="264.1" text-anchor="middle" font-family="Arial" font-size="10" fill="#334155">0.817</text>
<text x="608.8" y="460" transform="rotate(28 608.8 460)" text-anchor="start" font-family="Arial" font-size="11" fill="#334155">static easy entropy</text>
<rect x="735.3" y="297.6" width="51.3" height="142.4" fill="#2563eb" rx="2"/>
<text x="761.0" y="291.6" text-anchor="middle" font-family="Arial" font-size="10" fill="#334155">0.790</text>
<rect x="790.6" y="290.7" width="51.3" height="149.3" fill="#d97706" rx="2"/>
<text x="816.2" y="284.7" text-anchor="middle" font-family="Arial" font-size="10" fill="#334155">0.797</text>
<rect x="845.9" y="248.9" width="51.3" height="191.1" fill="#0f766e" rx="2"/>
<text x="871.5" y="242.9" text-anchor="middle" font-family="Arial" font-size="10" fill="#334155">0.838</text>
<text x="816.2" y="460" transform="rotate(28 816.2 460)" text-anchor="start" font-family="Arial" font-size="11" fill="#334155">self paced entropy</text>
<text x="22" y="262.5" transform="rotate(-90 22 262.5)" text-anchor="middle" font-family="Arial" font-size="13" fill="#334155">Mean pairwise normalised Levenshtein distance</text>
<rect x="90" y="528" width="14" height="10" fill="#2563eb"/>
<text x="110" y="537" font-family="Arial" font-size="11" fill="#334155">60 labels</text>
<rect x="270" y="528" width="14" height="10" fill="#d97706"/>
<text x="290" y="537" font-family="Arial" font-size="11" fill="#334155">110 labels</text>
<rect x="450" y="528" width="14" height="10" fill="#0f766e"/>
<text x="470" y="537" font-family="Arial" font-size="11" fill="#334155">160 labels</text>
</svg>