<svg xmlns="http://www.w3.org/2000/svg" width="980" height="560" viewBox="0 0 980 560">
<rect width="980" height="560" fill="#ffffff"/>
<text x="490.0" y="32" text-anchor="middle" font-family="Arial, sans-serif" font-size="20" font-weight="700" fill="#0f172a">Primary Phase 4 selected peptide lengths</text>
<text x="490.0" y="54" text-anchor="middle" font-family="Arial, sans-serif" font-size="12" fill="#475569">The 25-residue MES proposal violated the configured 3-24 range and was not simulated.</text>
<line x1="90" y1="440.0" x2="920" y2="440.0" stroke="#e2e8f0"/>
<text x="80" y="444.0" text-anchor="end" font-family="Arial" font-size="11" fill="#475569">0.00</text>
<line x1="90" y1="369.0" x2="920" y2="369.0" stroke="#e2e8f0"/>
<text x="80" y="373.0" text-anchor="end" font-family="Arial" font-size="11" fill="#475569">5.60</text>
<line x1="90" y1="298.0" x2="920" y2="298.0" stroke="#e2e8f0"/>
<text x="80" y="302.0" text-anchor="end" font-family="Arial" font-size="11" fill="#475569">11.20</text>
<line x1="90" y1="227.0" x2="920" y2="227.0" stroke="#e2e8f0"/>
<text x="80" y="231.0" text-anchor="end" font-family="Arial" font-size="11" fill="#475569">16.80</text>
<line x1="90" y1="156.0" x2="920" y2="156.0" stroke="#e2e8f0"/>
<text x="80" y="160.0" text-anchor="end" font-family="Arial" font-size="11" fill="#475569">22.40</text>
<line x1="90" y1="85.0" x2="920" y2="85.0" stroke="#e2e8f0"/>
<text x="80" y="89.0" text-anchor="end" font-family="Arial" font-size="11" fill="#475569">28.00</text>
<rect x="105.2" y="376.6" width="52.0" height="63.4" fill="#2563eb" rx="2"/>
<text x="131.2" y="370.6" text-anchor="middle" font-family="Arial" font-size="10" fill="#334155">5.000</text>
<rect x="161.2" y="376.6" width="52.0" height="63.4" fill="#d97706" rx="2"/>
<text x="187.1" y="370.6" text-anchor="middle" font-family="Arial" font-size="10" fill="#334155">5.000</text>
<text x="159.2" y="460" transform="rotate(28 159.2 460)" text-anchor="start" font-family="Arial" font-size="11" fill="#334155">random</text>
<rect x="243.6" y="313.2" width="52.0" height="126.8" fill="#2563eb" rx="2"/>
<text x="269.5" y="307.2" text-anchor="middle" font-family="Arial" font-size="10" fill="#334155">10.000</text>
<rect x="299.5" y="313.2" width="52.0" height="126.8" fill="#d97706" rx="2"/>
<text x="325.5" y="307.2" text-anchor="middle" font-family="Arial" font-size="10" fill="#334155">10.000</text>
<text x="297.5" y="460" transform="rotate(28 297.5 460)" text-anchor="start" font-family="Arial" font-size="11" fill="#334155">greedy</text>
<rect x="381.9" y="313.2" width="52.0" height="126.8" fill="#2563eb" rx="2"/>
<text x="407.9" y="307.2" text-anchor="middle" font-family="Arial" font-size="10" fill="#334155">10.000</text>
<rect x="437.8" y="313.2" width="52.0" height="126.8" fill="#d97706" rx="2"/>
<text x="463.8" y="307.2" text-anchor="middle" font-family="Arial" font-size="10" fill="#334155">10.000</text>
<text x="435.8" y="460" transform="rotate(28 435.8 460)" text-anchor="start" font-family="Arial" font-size="11" fill="#334155">ucb</text>
<rect x="520.2" y="176.3" width="52.0" height="263.7" fill="#2563eb" rx="2"/>
<text x="546.2" y="170.3" text-anchor="middle" font-family="Arial" font-size="10" fill="#334155">20.800</text>
<rect x="576.2" y="173.8" width="52.0" height="266.2" fill="#d97706" rx="2"/>
<text x="602.1" y="167.8" text-anchor="middle" font-family="Arial" font-size="10" fill="#334155">21.000</text>
<text x="574.2" y="460" transform="rotate(28 574.2 460)" text-anchor="start" font-family="Arial" font-size="11" fill="#334155">pi</text>
<rect x="658.5" y="361.4" width="52.0" height="78.6" fill="#2563eb" rx="2"/>
<text x="684.5" y="355.4" text-anchor="middle" font-family="Arial" font-size="10" fill="#334155">6.200</text>
<rect x="714.5" y="351.2" width="52.0" height="88.8" fill="#d97706" rx="2"/>
<text x="740.5" y="345.2" text-anchor="middle" font-family="Arial" font-size="10" fill="#334155">7.000</text>
<text x="712.5" y="460" transform="rotate(28 712.5 460)" text-anchor="start" font-family="Arial" font-size="11" fill="#334155">ei</text>
<rect x="796.9" y="140.8" width="52.0" height="299.2" fill="#2563eb" rx="2"/>
<text x="822.9" y="134.8" text-anchor="middle" font-family="Arial" font-size="10" fill="#334155">23.600</text>
<rect x="852.8" y="123.0" width="52.0" height="317.0" fill="#d97706" rx="2"/>
<text x="878.8" y="117.0" text-anchor="middle" font-family="Arial" font-size="10" fill="#334155">25.000</text>
<text x="850.8" y="460" transform="rotate(28 850.8 460)" text-anchor="start" font-family="Arial" font-size="11" fill="#334155">mes</text>
<text x="22" y="262.5" transform="rotate(-90 22 262.5)" text-anchor="middle" font-family="Arial" font-size="13" fill="#334155">Residues</text>
<rect x="90" y="528" width="14" height="10" fill="#2563eb"/>
<text x="110" y="537" font-family="Arial" font-size="11" fill="#334155">Mean length</text>
<rect x="270" y="528" width="14" height="10" fill="#d97706"/>
<text x="290" y="537" font-family="Arial" font-size="11" fill="#334155">Maximum length</text>
</svg>