<svg xmlns="http://www.w3.org/2000/svg" width="980" height="590" viewBox="0 0 980 590">
<rect width="980" height="590" fill="#ffffff"/>
<line x1="90.0" y1="85" x2="90.0" y2="510" stroke="#f1f5f9"/>
<line x1="90" y1="510.0" x2="740" y2="510.0" stroke="#f1f5f9"/>
<text x="90.0" y="532" text-anchor="middle" font-size="15" fill="#111827">1.09</text>
<text x="80" y="514.0" text-anchor="end" font-size="15" fill="#111827">0.46</text>
<line x1="220.0" y1="85" x2="220.0" y2="510" stroke="#f1f5f9"/>
<line x1="90" y1="425.0" x2="740" y2="425.0" stroke="#f1f5f9"/>
<text x="220.0" y="532" text-anchor="middle" font-size="15" fill="#111827">1.46</text>
<text x="80" y="429.0" text-anchor="end" font-size="15" fill="#111827">0.56</text>
<line x1="350.0" y1="85" x2="350.0" y2="510" stroke="#f1f5f9"/>
<line x1="90" y1="340.0" x2="740" y2="340.0" stroke="#f1f5f9"/>
<text x="350.0" y="532" text-anchor="middle" font-size="15" fill="#111827">1.84</text>
<text x="80" y="344.0" text-anchor="end" font-size="15" fill="#111827">0.66</text>
<line x1="480.0" y1="85" x2="480.0" y2="510" stroke="#f1f5f9"/>
<line x1="90" y1="255.0" x2="740" y2="255.0" stroke="#f1f5f9"/>
<text x="480.0" y="532" text-anchor="middle" font-size="15" fill="#111827">2.22</text>
<text x="80" y="259.0" text-anchor="end" font-size="15" fill="#111827">0.76</text>
<line x1="610.0" y1="85" x2="610.0" y2="510" stroke="#f1f5f9"/>
<line x1="90" y1="170.0" x2="740" y2="170.0" stroke="#f1f5f9"/>
<text x="610.0" y="532" text-anchor="middle" font-size="15" fill="#111827">2.59</text>
<text x="80" y="174.0" text-anchor="end" font-size="15" fill="#111827">0.87</text>
<line x1="740.0" y1="85" x2="740.0" y2="510" stroke="#f1f5f9"/>
<line x1="90" y1="85.0" x2="740" y2="85.0" stroke="#f1f5f9"/>
<text x="740.0" y="532" text-anchor="middle" font-size="15" fill="#111827">2.97</text>
<text x="80" y="89.0" text-anchor="end" font-size="15" fill="#111827">0.97</text>
<line x1="318.7" y1="85" x2="318.7" y2="510" stroke="#dc2626" stroke-width="2.6" stroke-dasharray="7 5"/>
<text x="323.7" y="100" font-size="15" font-weight="700" fill="#991b1b">threshold 1.75</text>
<line x1="90" y1="474.4" x2="740" y2="474.4" stroke="#dc2626" stroke-width="2.6" stroke-dasharray="7 5"/>
<text x="95" y="467.4" font-size="15" font-weight="700" fill="#991b1b">threshold 0.5</text>
<circle cx="623.5" cy="170.7" r="6" fill="#64748b" fill-opacity="0.78" stroke="#111827" stroke-width="2"><title>MNNYY</title></circle>
<circle cx="695.2" cy="143.0" r="6" fill="#64748b" fill-opacity="0.78" stroke="#111827" stroke-width="2"><title>FSTTY</title></circle>
<circle cx="296.0" cy="252.1" r="5" fill="#64748b" fill-opacity="0.78" stroke="#ffffff" stroke-width="1"><title>VVFNR</title></circle>
<circle cx="134.8" cy="411.8" r="5" fill="#64748b" fill-opacity="0.78" stroke="#ffffff" stroke-width="1"><title>EHQEA</title></circle>
<circle cx="676.0" cy="152.1" r="6" fill="#64748b" fill-opacity="0.78" stroke="#111827" stroke-width="2"><title>FNNYY</title></circle>
<circle cx="372.1" cy="155.7" r="6" fill="#0f766e" fill-opacity="0.78" stroke="#111827" stroke-width="2"><title>MQMMGMNVAG</title></circle>
<circle cx="214.2" cy="221.5" r="5" fill="#0f766e" fill-opacity="0.78" stroke="#ffffff" stroke-width="1"><title>MQMMQCRCRG</title></circle>
<circle cx="438.1" cy="137.1" r="6" fill="#0f766e" fill-opacity="0.78" stroke="#111827" stroke-width="2"><title>MLNMGLNYAG</title></circle>
<circle cx="172.8" cy="260.8" r="5" fill="#0f766e" fill-opacity="0.78" stroke="#ffffff" stroke-width="1"><title>MQMMQIRCRR</title></circle>
<circle cx="182.7" cy="257.6" r="5" fill="#0f766e" fill-opacity="0.78" stroke="#ffffff" stroke-width="1"><title>MQMMQCRCRR</title></circle>
<circle cx="243.4" cy="393.1" r="5" fill="#2563eb" fill-opacity="0.78" stroke="#ffffff" stroke-width="1"><title>MGLRRVIAYL</title></circle>
<circle cx="246.9" cy="379.7" r="5" fill="#2563eb" fill-opacity="0.78" stroke="#ffffff" stroke-width="1"><title>MGLRRVIAYF</title></circle>
<circle cx="259.6" cy="215.4" r="5" fill="#2563eb" fill-opacity="0.78" stroke="#ffffff" stroke-width="1"><title>LCLESDDYNY</title></circle>
<circle cx="256.0" cy="235.7" r="5" fill="#2563eb" fill-opacity="0.78" stroke="#ffffff" stroke-width="1"><title>LCLESDEYNY</title></circle>
<circle cx="398.1" cy="136.7" r="6" fill="#2563eb" fill-opacity="0.78" stroke="#111827" stroke-width="2"><title>MCLEKQEYNY</title></circle>
<circle cx="412.1" cy="155.1" r="6" fill="#7c3aed" fill-opacity="0.78" stroke="#111827" stroke-width="2"><title>YWRMRHWDMCECRAAVVEPPN</title></circle>
<circle cx="409.9" cy="133.8" r="6" fill="#7c3aed" fill-opacity="0.78" stroke="#111827" stroke-width="2"><title>YVRMRHWDMCECRAAVVEPPN</title></circle>
<circle cx="364.6" cy="123.5" r="6" fill="#7c3aed" fill-opacity="0.78" stroke="#111827" stroke-width="2"><title>YWRMRHWDECECRAAVVEPPN</title></circle>
<circle cx="410.8" cy="160.2" r="6" fill="#7c3aed" fill-opacity="0.78" stroke="#111827" stroke-width="2"><title>YVRMRHWDMCECRAVVEPPN</title></circle>
<circle cx="433.4" cy="149.0" r="6" fill="#7c3aed" fill-opacity="0.78" stroke="#111827" stroke-width="2"><title>YVRMRHWDMCECRACVVEPPN</title></circle>
<circle cx="348.9" cy="371.2" r="6" fill="#db2777" fill-opacity="0.78" stroke="#111827" stroke-width="2"><title>PMKCCD</title></circle>
<circle cx="437.2" cy="467.9" r="6" fill="#db2777" fill-opacity="0.78" stroke="#111827" stroke-width="2"><title>PMLGPLV</title></circle>
<circle cx="241.6" cy="472.4" r="5" fill="#db2777" fill-opacity="0.78" stroke="#ffffff" stroke-width="1"><title>MMDMPV</title></circle>
<circle cx="362.5" cy="480.7" r="5" fill="#db2777" fill-opacity="0.78" stroke="#ffffff" stroke-width="1"><title>PMLGPLG</title></circle>
<circle cx="374.0" cy="336.0" r="6" fill="#db2777" fill-opacity="0.78" stroke="#111827" stroke-width="2"><title>CWYKE</title></circle>
<circle cx="296.8" cy="172.1" r="5" fill="#d97706" fill-opacity="0.78" stroke="#ffffff" stroke-width="1"><title>VLNINNMGAKWRRTCQRLTPAAP</title></circle>
<circle cx="382.9" cy="114.3" r="6" fill="#d97706" fill-opacity="0.78" stroke="#111827" stroke-width="2"><title>VLNINNMGADWRRTCNQRLTPAP</title></circle>
<circle cx="316.0" cy="132.5" r="5" fill="#d97706" fill-opacity="0.78" stroke="#ffffff" stroke-width="1"><title>VLNINNMGAKWRRTCNQRLTPALP</title></circle>
<circle cx="296.8" cy="169.2" r="5" fill="#d97706" fill-opacity="0.78" stroke="#ffffff" stroke-width="1"><title>VLNINNMGAKWRRTCNQRLTPAP</title></circle>
<circle cx="770" cy="103" r="7.5" fill="#64748b"/>
<text x="790" y="107" font-size="15" fill="#111827">random</text>
<circle cx="770" cy="128" r="7.5" fill="#0f766e"/>
<text x="790" y="132" font-size="15" fill="#111827">greedy</text>
<circle cx="770" cy="153" r="7.5" fill="#2563eb"/>
<text x="790" y="157" font-size="15" fill="#111827">ucb</text>
<circle cx="770" cy="178" r="7.5" fill="#7c3aed"/>
<text x="790" y="182" font-size="15" fill="#111827">pi</text>
<circle cx="770" cy="203" r="7.5" fill="#db2777"/>
<text x="790" y="207" font-size="15" fill="#111827">ei</text>
<circle cx="770" cy="228" r="7.5" fill="#d97706"/>
<text x="790" y="232" font-size="15" fill="#111827">mes</text>
<text x="415.0" y="566" text-anchor="middle" font-size="18" font-weight="700" fill="#111827">AP-SASA ratio at 200 ns</text>
<text x="34" y="297.5" transform="rotate(-90 34 297.5)" text-anchor="middle" font-size="18" font-weight="700" fill="#111827">Final-10-ns paper-path AP-contact</text>
</svg>

