<svg xmlns="http://www.w3.org/2000/svg" width="980" height="560" viewBox="0 0 980 560">
<rect width="980" height="560" fill="#ffffff"/>
<text x="490.0" y="32" text-anchor="middle" font-family="Arial, sans-serif" font-size="20" font-weight="700" fill="#0f172a">Phase 3 final frozen-holdout metrics</text>
<text x="490.0" y="54" text-anchor="middle" font-family="Arial, sans-serif" font-size="12" fill="#475569">Terminal post-ingest models after eight CG-MD rounds; threshold chosen on validation only.</text>
<line x1="90" y1="440.0" x2="920" y2="440.0" stroke="#e2e8f0"/>
<text x="80" y="444.0" text-anchor="end" font-family="Arial" font-size="11" fill="#475569">0.70</text>
<line x1="90" y1="369.0" x2="920" y2="369.0" stroke="#e2e8f0"/>
<text x="80" y="373.0" text-anchor="end" font-family="Arial" font-size="11" fill="#475569">0.76</text>
<line x1="90" y1="298.0" x2="920" y2="298.0" stroke="#e2e8f0"/>
<text x="80" y="302.0" text-anchor="end" font-family="Arial" font-size="11" fill="#475569">0.82</text>
<line x1="90" y1="227.0" x2="920" y2="227.0" stroke="#e2e8f0"/>
<text x="80" y="231.0" text-anchor="end" font-family="Arial" font-size="11" fill="#475569">0.88</text>
<line x1="90" y1="156.0" x2="920" y2="156.0" stroke="#e2e8f0"/>
<text x="80" y="160.0" text-anchor="end" font-family="Arial" font-size="11" fill="#475569">0.94</text>
<line x1="90" y1="85.0" x2="920" y2="85.0" stroke="#e2e8f0"/>
<text x="80" y="89.0" text-anchor="end" font-family="Arial" font-size="11" fill="#475569">1.00</text>
<rect x="174.3" y="231.5" width="52.0" height="208.5" fill="#2563eb" rx="2"/>
<text x="200.3" y="225.5" text-anchor="middle" font-family="Arial" font-size="10" fill="#334155">0.876</text>
<rect x="230.3" y="190.0" width="52.0" height="250.0" fill="#d97706" rx="2"/>
<text x="256.3" y="184.0" text-anchor="middle" font-family="Arial" font-size="10" fill="#334155">0.911</text>
<text x="228.3" y="460" transform="rotate(28 228.3 460)" text-anchor="start" font-family="Arial" font-size="11" fill="#334155">predictive entropy</text>
<rect x="451.0" y="237.3" width="52.0" height="202.7" fill="#2563eb" rx="2"/>
<text x="477.0" y="231.3" text-anchor="middle" font-family="Arial" font-size="10" fill="#334155">0.871</text>
<rect x="507.0" y="173.2" width="52.0" height="266.8" fill="#d97706" rx="2"/>
<text x="533.0" y="167.2" text-anchor="middle" font-family="Arial" font-size="10" fill="#334155">0.925</text>
<text x="505.0" y="460" transform="rotate(28 505.0 460)" text-anchor="start" font-family="Arial" font-size="11" fill="#334155">family qbc</text>
<rect x="727.7" y="232.9" width="52.0" height="207.1" fill="#2563eb" rx="2"/>
<text x="753.7" y="226.9" text-anchor="middle" font-family="Arial" font-size="10" fill="#334155">0.875</text>
<rect x="783.7" y="174.6" width="52.0" height="265.4" fill="#d97706" rx="2"/>
<text x="809.7" y="168.6" text-anchor="middle" font-family="Arial" font-size="10" fill="#334155">0.924</text>
<text x="781.7" y="460" transform="rotate(28 781.7 460)" text-anchor="start" font-family="Arial" font-size="11" fill="#334155">cluster diverse representative</text>
<text x="22" y="262.5" transform="rotate(-90 22 262.5)" text-anchor="middle" font-family="Arial" font-size="13" fill="#334155">Metric value</text>
<rect x="90" y="528" width="14" height="10" fill="#2563eb"/>
<text x="110" y="537" font-family="Arial" font-size="11" fill="#334155">F1</text>
<rect x="270" y="528" width="14" height="10" fill="#d97706"/>
<text x="290" y="537" font-family="Arial" font-size="11" fill="#334155">PR-AUC</text>
</svg>